SplineFontDB: 3.0
FontName: SpurceSans-LightItalic
FullName: Spurce Sans Light Italic
FamilyName: Spurce Sans
Weight: Light
Copyright: Copyright 2020 Nicholas Auler, with font name 'Spurce'.\n\nBased on Source Sans, Copyright 2010, 2012, 2014 Adobe Systems Incorporated (http://www.adobe.com/), with Reserved Font Name `Source'.
UComments: "This font is still in beta. If you find any issues, contact me at nicholas.auler@gmail.com+AAoA"
Version: 0.6
ItalicAngle: -11
UnderlinePosition: -100
UnderlineWidth: 50
Ascent: 750
Descent: 250
InvalidEm: 0
sfntRevision: 0x0000999a
LayerCount: 2
Layer: 0 1 "Back" 1
Layer: 1 1 "Fore" 0
XUID: [1021 316 771282308 30439]
StyleMap: 0x0001
FSType: 0
OS2Version: 3
OS2_WeightWidthSlopeOnly: 0
OS2_UseTypoMetrics: 0
CreationTime: 1441032399
ModificationTime: 1588185377
PfmFamily: 33
TTFWeight: 300
TTFWidth: 5
LineGap: 0
VLineGap: 0
Panose: 2 11 4 3 3 4 3 9 2 4
OS2TypoAscent: 750
OS2TypoAOffset: 0
OS2TypoDescent: -250
OS2TypoDOffset: 0
OS2TypoLinegap: 0
OS2WinAscent: 984
OS2WinAOffset: 0
OS2WinDescent: 273
OS2WinDOffset: 0
HheadAscent: 984
HheadAOffset: 0
HheadDescent: -273
HheadDOffset: 0
OS2SubXSize: 650
OS2SubYSize: 600
OS2SubXOff: -15
OS2SubYOff: 75
OS2SupXSize: 650
OS2SupYSize: 600
OS2SupXOff: 68
OS2SupYOff: 350
OS2StrikeYSize: 50
OS2StrikeYPos: 288
OS2CapHeight: 660
OS2XHeight: 480
OS2Vendor: 'ADBO'
OS2CodePages: 20000193.00000000
OS2UnicodeRanges: 20000007.00000001.00000000.00000000
Lookup: 1 0 0 "'aalt' Access All Alternates in Latin lookup 0" { "'aalt' Access All Alternates in Latin lookup 0 subtable"  } ['aalt' ('DFLT' <'dflt' > 'latn' <'dflt' > ) ]
Lookup: 3 0 0 "'aalt' Access All Alternates in Latin lookup 1" { "'aalt' Access All Alternates in Latin lookup 1 subtable"  } ['aalt' ('DFLT' <'dflt' > 'latn' <'dflt' > ) ]
Lookup: 2 0 0 "Multiple Substitution lookup 2" { "Multiple Substitution lookup 2 subtable"  } []

StartChar: .notdef
Encoding: 65536 -1 0
Width: 608
Flags: W
LayerCount: 2
Fore
SplineSet
40 0 m 1,0,-1
 170 660 l 1,1,-1
 597 660 l 1,2,-1
 467 0 l 1,3,-1
 40 0 l 1,0,-1
325 369 m 1,4,-1
 329 369 l 1,5,-1
 400 462 l 1,6,-1
 516 621 l 1,7,-1
 241 621 l 1,8,-1
 292 462 l 1,9,-1
 325 369 l 1,4,-1
111 39 m 1,10,-1
 410 39 l 1,11,-1
 354 204 l 1,12,-1
 317 307 l 1,13,-1
 313 307 l 1,14,-1
 234 204 l 1,15,-1
 111 39 l 1,10,-1
103 81 m 1,16,-1
 293 340 l 1,17,-1
 205 601 l 1,18,-1
 103 81 l 1,16,-1
438 81 m 1,19,-1
 545 601 l 1,20,-1
 351 340 l 1,21,-1
 438 81 l 1,19,-1
EndSplineSet
EndChar

StartChar: A
Encoding: 65 65 2
Width: 488
GlyphClass: 2
Flags: W
AnchorPoint: "Anchor-6" 410 0 basechar 0
AnchorPoint: "Anchor-3" 215 -22 basechar 0
AnchorPoint: "Anchor-1" 348 682 basechar 0
LayerCount: 2
Fore
SplineSet
210 391 m 2,0,-1
 142 264 l 1,1,-1
 370 264 l 1,2,-1
 355 391 l 2,3,4
 350 446 350 446 343.5 501.5 c 128,-1,5
 337 557 337 557 332 616 c 1,6,-1
 328 616 l 1,7,8
 299 556 299 556 270 502 c 128,-1,9
 241 448 241 448 210 391 c 2,0,-1
-48 0 m 1,10,-1
 315 659 l 1,11,-1
 362 659 l 1,12,-1
 443 0 l 1,13,-1
 400 0 l 1,14,-1
 374 229 l 1,15,-1
 123 229 l 1,16,-1
 0 0 l 1,17,-1
 -48 0 l 1,10,-1
EndSplineSet
EndChar

StartChar: B
Encoding: 66 66 3
Width: 571
GlyphClass: 2
Flags: W
AnchorPoint: "Anchor-3" 243 -22 basechar 0
AnchorPoint: "Anchor-1" 329 682 basechar 0
LayerCount: 2
Fore
SplineSet
39 0 m 1,0,-1
 170 659 l 1,1,-1
 332 659 l 2,2,3
 425 659 425 659 475 621.5 c 128,-1,4
 525 584 525 584 525 516 c 0,5,6
 525 480 525 480 511 451 c 128,-1,7
 497 422 497 422 475 401 c 128,-1,8
 453 380 453 380 426.5 367.5 c 128,-1,9
 400 355 400 355 376 351 c 1,10,-1
 376 347 l 1,11,12
 400 341 400 341 422.5 330 c 128,-1,13
 445 319 445 319 462.5 302 c 128,-1,14
 480 285 480 285 490 261.5 c 128,-1,15
 500 238 500 238 500 207 c 0,16,17
 500 154 500 154 480.5 115 c 128,-1,18
 461 76 461 76 426 50.5 c 128,-1,19
 391 25 391 25 342 12.5 c 128,-1,20
 293 0 293 0 234 0 c 2,21,-1
 39 0 l 1,0,-1
154 367 m 1,22,-1
 266 367 l 2,23,24
 375 367 375 367 428.5 407.5 c 128,-1,25
 482 448 482 448 482 512 c 0,26,27
 482 565 482 565 442 594 c 128,-1,28
 402 623 402 623 315 623 c 2,29,-1
 206 623 l 1,30,-1
 154 367 l 1,22,-1
88 36 m 1,31,-1
 219 36 l 2,32,33
 273 36 273 36 317 45 c 128,-1,34
 361 54 361 54 392.5 74 c 128,-1,35
 424 94 424 94 441 126 c 128,-1,36
 458 158 458 158 458 204 c 0,37,38
 458 260 458 260 412.5 296 c 128,-1,39
 367 332 367 332 282 332 c 2,40,-1
 148 332 l 1,41,-1
 88 36 l 1,31,-1
EndSplineSet
EndChar

StartChar: C
Encoding: 67 67 4
Width: 540
GlyphClass: 2
Flags: W
AnchorPoint: "Anchor-3" 270 -22 basechar 0
AnchorPoint: "Anchor-2" 276 0 basechar 0
AnchorPoint: "Anchor-1" 410 682 basechar 0
LayerCount: 2
Fore
SplineSet
281 -12 m 256,0,1
 225 -12 225 -12 183.5 7.5 c 128,-1,2
 142 27 142 27 114 62 c 128,-1,3
 86 97 86 97 72 144.5 c 128,-1,4
 58 192 58 192 58 248 c 0,5,6
 58 321 58 321 81 396.5 c 128,-1,7
 104 472 104 472 147 533 c 128,-1,8
 190 594 190 594 252 632.5 c 128,-1,9
 314 671 314 671 392 671 c 0,10,11
 448 671 448 671 485.5 643.5 c 128,-1,12
 523 616 523 616 546 578 c 1,13,-1
 514 555 l 1,14,15
 494 589 494 589 464 611.5 c 128,-1,16
 434 634 434 634 389 634 c 0,17,18
 321 634 321 634 267.5 598 c 128,-1,19
 214 562 214 562 177 506.5 c 128,-1,20
 140 451 140 451 120.5 384 c 128,-1,21
 101 317 101 317 101 254 c 0,22,23
 101 205 101 205 112 163 c 128,-1,24
 123 121 123 121 145.5 90.5 c 128,-1,25
 168 60 168 60 203 42.5 c 128,-1,26
 238 25 238 25 286 25 c 0,27,28
 332 25 332 25 369 42 c 128,-1,29
 406 59 406 59 442 89 c 1,30,-1
 465 61 l 1,31,32
 424 27 424 27 380.5 7.5 c 128,-1,33
 337 -12 337 -12 281 -12 c 256,0,1
EndSplineSet
EndChar

StartChar: D
Encoding: 68 68 5
Width: 577
GlyphClass: 2
Flags: W
AnchorPoint: "Anchor-3" 247 -22 basechar 0
AnchorPoint: "Anchor-1" 374 682 basechar 0
LayerCount: 2
Fore
SplineSet
39 0 m 1,0,-1
 170 659 l 1,1,-1
 279 659 l 2,2,3
 347 659 347 659 398 640.5 c 128,-1,4
 449 622 449 622 483 588.5 c 128,-1,5
 517 555 517 555 534 508 c 128,-1,6
 551 461 551 461 551 403 c 0,7,8
 551 317 551 317 528 243.5 c 128,-1,9
 505 170 505 170 460.5 116 c 128,-1,10
 416 62 416 62 350.5 31 c 128,-1,11
 285 0 285 0 199 0 c 2,12,-1
 39 0 l 1,0,-1
88 36 m 1,13,-1
 200 36 l 2,14,15
 273 36 273 36 330.5 65 c 128,-1,16
 388 94 388 94 427.5 143.5 c 128,-1,17
 467 193 467 193 487.5 259 c 128,-1,18
 508 325 508 325 508 400 c 0,19,20
 508 450 508 450 493.5 491 c 128,-1,21
 479 532 479 532 450.5 561.5 c 128,-1,22
 422 591 422 591 378.5 607 c 128,-1,23
 335 623 335 623 277 623 c 2,24,-1
 205 623 l 1,25,-1
 88 36 l 1,13,-1
EndSplineSet
EndChar

StartChar: E
Encoding: 69 69 6
Width: 489
GlyphClass: 2
Flags: W
AnchorPoint: "Anchor-6" 332 0 basechar 0
AnchorPoint: "Anchor-3" 236 -22 basechar 0
AnchorPoint: "Anchor-1" 364 682 basechar 0
LayerCount: 2
Fore
SplineSet
39 0 m 1,0,-1
 170 659 l 1,1,-1
 518 659 l 1,2,-1
 510 622 l 1,3,-1
 205 622 l 1,4,-1
 154 368 l 1,5,-1
 412 368 l 1,6,-1
 404 331 l 1,7,-1
 148 331 l 1,8,-1
 88 37 l 1,9,-1
 402 37 l 1,10,-1
 394 0 l 1,11,-1
 39 0 l 1,0,-1
EndSplineSet
EndChar

StartChar: F
Encoding: 70 70 7
Width: 455
GlyphClass: 2
Flags: W
AnchorPoint: "Anchor-3" 70 -22 basechar 0
AnchorPoint: "Anchor-1" 367 682 basechar 0
LayerCount: 2
Fore
SplineSet
39 0 m 1,0,-1
 170 659 l 1,1,-1
 518 659 l 1,2,-1
 510 622 l 1,3,-1
 205 622 l 1,4,-1
 152 355 l 1,5,-1
 410 355 l 1,6,-1
 402 318 l 1,7,-1
 146 318 l 1,8,-1
 82 0 l 1,9,-1
 39 0 l 1,0,-1
EndSplineSet
EndChar

StartChar: G
Encoding: 71 71 8
Width: 575
GlyphClass: 2
Flags: W
AnchorPoint: "Anchor-3" 290 -22 basechar 0
AnchorPoint: "Anchor-1" 410 682 basechar 0
LayerCount: 2
Fore
SplineSet
291 -12 m 0,0,1
 232 -12 232 -12 188.5 7 c 128,-1,2
 145 26 145 26 116 60.5 c 128,-1,3
 87 95 87 95 72.5 143 c 128,-1,4
 58 191 58 191 58 248 c 0,5,6
 58 323 58 323 81 398 c 128,-1,7
 104 473 104 473 147.5 534 c 128,-1,8
 191 595 191 595 255 633 c 128,-1,9
 319 671 319 671 402 671 c 0,10,11
 430 671 430 671 453.5 663.5 c 128,-1,12
 477 656 477 656 496 643 c 128,-1,13
 515 630 515 630 530 613.5 c 128,-1,14
 545 597 545 597 557 578 c 1,15,-1
 525 555 l 1,16,17
 505 589 505 589 474.5 611.5 c 128,-1,18
 444 634 444 634 399 634 c 0,19,20
 328 634 328 634 272.5 598 c 128,-1,21
 217 562 217 562 179 506.5 c 128,-1,22
 141 451 141 451 121 384 c 128,-1,23
 101 317 101 317 101 254 c 0,24,25
 101 207 101 207 111.5 165 c 128,-1,26
 122 123 122 123 145.5 92 c 128,-1,27
 169 61 169 61 206 43 c 128,-1,28
 243 25 243 25 296 25 c 0,29,30
 341 25 341 25 374.5 39.5 c 128,-1,31
 408 54 408 54 431 75 c 1,32,-1
 473 286 l 1,33,-1
 321 286 l 1,34,-1
 329 322 l 1,35,-1
 522 322 l 1,36,-1
 467 54 l 1,37,38
 432 24 432 24 388.5 6 c 128,-1,39
 345 -12 345 -12 291 -12 c 0,0,1
EndSplineSet
EndChar

StartChar: H
Encoding: 72 72 9
Width: 605
GlyphClass: 2
Flags: W
AnchorPoint: "Anchor-3" 268 -22 basechar 0
AnchorPoint: "Anchor-1" 391 682 basechar 0
LayerCount: 2
Fore
SplineSet
39 0 m 1,0,-1
 170 659 l 1,1,-1
 213 659 l 1,2,-1
 154 368 l 1,3,-1
 494 368 l 1,4,-1
 553 659 l 1,5,-1
 596 659 l 1,6,-1
 464 0 l 1,7,-1
 421 0 l 1,8,-1
 488 331 l 1,9,-1
 148 331 l 1,10,-1
 82 0 l 1,11,-1
 39 0 l 1,0,-1
EndSplineSet
EndChar

StartChar: I
Encoding: 73 73 10
Width: 299
GlyphClass: 2
Flags: W
LayerCount: 2
Fore
SplineSet
-8 0 m 1,0,-1
 0 37 l 1,1,-1
 84 37 l 1,2,-1
 202 622 l 1,3,-1
 116 622 l 1,4,-1
 124 659 l 1,5,-1
 340 659 l 1,6,-1
 332 622 l 1,7,-1
 245 622 l 1,8,-1
 127 37 l 1,9,-1
 215 37 l 1,10,-1
 207 0 l 1,11,-1
 -8 0 l 1,0,-1
EndSplineSet
Substitution2: "'ss04' Style Set 4 in Latin lookup 23 subtable" I.a
Substitution2: "'aalt' Access All Alternates in Latin lookup 0 subtable" I.a
EndChar

StartChar: J
Encoding: 74 74 11
Width: 436
GlyphClass: 2
Flags: W
AnchorPoint: "Anchor-3" 130 -30 basechar 0
AnchorPoint: "Anchor-1" 424 682 basechar 0
LayerCount: 2
Fore
SplineSet
150 -12 m 0,0,1
 90 -12 90 -12 54 16.5 c 128,-1,2
 18 45 18 45 1 90 c 1,3,-1
 34 110 l 1,4,5
 61 25 61 25 151 25 c 0,6,7
 208 25 208 25 243 66.5 c 128,-1,8
 278 108 278 108 292 177 c 2,9,-1
 388 659 l 1,10,-1
 431 659 l 1,11,-1
 334 172 l 2,12,13
 319 88 319 88 272 38 c 128,-1,14
 225 -12 225 -12 150 -12 c 0,0,1
EndSplineSet
EndChar

StartChar: K
Encoding: 75 75 12
Width: 532
GlyphClass: 2
Flags: W
AnchorPoint: "Anchor-3" 266 -22 basechar 0
AnchorPoint: "Anchor-1" 390 682 basechar 0
LayerCount: 2
Fore
SplineSet
39 0 m 1,0,-1
 170 659 l 1,1,-1
 213 659 l 1,2,-1
 142 301 l 1,3,-1
 144 301 l 1,4,-1
 522 659 l 1,5,-1
 573 659 l 1,6,-1
 323 416 l 1,7,-1
 474 0 l 1,8,-1
 429 0 l 1,9,-1
 290 388 l 1,10,-1
 130 238 l 1,11,-1
 82 0 l 1,12,-1
 39 0 l 1,0,-1
EndSplineSet
EndChar

StartChar: L
Encoding: 76 76 13
Width: 440
GlyphClass: 2
Flags: W
AnchorPoint: "Anchor-3" 220 -22 basechar 0
AnchorPoint: "Anchor-1" 208 682 basechar 0
LayerCount: 2
Fore
SplineSet
39 0 m 1,0,-1
 170 659 l 1,1,-1
 213 659 l 1,2,-1
 90 37 l 1,3,-1
 383 37 l 1,4,-1
 375 0 l 1,5,-1
 39 0 l 1,0,-1
EndSplineSet
EndChar

StartChar: M
Encoding: 77 77 14
Width: 684
GlyphClass: 2
Flags: W
AnchorPoint: "Anchor-3" 303 -30 basechar 0
AnchorPoint: "Anchor-1" 423 682 basechar 0
LayerCount: 2
Fore
SplineSet
39 0 m 1,0,-1
 170 659 l 1,1,-1
 232 659 l 1,2,-1
 296 273 l 1,3,-1
 321 127 l 1,4,-1
 325 127 l 1,5,-1
 400 273 l 1,6,-1
 614 659 l 1,7,-1
 675 659 l 1,8,-1
 543 0 l 1,9,-1
 501 0 l 1,10,-1
 589 436 l 2,11,12
 598 478 598 478 608.5 525.5 c 128,-1,13
 619 573 619 573 629 613 c 1,14,-1
 626 613 l 1,15,-1
 547 470 l 1,16,-1
 330 74 l 1,17,-1
 293 74 l 1,18,-1
 224 470 l 1,19,-1
 201 613 l 1,20,-1
 197 613 l 1,21,22
 189 571 189 571 182 524.5 c 128,-1,23
 175 478 175 478 167 436 c 2,24,-1
 80 0 l 1,25,-1
 39 0 l 1,0,-1
EndSplineSet
EndChar

StartChar: N
Encoding: 78 78 15
Width: 605
GlyphClass: 2
Flags: W
AnchorPoint: "Anchor-3" 265 -30 basechar 0
AnchorPoint: "Anchor-1" 401 682 basechar 0
LayerCount: 2
Fore
SplineSet
39 0 m 1,0,-1
 170 659 l 1,1,-1
 216 659 l 1,2,-1
 391 191 l 1,3,-1
 437 57 l 1,4,-1
 441 57 l 1,5,6
 449 105 449 105 456 154 c 128,-1,7
 463 203 463 203 473 251 c 2,8,-1
 554 659 l 1,9,-1
 597 659 l 1,10,-1
 465 0 l 1,11,-1
 421 0 l 1,12,-1
 248 466 l 1,13,-1
 200 605 l 1,14,-1
 196 605 l 1,15,16
 188 556 188 556 180 508 c 128,-1,17
 172 460 172 460 162 413 c 2,18,-1
 81 0 l 1,19,-1
 39 0 l 1,0,-1
EndSplineSet
EndChar

StartChar: O
Encoding: 79 79 16
Width: 618
GlyphClass: 2
Flags: W
AnchorPoint: "Anchor-6" 279 0 basechar 0
AnchorPoint: "Anchor-4" 502 649 basechar 0
AnchorPoint: "Anchor-3" 273 -22 basechar 0
AnchorPoint: "Anchor-1" 409 682 basechar 0
LayerCount: 2
Fore
SplineSet
277 -12 m 0,0,1
 223 -12 223 -12 182.5 8 c 128,-1,2
 142 28 142 28 115 64.5 c 128,-1,3
 88 101 88 101 74.5 151.5 c 128,-1,4
 61 202 61 202 61 262 c 0,5,6
 61 308 61 308 70.5 356 c 128,-1,7
 80 404 80 404 98.5 449.5 c 128,-1,8
 117 495 117 495 144 535 c 128,-1,9
 171 575 171 575 206 605.5 c 128,-1,10
 241 636 241 636 283 653.5 c 128,-1,11
 325 671 325 671 374 671 c 0,12,13
 428 671 428 671 468.5 651 c 128,-1,14
 509 631 509 631 536 594.5 c 128,-1,15
 563 558 563 558 576.5 507.5 c 128,-1,16
 590 457 590 457 590 397 c 0,17,18
 590 351 590 351 580.5 303 c 128,-1,19
 571 255 571 255 552.5 209.5 c 128,-1,20
 534 164 534 164 507 124 c 128,-1,21
 480 84 480 84 445 53.5 c 128,-1,22
 410 23 410 23 368 5.5 c 128,-1,23
 326 -12 326 -12 277 -12 c 0,0,1
280 25 m 0,24,25
 343 25 343 25 393 60.5 c 128,-1,26
 443 96 443 96 477 150.5 c 128,-1,27
 511 205 511 205 529 269.5 c 128,-1,28
 547 334 547 334 547 392 c 0,29,30
 547 446 547 446 537 490.5 c 128,-1,31
 527 535 527 535 505.5 567 c 128,-1,32
 484 599 484 599 450.5 616.5 c 128,-1,33
 417 634 417 634 371 634 c 0,34,35
 308 634 308 634 258.5 598.5 c 128,-1,36
 209 563 209 563 175 508.5 c 128,-1,37
 141 454 141 454 123 389.5 c 128,-1,38
 105 325 105 325 105 267 c 0,39,40
 105 213 105 213 115 168.5 c 128,-1,41
 125 124 125 124 146.5 92 c 128,-1,42
 168 60 168 60 201 42.5 c 128,-1,43
 234 25 234 25 280 25 c 0,24,25
EndSplineSet
EndChar

StartChar: P
Encoding: 80 80 17
Width: 531
GlyphClass: 2
Flags: W
AnchorPoint: "Anchor-3" 67 -30 basechar 0
AnchorPoint: "Anchor-1" 376 682 basechar 0
LayerCount: 2
Fore
SplineSet
39 0 m 1,0,-1
 170 659 l 1,1,-1
 343 659 l 2,2,3
 434 659 434 659 486.5 622.5 c 128,-1,4
 539 586 539 586 539 506 c 0,5,6
 539 450 539 450 519 409 c 128,-1,7
 499 368 499 368 462.5 340.5 c 128,-1,8
 426 313 426 313 374.5 299.5 c 128,-1,9
 323 286 323 286 260 286 c 2,10,-1
 138 286 l 1,11,-1
 82 0 l 1,12,-1
 39 0 l 1,0,-1
146 322 m 1,13,-1
 256 322 l 2,14,15
 375 322 375 322 435.5 367 c 128,-1,16
 496 412 496 412 496 502 c 0,17,18
 496 567 496 567 453 595 c 128,-1,19
 410 623 410 623 325 623 c 2,20,-1
 205 623 l 1,21,-1
 146 322 l 1,13,-1
EndSplineSet
EndChar

StartChar: Q
Encoding: 81 81 18
Width: 618
GlyphClass: 2
Flags: W
AnchorPoint: "Anchor-1" 409 682 basechar 0
LayerCount: 2
Fore
SplineSet
280 25 m 0,0,1
 343 25 343 25 393 60.5 c 128,-1,2
 443 96 443 96 477 150.5 c 128,-1,3
 511 205 511 205 529 269.5 c 128,-1,4
 547 334 547 334 547 392 c 0,5,6
 547 446 547 446 537 490.5 c 128,-1,7
 527 535 527 535 505.5 567 c 128,-1,8
 484 599 484 599 450.5 616.5 c 128,-1,9
 417 634 417 634 371 634 c 0,10,11
 308 634 308 634 258.5 598.5 c 128,-1,12
 209 563 209 563 175 508.5 c 128,-1,13
 141 454 141 454 123 389.5 c 128,-1,14
 105 325 105 325 105 267 c 0,15,16
 105 213 105 213 115 168.5 c 128,-1,17
 125 124 125 124 146.5 92 c 128,-1,18
 168 60 168 60 201 42.5 c 128,-1,19
 234 25 234 25 280 25 c 0,0,1
445 -153 m 0,20,21
 372 -153 372 -153 316 -118.5 c 128,-1,22
 260 -84 260 -84 241 -9 c 1,23,24
 196 -3 196 -3 162 19.5 c 128,-1,25
 128 42 128 42 105.5 77.5 c 128,-1,26
 83 113 83 113 72 160 c 128,-1,27
 61 207 61 207 61 262 c 0,28,29
 61 308 61 308 70.5 356 c 128,-1,30
 80 404 80 404 98.5 449.5 c 128,-1,31
 117 495 117 495 144 535 c 128,-1,32
 171 575 171 575 206 605.5 c 128,-1,33
 241 636 241 636 283 653.5 c 128,-1,34
 325 671 325 671 374 671 c 0,35,36
 428 671 428 671 468.5 651 c 128,-1,37
 509 631 509 631 536 594.5 c 128,-1,38
 563 558 563 558 576.5 507.5 c 128,-1,39
 590 457 590 457 590 397 c 0,40,41
 590 329 590 329 569 257.5 c 128,-1,42
 548 186 548 186 509 126.5 c 128,-1,43
 470 67 470 67 413 28.5 c 128,-1,44
 356 -10 356 -10 284 -12 c 1,45,46
 299 -65 299 -65 343.5 -90 c 128,-1,47
 388 -115 388 -115 448 -115 c 0,48,49
 472 -115 472 -115 496 -109 c 1,50,-1
 501 -146 l 1,51,52
 474 -153 474 -153 445 -153 c 0,20,21
EndSplineSet
EndChar

StartChar: R
Encoding: 82 82 19
Width: 531
GlyphClass: 2
Flags: W
AnchorPoint: "Anchor-3" 249 -30 basechar 0
AnchorPoint: "Anchor-1" 368 682 basechar 0
LayerCount: 2
Fore
SplineSet
39 0 m 1,0,-1
 170 659 l 1,1,-1
 336 659 l 2,2,3
 425 659 425 659 477.5 625 c 128,-1,4
 530 591 530 591 530 514 c 0,5,6
 530 469 530 469 514.5 433 c 128,-1,7
 499 397 499 397 471 370 c 128,-1,8
 443 343 443 343 404.5 326 c 128,-1,9
 366 309 366 309 320 304 c 1,10,-1
 445 0 l 1,11,-1
 397 0 l 1,12,-1
 275 301 l 1,13,-1
 142 301 l 1,14,-1
 82 0 l 1,15,-1
 39 0 l 1,0,-1
150 337 m 1,16,-1
 265 337 l 2,17,18
 372 337 372 337 429.5 383 c 128,-1,19
 487 429 487 429 487 510 c 0,20,21
 487 572 487 572 444.5 597.5 c 128,-1,22
 402 623 402 623 317 623 c 2,23,-1
 205 623 l 1,24,-1
 150 337 l 1,16,-1
EndSplineSet
EndChar

StartChar: S
Encoding: 83 83 20
Width: 493
GlyphClass: 2
Flags: W
AnchorPoint: "Anchor-3" 216 -30 basechar 0
AnchorPoint: "Anchor-2" 222 0 basechar 0
AnchorPoint: "Anchor-1" 354 683 basechar 0
LayerCount: 2
Fore
SplineSet
227 -12 m 0,0,1
 158 -12 158 -12 104.5 16.5 c 128,-1,2
 51 45 51 45 16 100 c 1,3,-1
 49 123 l 1,4,5
 81 76 81 76 125.5 50.5 c 128,-1,6
 170 25 170 25 232 25 c 0,7,8
 268 25 268 25 298.5 36 c 128,-1,9
 329 47 329 47 351.5 66.5 c 128,-1,10
 374 86 374 86 387 114 c 128,-1,11
 400 142 400 142 400 177 c 0,12,13
 400 219 400 219 377 248.5 c 128,-1,14
 354 278 354 278 315 301 c 2,15,-1
 230 351 l 2,16,17
 210 363 210 363 191 378 c 128,-1,18
 172 393 172 393 158 411.5 c 128,-1,19
 144 430 144 430 135.5 452 c 128,-1,20
 127 474 127 474 127 501 c 0,21,22
 127 535 127 535 141 566 c 128,-1,23
 155 597 155 597 180 620 c 128,-1,24
 205 643 205 643 240 657 c 128,-1,25
 275 671 275 671 317 671 c 0,26,27
 377 671 377 671 422.5 645 c 128,-1,28
 468 619 468 619 495 582 c 1,29,-1
 466 556 l 1,30,31
 440 588 440 588 401.5 611 c 128,-1,32
 363 634 363 634 311 634 c 0,33,34
 279 634 279 634 253 622.5 c 128,-1,35
 227 611 227 611 209 593 c 128,-1,36
 191 575 191 575 181 552 c 128,-1,37
 171 529 171 529 171 506 c 0,38,39
 171 461 171 461 197 433 c 128,-1,40
 223 405 223 405 258 385 c 2,41,-1
 341 337 l 2,42,43
 388 309 388 309 416 273 c 128,-1,44
 444 237 444 237 444 182 c 0,45,46
 444 138 444 138 427.5 102.5 c 128,-1,47
 411 67 411 67 382 41.5 c 128,-1,48
 353 16 353 16 313 2 c 128,-1,49
 273 -12 273 -12 227 -12 c 0,0,1
EndSplineSet
EndChar

StartChar: T
Encoding: 84 84 21
Width: 497
GlyphClass: 2
Flags: W
AnchorPoint: "Anchor-3" 204 -22 basechar 0
AnchorPoint: "Anchor-2" 210 0 basechar 0
AnchorPoint: "Anchor-1" 341 682 basechar 0
LayerCount: 2
Fore
SplineSet
176 0 m 1,0,-1
 300 620 l 1,1,-1
 98 620 l 1,2,-1
 106 659 l 1,3,-1
 553 659 l 1,4,-1
 545 620 l 1,5,-1
 343 620 l 1,6,-1
 219 0 l 1,7,-1
 176 0 l 1,0,-1
EndSplineSet
EndChar

StartChar: U
Encoding: 85 85 22
Width: 600
GlyphClass: 2
Flags: W
AnchorPoint: "Anchor-6" 264 0 basechar 0
AnchorPoint: "Anchor-4" 575 669 basechar 0
AnchorPoint: "Anchor-3" 252 -22 basechar 0
AnchorPoint: "Anchor-1" 397 682 basechar 0
LayerCount: 2
Fore
SplineSet
90 269 m 2,0,-1
 168 659 l 1,1,-1
 211 659 l 1,2,-1
 134 273 l 2,3,4
 128 250 128 250 126 230 c 128,-1,5
 124 210 124 210 124 192 c 0,6,7
 124 112 124 112 162 68.5 c 128,-1,8
 200 25 200 25 277 25 c 0,9,10
 308 25 308 25 337.5 37 c 128,-1,11
 367 49 367 49 392 75 c 128,-1,12
 417 101 417 101 436.5 142 c 128,-1,13
 456 183 456 183 468 242 c 2,14,-1
 551 659 l 1,15,-1
 594 659 l 1,16,-1
 509 236 l 2,17,18
 495 167 495 167 471 120 c 128,-1,19
 447 73 447 73 416.5 43.5 c 128,-1,20
 386 14 386 14 349 1 c 128,-1,21
 312 -12 312 -12 273 -12 c 0,22,23
 182 -12 182 -12 131.5 38.5 c 128,-1,24
 81 89 81 89 81 184 c 0,25,26
 81 204 81 204 83 224.5 c 128,-1,27
 85 245 85 245 90 269 c 2,0,-1
EndSplineSet
EndChar

StartChar: V
Encoding: 86 86 23
Width: 463
GlyphClass: 2
Flags: W
AnchorPoint: "Anchor-3" 192 -30 basechar 0
AnchorPoint: "Anchor-1" 332 682 basechar 0
LayerCount: 2
Fore
SplineSet
145 0 m 1,0,-1
 83 659 l 1,1,-1
 125 659 l 1,2,-1
 159 269 l 2,3,4
 164 215 164 215 169.5 159.5 c 128,-1,5
 175 104 175 104 179 48 c 1,6,-1
 183 48 l 1,7,8
 210 102 210 102 238 159 c 128,-1,9
 266 216 266 216 294 269 c 2,10,-1
 497 659 l 1,11,-1
 541 659 l 1,12,-1
 195 0 l 1,13,-1
 145 0 l 1,0,-1
EndSplineSet
EndChar

StartChar: W
Encoding: 87 87 24
Width: 734
GlyphClass: 2
Flags: W
AnchorPoint: "Anchor-3" 317 -30 basechar 0
AnchorPoint: "Anchor-1" 464 682 basechar 0
LayerCount: 2
Fore
SplineSet
106 0 m 1,0,-1
 107 659 l 1,1,-1
 150 659 l 1,2,-1
 148 270 l 2,3,4
 146 216 146 216 146 162 c 128,-1,5
 146 108 146 108 144 54 c 1,6,-1
 148 54 l 1,7,8
 173 108 173 108 198 162 c 128,-1,9
 223 216 223 216 246 270 c 2,10,-1
 427 659 l 1,11,-1
 471 659 l 1,12,-1
 484 270 l 2,13,14
 488 162 488 162 490 54 c 1,15,-1
 494 54 l 1,16,17
 537 162 537 162 584 270 c 2,18,-1
 745 659 l 1,19,-1
 789 659 l 1,20,-1
 508 0 l 1,21,-1
 454 0 l 1,22,-1
 440 453 l 2,23,24
 440 492 440 492 439.5 530 c 128,-1,25
 439 568 439 568 440 608 c 1,26,-1
 436 608 l 1,27,28
 421 568 421 568 403.5 530.5 c 128,-1,29
 386 493 386 493 369 453 c 2,30,-1
 160 0 l 1,31,-1
 106 0 l 1,0,-1
EndSplineSet
EndChar

StartChar: X
Encoding: 88 88 25
Width: 459
GlyphClass: 2
Flags: W
AnchorPoint: "Anchor-3" 259 -30 basechar 0
AnchorPoint: "Anchor-1" 328 682 basechar 0
LayerCount: 2
Fore
SplineSet
-36 0 m 1,0,-1
 222 343 l 1,1,-1
 109 659 l 1,2,-1
 154 659 l 1,3,-1
 223 459 l 2,4,5
 231 436 231 436 237.5 416 c 128,-1,6
 244 396 244 396 252 372 c 1,7,-1
 255 372 l 1,8,9
 290 418 290 418 324 464 c 2,10,-1
 467 659 l 1,11,-1
 513 659 l 1,12,-1
 270 337 l 1,13,-1
 393 0 l 1,14,-1
 348 0 l 1,15,-1
 275 209 l 2,16,17
 266 233 266 233 257.5 258 c 128,-1,18
 249 283 249 283 240 309 c 1,19,-1
 238 309 l 1,20,21
 217 283 217 283 197 255.5 c 128,-1,22
 177 228 177 228 160 203 c 2,23,-1
 10 0 l 1,24,-1
 -36 0 l 1,0,-1
EndSplineSet
EndChar

StartChar: Y
Encoding: 89 89 26
Width: 433
GlyphClass: 2
Flags: W
AnchorPoint: "Anchor-3" 174 -30 basechar 0
AnchorPoint: "Anchor-1" 309 682 basechar 0
LayerCount: 2
Fore
SplineSet
140 0 m 1,0,-1
 194 269 l 1,1,-1
 85 659 l 1,2,-1
 129 659 l 1,3,-1
 184 451 l 2,4,5
 194 415 194 415 202.5 380.5 c 128,-1,6
 211 346 211 346 221 309 c 1,7,-1
 225 309 l 1,8,9
 249 344 249 344 272.5 380 c 128,-1,10
 296 416 296 416 320 451 c 2,11,-1
 464 659 l 1,12,-1
 510 659 l 1,13,-1
 237 269 l 1,14,-1
 183 0 l 1,15,-1
 140 0 l 1,0,-1
EndSplineSet
EndChar

StartChar: Z
Encoding: 90 90 27
Width: 505
GlyphClass: 2
Flags: W
AnchorPoint: "Anchor-3" 209 -30 basechar 0
AnchorPoint: "Anchor-1" 355 682 basechar 0
LayerCount: 2
Fore
SplineSet
1 0 m 1,0,-1
 7 26 l 1,1,-1
 472 622 l 1,2,-1
 147 622 l 1,3,-1
 155 659 l 1,4,-1
 531 659 l 1,5,-1
 526 633 l 1,6,-1
 63 37 l 1,7,-1
 422 37 l 1,8,-1
 414 0 l 1,9,-1
 1 0 l 1,0,-1
EndSplineSet
EndChar

StartChar: a
Encoding: 97 97 28
Width: 527
GlyphClass: 2
Flags: W
AnchorPoint: "Anchor-5" 336 0 basechar 0
AnchorPoint: "Anchor-3" 227 -22 basechar 0
AnchorPoint: "Anchor-0" 316 504 basechar 0
LayerCount: 2
Fore
SplineSet
184 -12 m 0,0,1
 121 -12 121 -12 82.5 32 c 128,-1,2
 44 76 44 76 44 161 c 0,3,4
 44 230 44 230 66 290.5 c 128,-1,5
 88 351 88 351 124.5 396 c 128,-1,6
 161 441 161 441 208 466.5 c 128,-1,7
 255 492 255 492 305 492 c 0,8,9
 347 492 347 492 378 470.5 c 128,-1,10
 409 449 409 449 429 414 c 1,11,-1
 432 414 l 1,12,-1
 451 480 l 1,13,-1
 485 480 l 1,14,-1
 389 0 l 1,15,-1
 354 0 l 1,16,-1
 365 76 l 1,17,-1
 361 76 l 1,18,19
 324 38 324 38 279 13 c 128,-1,20
 234 -12 234 -12 184 -12 c 0,0,1
193 24 m 0,21,22
 240 24 240 24 285 51 c 128,-1,23
 330 78 330 78 373 128 c 1,24,-1
 423 369 l 1,25,26
 397 416 397 416 367.5 436 c 128,-1,27
 338 456 338 456 304 456 c 0,28,29
 261 456 261 456 221.5 431.5 c 128,-1,30
 182 407 182 407 152 366.5 c 128,-1,31
 122 326 122 326 104 274.5 c 128,-1,32
 86 223 86 223 86 169 c 0,33,34
 86 96 86 96 114.5 60 c 128,-1,35
 143 24 143 24 193 24 c 0,21,22
EndSplineSet
Substitution2: "'ss02' Style Set 2 in Latin lookup 21 subtable" a.a
Substitution2: "'sups' Superscript in Latin lookup 12 subtable" a.sups
AlternateSubs2: "'aalt' Access All Alternates in Latin lookup 1 subtable" a.sups a.a
EndChar

StartChar: b
Encoding: 98 98 29
Width: 526
GlyphClass: 2
Flags: W
AnchorPoint: "Anchor-3" 228 -22 basechar 0
AnchorPoint: "Anchor-0" 211 730 basechar 0
LayerCount: 2
Fore
SplineSet
75 0 m 1,0,-1
 40 0 l 1,1,-1
 184 719 l 1,2,-1
 225 719 l 1,3,-1
 183 510 l 1,4,-1
 162 413 l 1,5,-1
 164 413 l 1,6,7
 202 444 202 444 247 468 c 128,-1,8
 292 492 292 492 341 492 c 0,9,10
 405 492 405 492 443 448 c 128,-1,11
 481 404 481 404 481 319 c 0,12,13
 481 250 481 250 459 189.5 c 128,-1,14
 437 129 437 129 400.5 84 c 128,-1,15
 364 39 364 39 317 13.5 c 128,-1,16
 270 -12 270 -12 221 -12 c 0,17,18
 178 -12 178 -12 147.5 9.5 c 128,-1,19
 117 31 117 31 97 66 c 1,20,-1
 94 66 l 1,21,-1
 75 0 l 1,0,-1
332 456 m 0,22,23
 292 456 292 456 244 431 c 128,-1,24
 196 406 196 406 155 367 c 1,25,-1
 103 111 l 1,26,27
 129 64 129 64 158 44 c 128,-1,28
 187 24 187 24 221 24 c 0,29,30
 264 24 264 24 303.5 48.5 c 128,-1,31
 343 73 343 73 373.5 113.5 c 128,-1,32
 404 154 404 154 422 206 c 128,-1,33
 440 258 440 258 440 312 c 0,34,35
 440 384 440 384 411 420 c 128,-1,36
 382 456 382 456 332 456 c 0,22,23
EndSplineSet
Substitution2: "'sups' Superscript in Latin lookup 12 subtable" b.sups
Substitution2: "'aalt' Access All Alternates in Latin lookup 0 subtable" b.sups
EndChar

StartChar: c
Encoding: 99 99 30
Width: 430
GlyphClass: 2
Flags: W
AnchorPoint: "Anchor-3" 217 -22 basechar 0
AnchorPoint: "Anchor-2" 197 0 basechar 0
AnchorPoint: "Anchor-0" 304 504 basechar 0
LayerCount: 2
Fore
SplineSet
212 -12 m 0,0,1
 134 -12 134 -12 88 37.5 c 128,-1,2
 42 87 42 87 42 178 c 0,3,4
 42 248 42 248 64.5 305.5 c 128,-1,5
 87 363 87 363 123.5 404.5 c 128,-1,6
 160 446 160 446 206.5 469 c 128,-1,7
 253 492 253 492 301 492 c 0,8,9
 343 492 343 492 371 476 c 128,-1,10
 399 460 399 460 422 434 c 1,11,-1
 396 406 l 1,12,13
 374 432 374 432 352.5 444 c 128,-1,14
 331 456 331 456 298 456 c 0,15,16
 257 456 257 456 218.5 434 c 128,-1,17
 180 412 180 412 150 375 c 128,-1,18
 120 338 120 338 102 288.5 c 128,-1,19
 84 239 84 239 84 184 c 0,20,21
 84 106 84 106 117 65 c 128,-1,22
 150 24 150 24 217 24 c 0,23,24
 253 24 253 24 284 39 c 128,-1,25
 315 54 315 54 341 74 c 1,26,-1
 362 44 l 1,27,28
 336 24 336 24 299 6 c 128,-1,29
 262 -12 262 -12 212 -12 c 0,0,1
EndSplineSet
Substitution2: "'sups' Superscript in Latin lookup 12 subtable" c.sups
Substitution2: "'aalt' Access All Alternates in Latin lookup 0 subtable" c.sups
EndChar

StartChar: d
Encoding: 100 100 31
Width: 528
GlyphClass: 2
Flags: W
AnchorPoint: "Anchor-3" 224 -22 basechar 0
AnchorPoint: "Anchor-0" 481 730 basechar 0
LayerCount: 2
Fore
SplineSet
432 415 m 1,0,-1
 451 510 l 1,1,-1
 493 719 l 1,2,-1
 534 719 l 1,3,-1
 389 0 l 1,4,-1
 354 0 l 1,5,-1
 365 76 l 1,6,-1
 361 76 l 1,7,8
 324 38 324 38 279 13 c 128,-1,9
 234 -12 234 -12 184 -12 c 0,10,11
 121 -12 121 -12 82.5 32 c 128,-1,12
 44 76 44 76 44 161 c 0,13,14
 44 230 44 230 66 290.5 c 128,-1,15
 88 351 88 351 124.5 396 c 128,-1,16
 161 441 161 441 208 466.5 c 128,-1,17
 255 492 255 492 305 492 c 0,18,19
 347 492 347 492 378 471 c 128,-1,20
 409 450 409 450 428 415 c 1,21,-1
 432 415 l 1,0,-1
193 24 m 0,22,23
 240 24 240 24 285 51 c 128,-1,24
 330 78 330 78 373 128 c 1,25,-1
 423 369 l 1,26,27
 397 416 397 416 367.5 436 c 128,-1,28
 338 456 338 456 304 456 c 0,29,30
 261 456 261 456 221.5 431.5 c 128,-1,31
 182 407 182 407 152 366.5 c 128,-1,32
 122 326 122 326 104 274.5 c 128,-1,33
 86 223 86 223 86 169 c 0,34,35
 86 96 86 96 114.5 60 c 128,-1,36
 143 24 143 24 193 24 c 0,22,23
EndSplineSet
Substitution2: "'sups' Superscript in Latin lookup 12 subtable" d.sups
Substitution2: "'aalt' Access All Alternates in Latin lookup 0 subtable" d.sups
EndChar

StartChar: e
Encoding: 101 101 32
Width: 471
GlyphClass: 2
Flags: W
AnchorPoint: "Anchor-5" 283 0 basechar 0
AnchorPoint: "Anchor-3" 213 -22 basechar 0
AnchorPoint: "Anchor-0" 297 504 basechar 0
LayerCount: 2
Fore
SplineSet
42 186 m 0,0,1
 42 254 42 254 64 310.5 c 128,-1,2
 86 367 86 367 121 407.5 c 128,-1,3
 156 448 156 448 201 470 c 128,-1,4
 246 492 246 492 292 492 c 0,5,6
 331 492 331 492 358.5 479.5 c 128,-1,7
 386 467 386 467 403 444.5 c 128,-1,8
 420 422 420 422 428 390.5 c 128,-1,9
 436 359 436 359 436 322 c 0,10,11
 436 296 436 296 432 274 c 128,-1,12
 428 252 428 252 423 238 c 1,13,-1
 88 238 l 1,14,15
 78 181 78 181 86 140.5 c 128,-1,16
 94 100 94 100 114 74 c 128,-1,17
 134 48 134 48 164.5 35.5 c 128,-1,18
 195 23 195 23 231 23 c 0,19,20
 263 23 263 23 294 37 c 128,-1,21
 325 51 325 51 351 70 c 1,22,-1
 370 40 l 1,23,24
 341 19 341 19 304 3.5 c 128,-1,25
 267 -12 267 -12 225 -12 c 0,26,27
 141 -12 141 -12 91.5 38.5 c 128,-1,28
 42 89 42 89 42 186 c 0,0,1
94 271 m 1,29,-1
 392 271 l 1,30,31
 398 299 398 299 398 328 c 0,32,33
 398 352 398 352 392.5 375.5 c 128,-1,34
 387 399 387 399 374 417 c 128,-1,35
 361 435 361 435 340 446 c 128,-1,36
 319 457 319 457 288 457 c 0,37,38
 256 457 256 457 225.5 443.5 c 128,-1,39
 195 430 195 430 169 405 c 128,-1,40
 143 380 143 380 123.5 346 c 128,-1,41
 104 312 104 312 94 271 c 1,29,-1
EndSplineSet
Substitution2: "'sups' Superscript in Latin lookup 12 subtable" e.sups
Substitution2: "'aalt' Access All Alternates in Latin lookup 0 subtable" e.sups
EndChar

StartChar: f
Encoding: 102 102 33
Width: 256
GlyphClass: 2
Flags: W
AnchorPoint: "Anchor-3" 75 -22 basechar 0
AnchorPoint: "Anchor-0" 310 740 basechar 0
LayerCount: 2
Fore
SplineSet
73 444 m 1,0,-1
 79 476 l 1,1,-1
 143 480 l 1,2,-1
 165 590 l 2,3,4
 180 662 180 662 214.5 696.5 c 128,-1,5
 249 731 249 731 297 731 c 0,6,7
 322 731 322 731 339.5 724.5 c 128,-1,8
 357 718 357 718 372 709 c 1,9,-1
 354 678 l 1,10,11
 343 685 343 685 329.5 690 c 128,-1,12
 316 695 316 695 297 695 c 0,13,14
 261 695 261 695 238 664.5 c 128,-1,15
 215 634 215 634 206 590 c 2,16,-1
 184 480 l 1,17,-1
 290 480 l 1,18,-1
 282 444 l 1,19,-1
 176 444 l 1,20,-1
 88 0 l 1,21,-1
 47 0 l 1,22,-1
 135 444 l 1,23,-1
 73 444 l 1,0,-1
EndSplineSet
Substitution2: "'sups' Superscript in Latin lookup 12 subtable" f.sups
Substitution2: "'aalt' Access All Alternates in Latin lookup 0 subtable" f.sups
EndChar

StartChar: g
Encoding: 103 103 34
Width: 521
GlyphClass: 2
Flags: W
AnchorPoint: "Anchor-3" 161 -251 basechar 0
AnchorPoint: "Anchor-0" 313 504 basechar 0
LayerCount: 2
Fore
SplineSet
167 -231 m 0,0,1
 115 -231 115 -231 75.5 -211 c 128,-1,2
 36 -191 36 -191 4 -165 c 1,3,-1
 27 -135 l 1,4,5
 54 -160 54 -160 89 -177.5 c 128,-1,6
 124 -195 124 -195 169 -195 c 0,7,8
 240 -195 240 -195 280.5 -149 c 128,-1,9
 321 -103 321 -103 337 -26 c 2,10,-1
 361 86 l 1,11,12
 320 46 320 46 276.5 22 c 128,-1,13
 233 -2 233 -2 183 -2 c 0,14,15
 121 -2 121 -2 82.5 41.5 c 128,-1,16
 44 85 44 85 44 169 c 0,17,18
 44 236 44 236 66 294.5 c 128,-1,19
 88 353 88 353 124 397 c 128,-1,20
 160 441 160 441 205.5 466.5 c 128,-1,21
 251 492 251 492 299 492 c 0,22,23
 341 492 341 492 372 470.5 c 128,-1,24
 403 449 403 449 422 414 c 1,25,-1
 426 414 l 1,26,-1
 445 480 l 1,27,-1
 479 480 l 1,28,-1
 374 -41 l 2,29,30
 356 -130 356 -130 303.5 -180.5 c 128,-1,31
 251 -231 251 -231 167 -231 c 0,0,1
191 35 m 0,32,33
 231 35 231 35 278.5 61 c 128,-1,34
 326 87 326 87 367 132 c 1,35,-1
 417 369 l 1,36,37
 390 416 390 416 361 436 c 128,-1,38
 332 456 332 456 298 456 c 0,39,40
 257 456 257 456 219 431.5 c 128,-1,41
 181 407 181 407 151.5 367.5 c 128,-1,42
 122 328 122 328 104 278 c 128,-1,43
 86 228 86 228 86 176 c 0,44,45
 86 105 86 105 114 70 c 128,-1,46
 142 35 142 35 191 35 c 0,32,33
EndSplineSet
Substitution2: "'ss03' Style Set 3 in Latin lookup 22 subtable" g.a
Substitution2: "'sups' Superscript in Latin lookup 12 subtable" g.sups
AlternateSubs2: "'aalt' Access All Alternates in Latin lookup 1 subtable" g.sups g.a
EndChar

StartChar: h
Encoding: 104 104 35
Width: 504
GlyphClass: 2
Flags: W
AnchorPoint: "Anchor-3" 222 -22 basechar 0
AnchorPoint: "Anchor-0" 211 730 basechar 0
LayerCount: 2
Fore
SplineSet
40 0 m 1,0,-1
 184 719 l 1,1,-1
 225 719 l 1,2,-1
 171 453 l 1,3,-1
 158 403 l 1,4,-1
 162 403 l 1,5,6
 209 442 209 442 250.5 467 c 128,-1,7
 292 492 292 492 336 492 c 0,8,9
 398 492 398 492 424 460 c 128,-1,10
 450 428 450 428 450 375 c 0,11,12
 450 357 450 357 448.5 344 c 128,-1,13
 447 331 447 331 442 310 c 2,14,-1
 380 0 l 1,15,-1
 339 0 l 1,16,-1
 401 304 l 2,17,18
 405 326 405 326 407 339 c 128,-1,19
 409 352 409 352 409 366 c 0,20,21
 409 411 409 411 389 433 c 128,-1,22
 369 455 369 455 323 455 c 0,23,24
 291 455 291 455 249 431.5 c 128,-1,25
 207 408 207 408 153 354 c 1,26,-1
 82 0 l 1,27,-1
 40 0 l 1,0,-1
EndSplineSet
Substitution2: "'sups' Superscript in Latin lookup 12 subtable" h.sups
Substitution2: "'aalt' Access All Alternates in Latin lookup 0 subtable" h.sups
EndChar

StartChar: i
Encoding: 105 105 36
Width: 220
GlyphClass: 2
Flags: W
AnchorPoint: "Anchor-5" 48 0 basechar 0
AnchorPoint: "Anchor-3" 67 -22 basechar 0
AnchorPoint: "Anchor-0" 202 683 basechar 0
LayerCount: 2
Fore
SplineSet
40 0 m 1,0,-1
 137 480 l 1,1,-1
 178 480 l 1,2,-1
 82 0 l 1,3,-1
 40 0 l 1,0,-1
183 596 m 0,4,5
 169 596 169 596 159.5 605.5 c 128,-1,6
 150 615 150 615 150 629 c 0,7,8
 150 649 150 649 162.5 661.5 c 128,-1,9
 175 674 175 674 192 674 c 0,10,11
 206 674 206 674 215.5 665 c 128,-1,12
 225 656 225 656 225 640 c 0,13,14
 225 621 225 621 212.5 608.5 c 128,-1,15
 200 596 200 596 183 596 c 0,4,5
EndSplineSet
Substitution2: "'sups' Superscript in Latin lookup 12 subtable" i.sups
Substitution2: "'aalt' Access All Alternates in Latin lookup 0 subtable" i.sups
EndChar

StartChar: j
Encoding: 106 106 37
Width: 220
GlyphClass: 2
Flags: W
AnchorPoint: "Anchor-3" -40 -231 basechar 0
AnchorPoint: "Anchor-0" 202 683 basechar 0
LayerCount: 2
Fore
SplineSet
-57 -229 m 0,0,1
 -79 -229 -79 -229 -93 -224.5 c 128,-1,2
 -107 -220 -107 -220 -120 -213 c 1,3,-1
 -104 -180 l 1,4,5
 -95 -186 -95 -186 -85 -189.5 c 128,-1,6
 -75 -193 -75 -193 -57 -193 c 0,7,8
 -27 -193 -27 -193 -8.5 -166 c 128,-1,9
 10 -139 10 -139 21 -93 c 2,10,-1
 137 480 l 1,11,-1
 178 480 l 1,12,-1
 64 -88 l 2,13,14
 50 -154 50 -154 21.5 -191.5 c 128,-1,15
 -7 -229 -7 -229 -57 -229 c 0,0,1
184 596 m 0,16,17
 170 596 170 596 160 605.5 c 128,-1,18
 150 615 150 615 150 629 c 0,19,20
 150 649 150 649 162.5 661.5 c 128,-1,21
 175 674 175 674 192 674 c 0,22,23
 206 674 206 674 216 665 c 128,-1,24
 226 656 226 656 226 640 c 0,25,26
 226 621 226 621 213 608.5 c 128,-1,27
 200 596 200 596 184 596 c 0,16,17
EndSplineSet
Substitution2: "'sups' Superscript in Latin lookup 12 subtable" j.sups
Substitution2: "'aalt' Access All Alternates in Latin lookup 0 subtable" j.sups
EndChar

StartChar: k
Encoding: 107 107 38
Width: 447
GlyphClass: 2
Flags: W
AnchorPoint: "Anchor-3" 212 -22 basechar 0
AnchorPoint: "Anchor-0" 213 730 basechar 0
LayerCount: 2
Fore
SplineSet
40 0 m 1,0,-1
 184 719 l 1,1,-1
 225 719 l 1,2,-1
 120 190 l 1,3,-1
 123 190 l 1,4,-1
 407 480 l 1,5,-1
 457 480 l 1,6,-1
 269 285 l 1,7,-1
 385 0 l 1,8,-1
 342 0 l 1,9,-1
 238 258 l 1,10,-1
 107 125 l 1,11,-1
 82 0 l 1,12,-1
 40 0 l 1,0,-1
EndSplineSet
Substitution2: "'sups' Superscript in Latin lookup 12 subtable" k.sups
Substitution2: "'aalt' Access All Alternates in Latin lookup 0 subtable" k.sups
EndChar

StartChar: l
Encoding: 108 108 39
Width: 232
GlyphClass: 2
Flags: W
AnchorPoint: "Anchor-3" 63 -22 basechar 0
AnchorPoint: "Anchor-0" 209 730 basechar 0
LayerCount: 2
Fore
SplineSet
92 -12 m 0,0,1
 72 -12 72 -12 60 -1 c 128,-1,2
 48 10 48 10 48 31 c 0,3,4
 48 42 48 42 53 62 c 2,5,-1
 184 719 l 1,6,-1
 225 719 l 1,7,-1
 94 59 l 2,8,9
 92 51 92 51 92 46.5 c 128,-1,10
 92 42 92 42 92 39 c 0,11,12
 92 24 92 24 106 24 c 0,13,14
 110 24 110 24 112.5 24.5 c 128,-1,15
 115 25 115 25 123 28 c 1,16,-1
 126 -5 l 1,17,18
 118 -9 118 -9 110.5 -10.5 c 128,-1,19
 103 -12 103 -12 92 -12 c 0,0,1
EndSplineSet
Substitution2: "'ss01' Style Set 1 in Latin lookup 20 subtable" l.a
Substitution2: "'sups' Superscript in Latin lookup 12 subtable" l.sups
AlternateSubs2: "'aalt' Access All Alternates in Latin lookup 1 subtable" l.sups l.a
EndChar

StartChar: m
Encoding: 109 109 40
Width: 782
GlyphClass: 2
Flags: W
AnchorPoint: "Anchor-3" 355 -22 basechar 0
AnchorPoint: "Anchor-0" 464 504 basechar 0
LayerCount: 2
Fore
SplineSet
40 0 m 1,0,-1
 137 480 l 1,1,-1
 171 480 l 1,2,-1
 160 404 l 1,3,-1
 164 404 l 1,4,5
 205 442 205 442 247 467 c 128,-1,6
 289 492 289 492 324 492 c 0,7,8
 354 492 354 492 374.5 484 c 128,-1,9
 395 476 395 476 408 462.5 c 128,-1,10
 421 449 421 449 427.5 430.5 c 128,-1,11
 434 412 434 412 435 392 c 1,12,13
 485 440 485 440 530 466 c 128,-1,14
 575 492 575 492 610 492 c 0,15,16
 670 492 670 492 696.5 460 c 128,-1,17
 723 428 723 428 723 375 c 0,18,19
 723 357 723 357 721.5 344 c 128,-1,20
 720 331 720 331 715 310 c 2,21,-1
 653 0 l 1,22,-1
 611 0 l 1,23,-1
 673 304 l 2,24,25
 678 326 678 326 679.5 339 c 128,-1,26
 681 352 681 352 681 366 c 0,27,28
 681 411 681 411 661.5 433 c 128,-1,29
 642 455 642 455 598 455 c 0,30,31
 575 455 575 455 532 431.5 c 128,-1,32
 489 408 489 408 438 354 c 1,33,-1
 367 0 l 1,34,-1
 326 0 l 1,35,-1
 387 304 l 2,36,37
 392 326 392 326 393.5 339 c 128,-1,38
 395 352 395 352 395 366 c 0,39,40
 395 411 395 411 375.5 433 c 128,-1,41
 356 455 356 455 312 455 c 0,42,43
 289 455 289 455 246 431.5 c 128,-1,44
 203 408 203 408 153 354 c 1,45,-1
 82 0 l 1,46,-1
 40 0 l 1,0,-1
EndSplineSet
Substitution2: "'sups' Superscript in Latin lookup 12 subtable" m.sups
Substitution2: "'aalt' Access All Alternates in Latin lookup 0 subtable" m.sups
EndChar

StartChar: n
Encoding: 110 110 41
Width: 510
GlyphClass: 2
Flags: W
AnchorPoint: "Anchor-3" 220 -22 basechar 0
AnchorPoint: "Anchor-0" 325 504 basechar 0
LayerCount: 2
Fore
SplineSet
40 0 m 1,0,-1
 137 480 l 1,1,-1
 171 480 l 1,2,-1
 160 404 l 1,3,-1
 164 404 l 1,4,5
 209 442 209 442 250 467 c 128,-1,6
 291 492 291 492 336 492 c 0,7,8
 398 492 398 492 424 460 c 128,-1,9
 450 428 450 428 450 375 c 0,10,11
 450 357 450 357 448.5 344 c 128,-1,12
 447 331 447 331 442 310 c 2,13,-1
 380 0 l 1,14,-1
 339 0 l 1,15,-1
 401 304 l 2,16,17
 405 326 405 326 407 339 c 128,-1,18
 409 352 409 352 409 366 c 0,19,20
 409 411 409 411 389 433 c 128,-1,21
 369 455 369 455 323 455 c 0,22,23
 291 455 291 455 249 431.5 c 128,-1,24
 207 408 207 408 153 354 c 1,25,-1
 82 0 l 1,26,-1
 40 0 l 1,0,-1
EndSplineSet
Substitution2: "'sups' Superscript in Latin lookup 12 subtable" n.sups
Substitution2: "'aalt' Access All Alternates in Latin lookup 0 subtable" n.sups
EndChar

StartChar: o
Encoding: 111 111 42
Width: 504
GlyphClass: 2
Flags: W
AnchorPoint: "Anchor-5" 214 0 basechar 0
AnchorPoint: "Anchor-4" 393 480 basechar 0
AnchorPoint: "Anchor-3" 189 -22 basechar 0
AnchorPoint: "Anchor-0" 320 504 basechar 0
LayerCount: 2
Fore
SplineSet
206 -12 m 0,0,1
 132 -12 132 -12 88 37.5 c 128,-1,2
 44 87 44 87 44 178 c 0,3,4
 44 245 44 245 65 302.5 c 128,-1,5
 86 360 86 360 121.5 402 c 128,-1,6
 157 444 157 444 202.5 468 c 128,-1,7
 248 492 248 492 297 492 c 0,8,9
 372 492 372 492 416 442.5 c 128,-1,10
 460 393 460 393 460 302 c 0,11,12
 460 235 460 235 438.5 177.5 c 128,-1,13
 417 120 417 120 382 78 c 128,-1,14
 347 36 347 36 301 12 c 128,-1,15
 255 -12 255 -12 206 -12 c 0,0,1
210 24 m 0,16,17
 249 24 249 24 286 46 c 128,-1,18
 323 68 323 68 352.5 105 c 128,-1,19
 382 142 382 142 400 191.5 c 128,-1,20
 418 241 418 241 418 297 c 0,21,22
 418 375 418 375 386 415.5 c 128,-1,23
 354 456 354 456 294 456 c 0,24,25
 255 456 255 456 217.5 434 c 128,-1,26
 180 412 180 412 150.5 375 c 128,-1,27
 121 338 121 338 103 288.5 c 128,-1,28
 85 239 85 239 85 184 c 0,29,30
 85 106 85 106 117.5 65 c 128,-1,31
 150 24 150 24 210 24 c 0,16,17
EndSplineSet
Substitution2: "'sups' Superscript in Latin lookup 12 subtable" o.sups
Substitution2: "'aalt' Access All Alternates in Latin lookup 0 subtable" o.sups
EndChar

StartChar: p
Encoding: 112 112 43
Width: 524
GlyphClass: 2
Flags: W
AnchorPoint: "Anchor-3" 22 -218 basechar 0
AnchorPoint: "Anchor-0" 334 504 basechar 0
LayerCount: 2
Fore
SplineSet
92 65 m 1,0,-1
 71 -43 l 1,1,-1
 38 -217 l 1,2,-1
 -3 -217 l 1,3,-1
 137 480 l 1,4,-1
 171 480 l 1,5,-1
 161 412 l 1,6,-1
 165 412 l 1,7,8
 203 444 203 444 247 468 c 128,-1,9
 291 492 291 492 341 492 c 0,10,11
 405 492 405 492 443 448 c 128,-1,12
 481 404 481 404 481 319 c 0,13,14
 481 250 481 250 459 189.5 c 128,-1,15
 437 129 437 129 400.5 84 c 128,-1,16
 364 39 364 39 317 13.5 c 128,-1,17
 270 -12 270 -12 221 -12 c 0,18,19
 179 -12 179 -12 147 10 c 128,-1,20
 115 32 115 32 94 65 c 1,21,-1
 92 65 l 1,0,-1
332 456 m 0,22,23
 292 456 292 456 244 431 c 128,-1,24
 196 406 196 406 155 366 c 1,25,-1
 103 107 l 1,26,27
 129 62 129 62 158 43 c 128,-1,28
 187 24 187 24 221 24 c 0,29,30
 264 24 264 24 303.5 48.5 c 128,-1,31
 343 73 343 73 373.5 113.5 c 128,-1,32
 404 154 404 154 422 206 c 128,-1,33
 440 258 440 258 440 312 c 0,34,35
 440 384 440 384 411 420 c 128,-1,36
 382 456 382 456 332 456 c 0,22,23
EndSplineSet
Substitution2: "'sups' Superscript in Latin lookup 12 subtable" p.sups
Substitution2: "'aalt' Access All Alternates in Latin lookup 0 subtable" p.sups
EndChar

StartChar: q
Encoding: 113 113 44
Width: 527
GlyphClass: 2
Flags: W
AnchorPoint: "Anchor-3" 333 -218 basechar 0
AnchorPoint: "Anchor-0" 321 504 basechar 0
LayerCount: 2
Fore
SplineSet
339 -43 m 1,0,-1
 365 78 l 1,1,-1
 363 78 l 1,2,3
 326 40 326 40 280 14 c 128,-1,4
 234 -12 234 -12 184 -12 c 0,5,6
 121 -12 121 -12 82.5 32 c 128,-1,7
 44 76 44 76 44 161 c 0,8,9
 44 230 44 230 66 290.5 c 128,-1,10
 88 351 88 351 124.5 396 c 128,-1,11
 161 441 161 441 208 466.5 c 128,-1,12
 255 492 255 492 305 492 c 0,13,14
 347 492 347 492 378 470.5 c 128,-1,15
 409 449 409 449 429 414 c 1,16,-1
 432 414 l 1,17,-1
 451 480 l 1,18,-1
 485 480 l 1,19,-1
 346 -217 l 1,20,-1
 304 -217 l 1,21,-1
 339 -43 l 1,0,-1
193 24 m 0,22,23
 233 24 233 24 281.5 51 c 128,-1,24
 330 78 330 78 373 128 c 1,25,-1
 423 369 l 1,26,27
 397 416 397 416 367.5 436 c 128,-1,28
 338 456 338 456 304 456 c 0,29,30
 261 456 261 456 221.5 431.5 c 128,-1,31
 182 407 182 407 152 366.5 c 128,-1,32
 122 326 122 326 104 274.5 c 128,-1,33
 86 223 86 223 86 169 c 0,34,35
 86 96 86 96 114.5 60 c 128,-1,36
 143 24 143 24 193 24 c 0,22,23
EndSplineSet
Substitution2: "'sups' Superscript in Latin lookup 12 subtable" q.sups
Substitution2: "'aalt' Access All Alternates in Latin lookup 0 subtable" q.sups
EndChar

StartChar: r
Encoding: 114 114 45
Width: 317
GlyphClass: 2
Flags: W
AnchorPoint: "Anchor-3" 67 -22 basechar 0
AnchorPoint: "Anchor-0" 241 504 basechar 0
LayerCount: 2
Fore
SplineSet
40 0 m 1,0,-1
 137 480 l 1,1,-1
 171 480 l 1,2,-1
 156 389 l 1,3,-1
 160 389 l 1,4,5
 190 432 190 432 227 462 c 128,-1,6
 264 492 264 492 311 492 c 0,7,8
 321 492 321 492 331.5 490.5 c 128,-1,9
 342 489 342 489 354 484 c 1,10,-1
 338 445 l 1,11,12
 331 448 331 448 322.5 450.5 c 128,-1,13
 314 453 314 453 300 453 c 0,14,15
 262 453 262 453 219.5 418 c 128,-1,16
 177 383 177 383 145 318 c 1,17,-1
 82 0 l 1,18,-1
 40 0 l 1,0,-1
EndSplineSet
Substitution2: "'sups' Superscript in Latin lookup 12 subtable" r.sups
Substitution2: "'aalt' Access All Alternates in Latin lookup 0 subtable" r.sups
EndChar

StartChar: s
Encoding: 115 115 46
Width: 389
GlyphClass: 2
Flags: W
AnchorPoint: "Anchor-3" 168 -22 basechar 0
AnchorPoint: "Anchor-2" 166 0 basechar 0
AnchorPoint: "Anchor-0" 252 504 basechar 0
LayerCount: 2
Fore
SplineSet
159 -12 m 0,0,1
 133 -12 133 -12 109 -4.5 c 128,-1,2
 85 3 85 3 64 16 c 128,-1,3
 43 29 43 29 26 44.5 c 128,-1,4
 9 60 9 60 -1 77 c 1,5,-1
 28 99 l 1,6,7
 48 67 48 67 83 45 c 128,-1,8
 118 23 118 23 164 23 c 0,9,10
 189 23 189 23 211 31 c 128,-1,11
 233 39 233 39 250 53 c 128,-1,12
 267 67 267 67 277 85 c 128,-1,13
 287 103 287 103 287 124 c 0,14,15
 287 138 287 138 283 150.5 c 128,-1,16
 279 163 279 163 269 175 c 128,-1,17
 259 187 259 187 241 199.5 c 128,-1,18
 223 212 223 212 195 227 c 0,19,20
 131 262 131 262 104.5 290.5 c 128,-1,21
 78 319 78 319 78 357 c 0,22,23
 78 387 78 387 90 412 c 128,-1,24
 102 437 102 437 123 455 c 128,-1,25
 144 473 144 473 171.5 482.5 c 128,-1,26
 199 492 199 492 229 492 c 0,27,28
 270 492 270 492 303.5 476 c 128,-1,29
 337 460 337 460 362 434 c 1,30,-1
 335 408 l 1,31,32
 315 428 315 428 289.5 442.5 c 128,-1,33
 264 457 264 457 228 457 c 0,34,35
 205 457 205 457 185 449.5 c 128,-1,36
 165 442 165 442 150 429 c 128,-1,37
 135 416 135 416 126.5 399 c 128,-1,38
 118 382 118 382 118 363 c 0,39,40
 118 346 118 346 125.5 332.5 c 128,-1,41
 133 319 133 319 145 307.5 c 128,-1,42
 157 296 157 296 173 286.5 c 128,-1,43
 189 277 189 277 207 267 c 0,44,45
 246 246 246 246 269.5 228 c 128,-1,46
 293 210 293 210 306 194 c 128,-1,47
 319 178 319 178 323 162.5 c 128,-1,48
 327 147 327 147 327 131 c 0,49,50
 327 98 327 98 314 71.5 c 128,-1,51
 301 45 301 45 278.5 26.5 c 128,-1,52
 256 8 256 8 225.5 -2 c 128,-1,53
 195 -12 195 -12 159 -12 c 0,0,1
EndSplineSet
Substitution2: "'sups' Superscript in Latin lookup 12 subtable" s.sups
Substitution2: "'aalt' Access All Alternates in Latin lookup 0 subtable" s.sups
EndChar

StartChar: t
Encoding: 116 116 47
Width: 299
GlyphClass: 2
Flags: W
AnchorPoint: "Anchor-3" 152 -22 basechar 0
AnchorPoint: "Anchor-2" 161 0 basechar 0
AnchorPoint: "Anchor-0" 200 637 basechar 0
LayerCount: 2
Fore
SplineSet
174 -12 m 0,0,1
 146 -12 146 -12 126.5 -4.5 c 128,-1,2
 107 3 107 3 95 16 c 128,-1,3
 83 29 83 29 78 46.5 c 128,-1,4
 73 64 73 64 73 83 c 0,5,6
 73 97 73 97 74 107.5 c 128,-1,7
 75 118 75 118 77 131 c 2,8,-1
 142 444 l 1,9,-1
 67 444 l 1,10,-1
 73 476 l 1,11,-1
 151 480 l 1,12,-1
 184 617 l 1,13,-1
 219 617 l 1,14,-1
 191 480 l 1,15,-1
 321 480 l 1,16,-1
 313 444 l 1,17,-1
 183 444 l 1,18,-1
 118 129 l 2,19,20
 116 120 116 120 115 111 c 128,-1,21
 114 102 114 102 114 91 c 0,22,23
 114 58 114 58 128.5 41 c 128,-1,24
 143 24 143 24 182 24 c 0,25,26
 199 24 199 24 213.5 29.5 c 128,-1,27
 228 35 228 35 240 41 c 1,28,-1
 251 10 l 1,29,30
 237 2 237 2 217 -5 c 128,-1,31
 197 -12 197 -12 174 -12 c 0,0,1
EndSplineSet
Substitution2: "'sups' Superscript in Latin lookup 12 subtable" t.sups
Substitution2: "'aalt' Access All Alternates in Latin lookup 0 subtable" t.sups
EndChar

StartChar: u
Encoding: 117 117 48
Width: 518
GlyphClass: 2
Flags: W
AnchorPoint: "Anchor-5" 327 0 basechar 0
AnchorPoint: "Anchor-4" 443 490 basechar 0
AnchorPoint: "Anchor-3" 241 -23 basechar 0
AnchorPoint: "Anchor-0" 310 504 basechar 0
LayerCount: 2
Fore
SplineSet
475 480 m 1,0,-1
 379 0 l 1,1,-1
 345 0 l 1,2,-1
 355 78 l 1,3,-1
 351 78 l 1,4,5
 307 40 307 40 266 14 c 128,-1,6
 225 -12 225 -12 181 -12 c 0,7,8
 119 -12 119 -12 92.5 20.5 c 128,-1,9
 66 53 66 53 66 105 c 0,10,11
 66 123 66 123 67.5 136.5 c 128,-1,12
 69 150 69 150 74 170 c 2,13,-1
 136 480 l 1,14,-1
 177 480 l 1,15,-1
 116 176 l 2,16,17
 111 154 111 154 109.5 141 c 128,-1,18
 108 128 108 128 108 114 c 0,19,20
 108 69 108 69 128 47 c 128,-1,21
 148 25 148 25 193 25 c 0,22,23
 225 25 225 25 267 49 c 128,-1,24
 309 73 309 73 363 126 c 1,25,-1
 434 480 l 1,26,-1
 475 480 l 1,0,-1
EndSplineSet
Substitution2: "'sups' Superscript in Latin lookup 12 subtable" u.sups
Substitution2: "'aalt' Access All Alternates in Latin lookup 0 subtable" u.sups
EndChar

StartChar: v
Encoding: 118 118 49
Width: 419
GlyphClass: 2
Flags: W
AnchorPoint: "Anchor-3" 172 -22 basechar 0
AnchorPoint: "Anchor-0" 272 504 basechar 0
LayerCount: 2
Fore
SplineSet
134 0 m 1,0,-1
 58 480 l 1,1,-1
 99 480 l 1,2,-1
 145 177 l 2,3,4
 151 142 151 142 155.5 105.5 c 128,-1,5
 160 69 160 69 165 35 c 1,6,-1
 169 35 l 1,7,8
 187 70 187 70 206 106 c 128,-1,9
 225 142 225 142 244 177 c 2,10,-1
 407 480 l 1,11,-1
 450 480 l 1,12,-1
 187 0 l 1,13,-1
 134 0 l 1,0,-1
EndSplineSet
Substitution2: "'sups' Superscript in Latin lookup 12 subtable" v.sups
Substitution2: "'aalt' Access All Alternates in Latin lookup 0 subtable" v.sups
EndChar

StartChar: w
Encoding: 119 119 50
Width: 683
GlyphClass: 2
Flags: W
AnchorPoint: "Anchor-3" 306 -22 basechar 0
AnchorPoint: "Anchor-0" 397 504 basechar 0
LayerCount: 2
Fore
SplineSet
110 0 m 1,0,-1
 69 480 l 1,1,-1
 110 480 l 1,2,-1
 134 166 l 2,3,4
 137 133 137 133 139.5 100.5 c 128,-1,5
 142 68 142 68 144 36 c 1,6,-1
 148 36 l 1,7,8
 163 68 163 68 177 100.5 c 128,-1,9
 191 133 191 133 206 166 c 2,10,-1
 350 480 l 1,11,-1
 400 480 l 1,12,-1
 422 166 l 2,13,14
 424 133 424 133 425.5 100.5 c 128,-1,15
 427 68 427 68 429 36 c 1,16,-1
 433 36 l 1,17,18
 447 68 447 68 461 100.5 c 128,-1,19
 475 133 475 133 492 166 c 2,20,-1
 638 480 l 1,21,-1
 678 480 l 1,22,-1
 452 0 l 1,23,-1
 396 0 l 1,24,-1
 376 299 l 2,25,26
 374 334 374 334 373 371 c 128,-1,27
 372 408 372 408 369 442 c 1,28,-1
 365 442 l 1,29,30
 350 408 350 408 334.5 371 c 128,-1,31
 319 334 319 334 303 299 c 2,32,-1
 166 0 l 1,33,-1
 110 0 l 1,0,-1
EndSplineSet
Substitution2: "'sups' Superscript in Latin lookup 12 subtable" w.sups
Substitution2: "'aalt' Access All Alternates in Latin lookup 0 subtable" w.sups
EndChar

StartChar: x
Encoding: 120 120 51
Width: 393
GlyphClass: 2
Flags: W
AnchorPoint: "Anchor-3" 159 -22 basechar 0
AnchorPoint: "Anchor-0" 259 506 basechar 0
LayerCount: 2
Fore
SplineSet
-47 0 m 1,0,-1
 177 254 l 1,1,-1
 82 480 l 1,2,-1
 125 480 l 1,3,-1
 175 359 l 2,4,5
 183 336 183 336 190 318 c 128,-1,6
 197 300 197 300 206 279 c 1,7,-1
 210 279 l 1,8,9
 227 299 227 299 244.5 318.5 c 128,-1,10
 262 338 262 338 279 359 c 2,11,-1
 384 480 l 1,12,-1
 430 480 l 1,13,-1
 227 245 l 1,14,-1
 329 0 l 1,15,-1
 286 0 l 1,16,-1
 235 130 l 2,17,18
 226 153 226 153 216.5 176 c 128,-1,19
 207 199 207 199 196 221 c 1,20,-1
 192 221 l 1,21,22
 175 199 175 199 156 177.5 c 128,-1,23
 137 156 137 156 115 132 c 2,24,-1
 1 0 l 1,25,-1
 -47 0 l 1,0,-1
EndSplineSet
Substitution2: "'sups' Superscript in Latin lookup 12 subtable" x.sups
Substitution2: "'aalt' Access All Alternates in Latin lookup 0 subtable" x.sups
EndChar

StartChar: y
Encoding: 121 121 52
Width: 419
GlyphClass: 2
Flags: W
AnchorPoint: "Anchor-3" 93 -242 basechar 0
AnchorPoint: "Anchor-0" 254 504 basechar 0
LayerCount: 2
Fore
SplineSet
-31 -219 m 0,0,1
 -39 -219 -39 -219 -51.5 -216.5 c 128,-1,2
 -64 -214 -64 -214 -78 -207 c 1,3,-1
 -62 -174 l 1,4,5
 -46 -183 -46 -183 -28 -183 c 0,6,7
 15 -183 15 -183 52 -146.5 c 128,-1,8
 89 -110 89 -110 119 -49 c 2,9,-1
 140 -8 l 1,10,-1
 59 480 l 1,11,-1
 100 480 l 1,12,-1
 147 179 l 2,13,14
 152 144 152 144 157.5 106.5 c 128,-1,15
 163 69 163 69 167 36 c 1,16,-1
 171 36 l 1,17,18
 189 71 189 71 207.5 107 c 128,-1,19
 226 143 226 143 246 179 c 2,20,-1
 408 480 l 1,21,-1
 450 480 l 1,22,-1
 154 -59 l 2,23,24
 138 -89 138 -89 119.5 -118 c 128,-1,25
 101 -147 101 -147 78.5 -169.5 c 128,-1,26
 56 -192 56 -192 29 -205.5 c 128,-1,27
 2 -219 2 -219 -31 -219 c 0,0,1
EndSplineSet
Substitution2: "'sups' Superscript in Latin lookup 12 subtable" y.sups
Substitution2: "'aalt' Access All Alternates in Latin lookup 0 subtable" y.sups
EndChar

StartChar: z
Encoding: 122 122 53
Width: 391
GlyphClass: 2
Flags: W
AnchorPoint: "Anchor-3" 167 -22 basechar 0
AnchorPoint: "Anchor-0" 265 504 basechar 0
LayerCount: 2
Fore
SplineSet
-10 0 m 1,0,-1
 -6 25 l 1,1,-1
 352 444 l 1,2,-1
 107 444 l 1,3,-1
 115 480 l 1,4,-1
 413 480 l 1,5,-1
 409 455 l 1,6,-1
 50 36 l 1,7,-1
 332 36 l 1,8,-1
 324 0 l 1,9,-1
 -10 0 l 1,0,-1
EndSplineSet
Substitution2: "'sups' Superscript in Latin lookup 12 subtable" z.sups
Substitution2: "'aalt' Access All Alternates in Latin lookup 0 subtable" z.sups
EndChar

StartChar: Aogonek
Encoding: 260 260 75
Width: 488
GlyphClass: 2
Flags: W
AnchorPoint: "Anchor-1" 348 682 basechar 0
LayerCount: 2
Fore
SplineSet
380 -204 m 0,0,1
 350 -204 350 -204 330 -188.5 c 128,-1,2
 310 -173 310 -173 310 -141 c 0,3,4
 310 -121 310 -121 318 -101 c 128,-1,5
 326 -81 326 -81 339.5 -63 c 128,-1,6
 353 -45 353 -45 370 -28.5 c 128,-1,7
 387 -12 387 -12 405 0 c 1,8,-1
 400 0 l 1,9,-1
 374 229 l 1,10,-1
 123 229 l 1,11,-1
 0 0 l 1,12,-1
 -48 0 l 1,13,-1
 315 659 l 1,14,-1
 362 659 l 1,15,-1
 443 0 l 1,16,17
 401 -29 401 -29 375.5 -63 c 128,-1,18
 350 -97 350 -97 350 -130 c 0,19,20
 350 -149 350 -149 360.5 -160 c 128,-1,21
 371 -171 371 -171 387 -171 c 0,22,23
 399 -171 399 -171 408 -168 c 128,-1,24
 417 -165 417 -165 428 -159 c 1,25,-1
 440 -187 l 1,26,27
 409 -204 409 -204 380 -204 c 0,0,1
210 391 m 2,28,-1
 142 264 l 1,29,-1
 370 264 l 1,30,-1
 355 391 l 2,31,32
 350 446 350 446 343.5 501.5 c 128,-1,33
 337 557 337 557 332 616 c 1,34,-1
 328 616 l 1,35,36
 299 556 299 556 270 502 c 128,-1,37
 241 448 241 448 210 391 c 2,28,-1
EndSplineSet
Ligature2: "'ccmp' Glyph Composition/Decomposition in Latin lookup 6 subtable" A uni0328
EndChar

StartChar: AE
Encoding: 198 198 76
Width: 782
GlyphClass: 2
Flags: W
AnchorPoint: "Anchor-1" 540 694 basechar 0
LayerCount: 2
Fore
SplineSet
200 253 m 1,0,-1
 395 253 l 1,1,-1
 469 622 l 1,2,-1
 465 622 l 1,3,4
 423 563 423 563 381.5 505.5 c 128,-1,5
 340 448 340 448 298 389 c 2,6,-1
 200 253 l 1,0,-1
-32 0 m 1,7,-1
 449 659 l 1,8,-1
 810 659 l 1,9,-1
 802 622 l 1,10,-1
 511 622 l 1,11,-1
 460 368 l 1,12,-1
 705 368 l 1,13,-1
 697 331 l 1,14,-1
 454 331 l 1,15,-1
 394 37 l 1,16,-1
 695 37 l 1,17,-1
 687 0 l 1,18,-1
 345 0 l 1,19,-1
 388 217 l 1,20,-1
 174 217 l 1,21,-1
 18 0 l 1,22,-1
 -32 0 l 1,7,-1
EndSplineSet
EndChar

StartChar: Eogonek
Encoding: 280 280 102
Width: 489
GlyphClass: 2
Flags: W
AnchorPoint: "Anchor-1" 364 682 basechar 0
LayerCount: 2
Fore
SplineSet
39 0 m 1,0,-1
 170 659 l 1,1,-1
 518 659 l 1,2,-1
 510 622 l 1,3,-1
 205 622 l 1,4,-1
 154 368 l 1,5,-1
 412 368 l 1,6,-1
 404 331 l 1,7,-1
 148 331 l 1,8,-1
 88 37 l 1,9,-1
 402 37 l 1,10,-1
 394 0 l 1,11,12
 371 -2 371 -2 349.5 -16 c 128,-1,13
 328 -30 328 -30 311.5 -49.5 c 128,-1,14
 295 -69 295 -69 285 -90.5 c 128,-1,15
 275 -112 275 -112 275 -130 c 0,16,17
 275 -149 275 -149 285.5 -160 c 128,-1,18
 296 -171 296 -171 312 -171 c 0,19,20
 324 -171 324 -171 333 -168 c 128,-1,21
 342 -165 342 -165 353 -159 c 1,22,-1
 365 -187 l 1,23,24
 334 -204 334 -204 305 -204 c 0,25,26
 275 -204 275 -204 255 -188.5 c 128,-1,27
 235 -173 235 -173 235 -141 c 0,28,29
 235 -121 235 -121 243.5 -100.5 c 128,-1,30
 252 -80 252 -80 265.5 -61 c 128,-1,31
 279 -42 279 -42 295.5 -26.5 c 128,-1,32
 312 -11 312 -11 328 0 c 1,33,-1
 39 0 l 1,0,-1
EndSplineSet
Ligature2: "'ccmp' Glyph Composition/Decomposition in Latin lookup 6 subtable" E uni0328
EndChar

StartChar: Hbar
Encoding: 294 294 113
Width: 633
Flags: W
LayerCount: 2
Fore
SplineSet
79 495 m 1,0,-1
 86 524 l 1,1,-1
 157 526 l 1,2,-1
 183 659 l 1,3,-1
 226 659 l 1,4,-1
 199 526 l 1,5,-1
 539 526 l 1,6,-1
 566 659 l 1,7,-1
 609 659 l 1,8,-1
 582 526 l 1,9,-1
 658 526 l 1,10,-1
 651 495 l 1,11,-1
 576 495 l 1,12,-1
 477 0 l 1,13,-1
 434 0 l 1,14,-1
 501 331 l 1,15,-1
 161 331 l 1,16,-1
 95 0 l 1,17,-1
 52 0 l 1,18,-1
 150 495 l 1,19,-1
 79 495 l 1,0,-1
167 368 m 1,20,-1
 507 368 l 1,21,-1
 533 495 l 1,22,-1
 193 495 l 1,23,-1
 167 368 l 1,20,-1
EndSplineSet
EndChar

StartChar: Iogonek
Encoding: 302 302 124
Width: 227
GlyphClass: 2
Flags: W
AnchorPoint: "Anchor-1" 207 682 basechar 0
LayerCount: 2
Fore
SplineSet
26 -204 m 0,0,1
 -3 -204 -3 -204 -22 -188.5 c 128,-1,2
 -41 -173 -41 -173 -41 -141 c 0,3,4
 -41 -121 -41 -121 -32.5 -100.5 c 128,-1,5
 -24 -80 -24 -80 -11.5 -61 c 128,-1,6
 1 -42 1 -42 16 -26.5 c 128,-1,7
 31 -11 31 -11 44 0 c 1,8,-1
 39 0 l 1,9,-1
 170 659 l 1,10,-1
 213 659 l 1,11,-1
 82 0 l 1,12,13
 66 -13 66 -13 51 -29 c 128,-1,14
 36 -45 36 -45 24 -62 c 128,-1,15
 12 -79 12 -79 5 -96.5 c 128,-1,16
 -2 -114 -2 -114 -2 -130 c 0,17,18
 -2 -149 -2 -149 8.5 -160 c 128,-1,19
 19 -171 19 -171 36 -171 c 0,20,21
 47 -171 47 -171 56 -168 c 128,-1,22
 65 -165 65 -165 76 -159 c 1,23,-1
 88 -183 l 1,24,25
 75 -193 75 -193 56.5 -198.5 c 128,-1,26
 38 -204 38 -204 26 -204 c 0,0,1
EndSplineSet
Substitution2: "'ss04' Style Set 4 in Latin lookup 23 subtable" Iogonek.a
Ligature2: "'ccmp' Glyph Composition/Decomposition in Latin lookup 6 subtable" I uni0328
Substitution2: "'aalt' Access All Alternates in Latin lookup 0 subtable" Iogonek.a
EndChar

StartChar: Lslash
Encoding: 321 321 134
Width: 440
Flags: W
LayerCount: 2
Fore
SplineSet
9 217 m 1,0,-1
 -4 248 l 1,1,-1
 98 297 l 1,2,-1
 170 659 l 1,3,-1
 213 659 l 1,4,-1
 145 317 l 1,5,-1
 342 412 l 1,6,-1
 355 380 l 1,7,-1
 138 277 l 1,8,-1
 90 37 l 1,9,-1
 383 37 l 1,10,-1
 375 0 l 1,11,-1
 39 0 l 1,12,-1
 90 257 l 1,13,-1
 9 217 l 1,0,-1
EndSplineSet
EndChar

StartChar: Oslash
Encoding: 216 216 158
Width: 618
GlyphClass: 2
Flags: W
AnchorPoint: "Anchor-1" 409 682 basechar 0
LayerCount: 2
Fore
SplineSet
277 -12 m 0,0,1
 221 -12 221 -12 180 9.5 c 128,-1,2
 139 31 139 31 112 69 c 1,3,-1
 27 -24 l 1,4,-1
 1 -2 l 1,5,-1
 94 99 l 1,6,7
 61 165 61 165 61 262 c 0,8,9
 61 308 61 308 70.5 356 c 128,-1,10
 80 404 80 404 98.5 449.5 c 128,-1,11
 117 495 117 495 144 535 c 128,-1,12
 171 575 171 575 206 605.5 c 128,-1,13
 241 636 241 636 283 653.5 c 128,-1,14
 325 671 325 671 374 671 c 0,15,16
 432 671 432 671 474 648.5 c 128,-1,17
 516 626 516 626 542 586 c 1,18,-1
 629 680 l 1,19,-1
 650 658 l 1,20,-1
 558 558 l 1,21,22
 575 525 575 525 582.5 484.5 c 128,-1,23
 590 444 590 444 590 397 c 0,24,25
 590 351 590 351 580.5 303 c 128,-1,26
 571 255 571 255 552.5 209.5 c 128,-1,27
 534 164 534 164 507 124 c 128,-1,28
 480 84 480 84 445 53.5 c 128,-1,29
 410 23 410 23 368 5.5 c 128,-1,30
 326 -12 326 -12 277 -12 c 0,0,1
105 267 m 0,31,32
 105 190 105 190 126 133 c 1,33,-1
 513 554 l 1,34,35
 492 592 492 592 457 613 c 128,-1,36
 422 634 422 634 371 634 c 0,37,38
 308 634 308 634 258.5 598.5 c 128,-1,39
 209 563 209 563 175 508.5 c 128,-1,40
 141 454 141 454 123 389.5 c 128,-1,41
 105 325 105 325 105 267 c 0,31,32
280 25 m 0,42,43
 343 25 343 25 393 60.5 c 128,-1,44
 443 96 443 96 477 150.5 c 128,-1,45
 511 205 511 205 529 269.5 c 128,-1,46
 547 334 547 334 547 392 c 0,47,48
 547 430 547 430 542.5 462.5 c 128,-1,49
 538 495 538 495 527 523 c 1,50,-1
 141 101 l 1,51,52
 162 65 162 65 196.5 45 c 128,-1,53
 231 25 231 25 280 25 c 0,42,43
EndSplineSet
EndChar

StartChar: OE
Encoding: 338 338 159
Width: 806
GlyphClass: 2
Flags: W
AnchorPoint: "Anchor-1" 580 682 basechar 0
LayerCount: 2
Fore
SplineSet
334 0 m 2,0,1
 266 0 266 0 214.5 18.5 c 128,-1,2
 163 37 163 37 129 70.5 c 128,-1,3
 95 104 95 104 78 151 c 128,-1,4
 61 198 61 198 61 256 c 0,5,6
 61 341 61 341 84 415 c 128,-1,7
 107 489 107 489 151.5 543 c 128,-1,8
 196 597 196 597 262 628 c 128,-1,9
 328 659 328 659 414 659 c 2,10,-1
 834 659 l 1,11,-1
 826 622 l 1,12,-1
 544 622 l 1,13,-1
 494 368 l 1,14,-1
 729 368 l 1,15,-1
 721 331 l 1,16,-1
 487 331 l 1,17,-1
 427 37 l 1,18,-1
 719 37 l 1,19,-1
 711 0 l 1,20,-1
 334 0 l 2,0,1
336 36 m 2,21,-1
 386 36 l 1,22,-1
 503 623 l 1,23,-1
 413 623 l 2,24,25
 339 623 339 623 282 594 c 128,-1,26
 225 565 225 565 185.5 515.5 c 128,-1,27
 146 466 146 466 125.5 400 c 128,-1,28
 105 334 105 334 105 259 c 0,29,30
 105 209 105 209 119.5 168 c 128,-1,31
 134 127 134 127 162.5 97.5 c 128,-1,32
 191 68 191 68 234.5 52 c 128,-1,33
 278 36 278 36 336 36 c 2,21,-1
EndSplineSet
EndChar

StartChar: Ohorn
Encoding: 416 416 160
Width: 618
GlyphClass: 2
Flags: W
AnchorPoint: "Anchor-3" 273 -22 basechar 0
AnchorPoint: "Anchor-1" 407 682 basechar 0
LayerCount: 2
Fore
SplineSet
277 -12 m 0,0,1
 223 -12 223 -12 182.5 8 c 128,-1,2
 142 28 142 28 115 64.5 c 128,-1,3
 88 101 88 101 74.5 151.5 c 128,-1,4
 61 202 61 202 61 262 c 0,5,6
 61 308 61 308 70.5 356 c 128,-1,7
 80 404 80 404 98.5 449.5 c 128,-1,8
 117 495 117 495 144 535 c 128,-1,9
 171 575 171 575 206 605.5 c 128,-1,10
 241 636 241 636 283 653.5 c 128,-1,11
 325 671 325 671 374 671 c 0,12,13
 436 671 436 671 483 643 c 1,14,15
 534 647 534 647 564 672.5 c 128,-1,16
 594 698 594 698 594 740 c 0,17,18
 594 749 594 749 593 758 c 128,-1,19
 592 767 592 767 587 778 c 1,20,-1
 626 794 l 1,21,22
 635 767 635 767 635 746 c 0,23,24
 635 718 635 718 625.5 696.5 c 128,-1,25
 616 675 616 675 599.5 659 c 128,-1,26
 583 643 583 643 561.5 632.5 c 128,-1,27
 540 622 540 622 516 617 c 1,28,29
 554 581 554 581 572 524.5 c 128,-1,30
 590 468 590 468 590 397 c 0,31,32
 590 351 590 351 580.5 303 c 128,-1,33
 571 255 571 255 552.5 209.5 c 128,-1,34
 534 164 534 164 507 124 c 128,-1,35
 480 84 480 84 445 53.5 c 128,-1,36
 410 23 410 23 368 5.5 c 128,-1,37
 326 -12 326 -12 277 -12 c 0,0,1
280 25 m 0,38,39
 343 25 343 25 393 60.5 c 128,-1,40
 443 96 443 96 477 150.5 c 128,-1,41
 511 205 511 205 529 269.5 c 128,-1,42
 547 334 547 334 547 392 c 0,43,44
 547 446 547 446 537 490.5 c 128,-1,45
 527 535 527 535 505.5 567 c 128,-1,46
 484 599 484 599 450.5 616.5 c 128,-1,47
 417 634 417 634 371 634 c 0,48,49
 308 634 308 634 258.5 598.5 c 128,-1,50
 209 563 209 563 175 508.5 c 128,-1,51
 141 454 141 454 123 389.5 c 128,-1,52
 105 325 105 325 105 267 c 0,53,54
 105 213 105 213 115 168.5 c 128,-1,55
 125 124 125 124 146.5 92 c 128,-1,56
 168 60 168 60 201 42.5 c 128,-1,57
 234 25 234 25 280 25 c 0,38,39
EndSplineSet
EndChar

StartChar: uni01EA
Encoding: 490 490 166
Width: 618
GlyphClass: 2
Flags: W
AnchorPoint: "Anchor-1" 409 682 basechar 0
LayerCount: 2
Fore
SplineSet
250 -204 m 0,0,1
 220 -204 220 -204 200.5 -188.5 c 128,-1,2
 181 -173 181 -173 181 -141 c 0,3,4
 181 -121 181 -121 189 -101 c 128,-1,5
 197 -81 197 -81 209.5 -64 c 128,-1,6
 222 -47 222 -47 236.5 -33.5 c 128,-1,7
 251 -20 251 -20 264 -12 c 1,8,9
 214 -9 214 -9 176 12 c 128,-1,10
 138 33 138 33 112.5 68.5 c 128,-1,11
 87 104 87 104 74 153 c 128,-1,12
 61 202 61 202 61 262 c 0,13,14
 61 308 61 308 70.5 356 c 128,-1,15
 80 404 80 404 98.5 449.5 c 128,-1,16
 117 495 117 495 144 535 c 128,-1,17
 171 575 171 575 206 605.5 c 128,-1,18
 241 636 241 636 283 653.5 c 128,-1,19
 325 671 325 671 374 671 c 0,20,21
 428 671 428 671 468.5 651 c 128,-1,22
 509 631 509 631 536 594.5 c 128,-1,23
 563 558 563 558 576.5 507.5 c 128,-1,24
 590 457 590 457 590 397 c 0,25,26
 590 335 590 335 574 272 c 128,-1,27
 558 209 558 209 526.5 154.5 c 128,-1,28
 495 100 495 100 449.5 58.5 c 128,-1,29
 404 17 404 17 346 -2 c 0,30,31
 280 -25 280 -25 250.5 -61 c 128,-1,32
 221 -97 221 -97 221 -130 c 0,33,34
 221 -149 221 -149 231.5 -160 c 128,-1,35
 242 -171 242 -171 258 -171 c 0,36,37
 278 -171 278 -171 298 -159 c 1,38,-1
 310 -187 l 1,39,40
 296 -195 296 -195 280 -199.5 c 128,-1,41
 264 -204 264 -204 250 -204 c 0,0,1
280 25 m 0,42,43
 343 25 343 25 393 60.5 c 128,-1,44
 443 96 443 96 477 150.5 c 128,-1,45
 511 205 511 205 529 269.5 c 128,-1,46
 547 334 547 334 547 392 c 0,47,48
 547 446 547 446 537 490.5 c 128,-1,49
 527 535 527 535 505.5 567 c 128,-1,50
 484 599 484 599 450.5 616.5 c 128,-1,51
 417 634 417 634 371 634 c 0,52,53
 308 634 308 634 258.5 598.5 c 128,-1,54
 209 563 209 563 175 508.5 c 128,-1,55
 141 454 141 454 123 389.5 c 128,-1,56
 105 325 105 325 105 267 c 0,57,58
 105 213 105 213 115 168.5 c 128,-1,59
 125 124 125 124 146.5 92 c 128,-1,60
 168 60 168 60 201 42.5 c 128,-1,61
 234 25 234 25 280 25 c 0,42,43
EndSplineSet
Ligature2: "'ccmp' Glyph Composition/Decomposition in Latin lookup 6 subtable" O uni0328
EndChar

StartChar: uni1E9E
Encoding: 7838 7838 180
Width: 610
Flags: W
LayerCount: 2
Fore
SplineSet
374 -12 m 0,0,1
 317 -12 317 -12 272.5 12.5 c 128,-1,2
 228 37 228 37 200 82 c 1,3,-1
 230 106 l 1,4,5
 256 67 256 67 290 45.5 c 128,-1,6
 324 24 324 24 375 24 c 0,7,8
 406 24 406 24 432.5 36.5 c 128,-1,9
 459 49 459 49 478.5 70 c 128,-1,10
 498 91 498 91 509.5 118.5 c 128,-1,11
 521 146 521 146 521 177 c 0,12,13
 521 199 521 199 512 222 c 128,-1,14
 503 245 503 245 482 266 c 128,-1,15
 461 287 461 287 425.5 305 c 128,-1,16
 390 323 390 323 337 337 c 1,17,-1
 341 368 l 1,18,-1
 526 527 l 1,19,20
 489 636 489 636 374 636 c 0,21,22
 299 636 299 636 243 583.5 c 128,-1,23
 187 531 187 531 165 421 c 2,24,-1
 82 0 l 1,25,-1
 39 0 l 1,26,-1
 126 439 l 2,27,28
 136 490 136 490 157.5 533 c 128,-1,29
 179 576 179 576 210.5 607 c 128,-1,30
 242 638 242 638 284 655 c 128,-1,31
 326 672 326 672 377 672 c 0,32,33
 453 672 453 672 500.5 637 c 128,-1,34
 548 602 548 602 570 518 c 1,35,-1
 387 361 l 1,36,37
 478 335 478 335 521.5 286 c 128,-1,38
 565 237 565 237 565 183 c 0,39,40
 565 142 565 142 551 106.5 c 128,-1,41
 537 71 537 71 512 44.5 c 128,-1,42
 487 18 487 18 452 3 c 128,-1,43
 417 -12 417 -12 374 -12 c 0,0,1
EndSplineSet
EndChar

StartChar: Uogonek
Encoding: 370 370 202
Width: 600
GlyphClass: 2
Flags: W
AnchorPoint: "Anchor-1" 397 682 basechar 0
LayerCount: 2
Fore
SplineSet
594 659 m 1,0,-1
 509 236 l 2,1,2
 498 179 498 179 480.5 138.5 c 128,-1,3
 463 98 463 98 440 69.5 c 128,-1,4
 417 41 417 41 387.5 22.5 c 128,-1,5
 358 4 358 4 322 -8 c 0,6,7
 292 -18 292 -18 270.5 -33 c 128,-1,8
 249 -48 249 -48 234.5 -64.5 c 128,-1,9
 220 -81 220 -81 213.5 -98 c 128,-1,10
 207 -115 207 -115 207 -130 c 0,11,12
 207 -149 207 -149 217.5 -160 c 128,-1,13
 228 -171 228 -171 244 -171 c 0,14,15
 264 -171 264 -171 284 -159 c 1,16,-1
 296 -187 l 1,17,18
 282 -195 282 -195 266 -199.5 c 128,-1,19
 250 -204 250 -204 236 -204 c 0,20,21
 206 -204 206 -204 186.5 -188.5 c 128,-1,22
 167 -173 167 -173 167 -141 c 0,23,24
 167 -125 167 -125 173.5 -107 c 128,-1,25
 180 -89 180 -89 191.5 -72 c 128,-1,26
 203 -55 203 -55 218 -39 c 128,-1,27
 233 -23 233 -23 250 -11 c 1,28,29
 168 -3 168 -3 124.5 46.5 c 128,-1,30
 81 96 81 96 81 184 c 0,31,32
 81 204 81 204 83 224.5 c 128,-1,33
 85 245 85 245 90 269 c 2,34,-1
 168 659 l 1,35,-1
 211 659 l 1,36,-1
 134 273 l 2,37,38
 128 250 128 250 126 230 c 128,-1,39
 124 210 124 210 124 192 c 0,40,41
 124 112 124 112 162 68.5 c 128,-1,42
 200 25 200 25 277 25 c 0,43,44
 308 25 308 25 337.5 37 c 128,-1,45
 367 49 367 49 392 75 c 128,-1,46
 417 101 417 101 436.5 142 c 128,-1,47
 456 183 456 183 468 242 c 2,48,-1
 551 659 l 1,49,-1
 594 659 l 1,0,-1
EndSplineSet
Ligature2: "'ccmp' Glyph Composition/Decomposition in Latin lookup 6 subtable" U uni0328
EndChar

StartChar: Uhorn
Encoding: 431 431 203
Width: 608
GlyphClass: 2
Flags: W
AnchorPoint: "Anchor-3" 258 -22 basechar 0
AnchorPoint: "Anchor-1" 399 682 basechar 0
LayerCount: 2
Fore
SplineSet
90 269 m 2,0,-1
 168 659 l 1,1,-1
 211 659 l 1,2,-1
 134 273 l 2,3,4
 128 250 128 250 126 230 c 128,-1,5
 124 210 124 210 124 192 c 0,6,7
 124 112 124 112 162 68.5 c 128,-1,8
 200 25 200 25 277 25 c 0,9,10
 308 25 308 25 337.5 37 c 128,-1,11
 367 49 367 49 392 75 c 128,-1,12
 417 101 417 101 436.5 142 c 128,-1,13
 456 183 456 183 468 242 c 2,14,-1
 551 659 l 1,15,-1
 560 659 l 2,16,17
 613 661 613 661 643.5 686 c 128,-1,18
 674 711 674 711 674 754 c 0,19,20
 674 763 674 763 673 772.5 c 128,-1,21
 672 782 672 782 667 793 c 1,22,-1
 706 808 l 1,23,24
 711 794 711 794 713 783 c 128,-1,25
 715 772 715 772 715 761 c 0,26,27
 715 732 715 732 704.5 709.5 c 128,-1,28
 694 687 694 687 676.5 671.5 c 128,-1,29
 659 656 659 656 636 646 c 128,-1,30
 613 636 613 636 589 632 c 1,31,-1
 509 236 l 2,32,33
 495 167 495 167 471 120 c 128,-1,34
 447 73 447 73 416.5 43.5 c 128,-1,35
 386 14 386 14 349 1 c 128,-1,36
 312 -12 312 -12 273 -12 c 0,37,38
 182 -12 182 -12 131.5 38.5 c 128,-1,39
 81 89 81 89 81 184 c 0,40,41
 81 204 81 204 83 224.5 c 128,-1,42
 85 245 85 245 90 269 c 2,0,-1
EndSplineSet
EndChar

StartChar: Eth
Encoding: 208 208 225
Width: 595
Flags: W
LayerCount: 2
Fore
SplineSet
52 334 m 1,0,-1
 59 363 l 1,1,-1
 130 365 l 1,2,-1
 188 659 l 1,3,-1
 297 659 l 2,4,5
 365 659 365 659 416 640.5 c 128,-1,6
 467 622 467 622 501 588.5 c 128,-1,7
 535 555 535 555 552 508 c 128,-1,8
 569 461 569 461 569 403 c 0,9,10
 569 317 569 317 546 243.5 c 128,-1,11
 523 170 523 170 478.5 116 c 128,-1,12
 434 62 434 62 368.5 31 c 128,-1,13
 303 0 303 0 217 0 c 2,14,-1
 57 0 l 1,15,-1
 123 334 l 1,16,-1
 52 334 l 1,0,-1
106 36 m 1,17,-1
 218 36 l 2,18,19
 291 36 291 36 348.5 65 c 128,-1,20
 406 94 406 94 445.5 143.5 c 128,-1,21
 485 193 485 193 505.5 259 c 128,-1,22
 526 325 526 325 526 400 c 0,23,24
 526 450 526 450 511.5 491 c 128,-1,25
 497 532 497 532 468.5 561.5 c 128,-1,26
 440 591 440 591 396.5 607 c 128,-1,27
 353 623 353 623 295 623 c 2,28,-1
 223 623 l 1,29,-1
 172 365 l 1,30,-1
 336 365 l 1,31,-1
 329 334 l 1,32,-1
 165 334 l 1,33,-1
 106 36 l 1,17,-1
EndSplineSet
EndChar

StartChar: Thorn
Encoding: 222 222 226
Width: 543
Flags: W
LayerCount: 2
Fore
SplineSet
39 0 m 1,0,-1
 170 660 l 1,1,-1
 213 660 l 1,2,-1
 190 538 l 1,3,-1
 320 538 l 2,4,5
 411 538 411 538 462.5 502 c 128,-1,6
 514 466 514 466 514 386 c 0,7,8
 514 330 514 330 494 288.5 c 128,-1,9
 474 247 474 247 437.5 219.5 c 128,-1,10
 401 192 401 192 349.5 178.5 c 128,-1,11
 298 165 298 165 235 165 c 2,12,-1
 114 165 l 1,13,-1
 81 0 l 1,14,-1
 39 0 l 1,0,-1
122 201 m 1,15,-1
 231 201 l 2,16,17
 350 201 350 201 410.5 246.5 c 128,-1,18
 471 292 471 292 471 381 c 0,19,20
 471 447 471 447 428 474.5 c 128,-1,21
 385 502 385 502 301 502 c 2,22,-1
 182 502 l 1,23,-1
 122 201 l 1,15,-1
EndSplineSet
EndChar

StartChar: uni018F
Encoding: 399 399 227
Width: 617
GlyphClass: 2
Flags: W
AnchorPoint: "Anchor-3" 288 -22 basechar 0
AnchorPoint: "Anchor-1" 449 682 basechar 0
LayerCount: 2
Fore
SplineSet
265 -12 m 0,0,1
 216 -12 216 -12 178.5 6 c 128,-1,2
 141 24 141 24 115 56 c 128,-1,3
 89 88 89 88 75.5 132 c 128,-1,4
 62 176 62 176 62 228 c 0,5,6
 62 258 62 258 65.5 280 c 128,-1,7
 69 302 69 302 74 328 c 1,8,-1
 544 328 l 1,9,10
 546 343 546 343 547 358.5 c 128,-1,11
 548 374 548 374 548 391 c 0,12,13
 548 446 548 446 539 491 c 128,-1,14
 530 536 530 536 510 568 c 128,-1,15
 490 600 490 600 458 617.5 c 128,-1,16
 426 635 426 635 379 635 c 256,17,18
 332 635 332 635 290 615 c 128,-1,19
 248 595 248 595 216 565 c 1,20,-1
 193 594 l 1,21,22
 228 627 228 627 278 649.5 c 128,-1,23
 328 672 328 672 383 672 c 0,24,25
 437 672 437 672 476 652 c 128,-1,26
 515 632 515 632 540.5 596 c 128,-1,27
 566 560 566 560 578.5 509.5 c 128,-1,28
 591 459 591 459 591 398 c 0,29,30
 591 309 591 309 565 234 c 128,-1,31
 539 159 539 159 495 104 c 128,-1,32
 451 49 451 49 391.5 18.5 c 128,-1,33
 332 -12 332 -12 265 -12 c 0,0,1
268 25 m 0,34,35
 317 25 317 25 360.5 44.5 c 128,-1,36
 404 64 404 64 439.5 99.5 c 128,-1,37
 475 135 475 135 500.5 184.5 c 128,-1,38
 526 234 526 234 538 293 c 1,39,-1
 106 293 l 1,40,41
 97 230 97 230 105 180.5 c 128,-1,42
 113 131 113 131 134.5 96.5 c 128,-1,43
 156 62 156 62 190 43.5 c 128,-1,44
 224 25 224 25 268 25 c 0,34,35
EndSplineSet
EndChar

StartChar: aogonek
Encoding: 261 261 249
Width: 527
GlyphClass: 2
Flags: W
AnchorPoint: "Anchor-0" 313 504 basechar 0
LayerCount: 2
Fore
SplineSet
306 -203 m 0,0,1
 276 -203 276 -203 256.5 -187.5 c 128,-1,2
 237 -172 237 -172 237 -140 c 0,3,4
 237 -119 237 -119 247 -97.5 c 128,-1,5
 257 -76 257 -76 273.5 -56.5 c 128,-1,6
 290 -37 290 -37 311.5 -20 c 128,-1,7
 333 -3 333 -3 356 9 c 1,8,-1
 365 78 l 1,9,-1
 363 78 l 1,10,11
 326 40 326 40 280 14 c 128,-1,12
 234 -12 234 -12 184 -12 c 0,13,14
 121 -12 121 -12 82.5 32 c 128,-1,15
 44 76 44 76 44 161 c 0,16,17
 44 230 44 230 66 290.5 c 128,-1,18
 88 351 88 351 124.5 396 c 128,-1,19
 161 441 161 441 208 466.5 c 128,-1,20
 255 492 255 492 305 492 c 0,21,22
 347 492 347 492 379 469.5 c 128,-1,23
 411 447 411 447 430 412 c 1,24,-1
 432 412 l 1,25,-1
 451 480 l 1,26,-1
 485 480 l 1,27,-1
 389 0 l 1,28,29
 336 -29 336 -29 306 -62 c 128,-1,30
 276 -95 276 -95 276 -130 c 0,31,32
 276 -149 276 -149 286.5 -159.5 c 128,-1,33
 297 -170 297 -170 313 -170 c 0,34,35
 325 -170 325 -170 334.5 -167 c 128,-1,36
 344 -164 344 -164 354 -158 c 1,37,-1
 366 -185 l 1,38,39
 352 -193 352 -193 336 -198 c 128,-1,40
 320 -203 320 -203 306 -203 c 0,0,1
193 24 m 0,41,42
 233 24 233 24 281.5 51 c 128,-1,43
 330 78 330 78 373 128 c 1,44,-1
 423 371 l 1,45,46
 397 418 397 418 367.5 437 c 128,-1,47
 338 456 338 456 304 456 c 0,48,49
 261 456 261 456 221.5 431.5 c 128,-1,50
 182 407 182 407 152 366.5 c 128,-1,51
 122 326 122 326 104 274.5 c 128,-1,52
 86 223 86 223 86 169 c 0,53,54
 86 96 86 96 114.5 60 c 128,-1,55
 143 24 143 24 193 24 c 0,41,42
EndSplineSet
Substitution2: "'ss02' Style Set 2 in Latin lookup 21 subtable" aogonek.a
Ligature2: "'ccmp' Glyph Composition/Decomposition in Latin lookup 6 subtable" a uni0328
Substitution2: "'aalt' Access All Alternates in Latin lookup 0 subtable" aogonek.a
EndChar

StartChar: ae
Encoding: 230 230 250
Width: 765
Flags: W
LayerCount: 2
Fore
SplineSet
38 103 m 0,0,1
 38 153 38 153 61.5 188.5 c 128,-1,2
 85 224 85 224 127.5 247 c 128,-1,3
 170 270 170 270 230.5 281.5 c 128,-1,4
 291 293 291 293 365 296 c 1,5,6
 369 314 369 314 370.5 326.5 c 128,-1,7
 372 339 372 339 372 353 c 0,8,9
 372 403 372 403 350.5 429.5 c 128,-1,10
 329 456 329 456 278 456 c 0,11,12
 244 456 244 456 207.5 443 c 128,-1,13
 171 430 171 430 136 410 c 1,14,-1
 121 442 l 1,15,16
 156 462 156 462 198.5 477 c 128,-1,17
 241 492 241 492 283 492 c 0,18,19
 337 492 337 492 369.5 464.5 c 128,-1,20
 402 437 402 437 407 380 c 1,21,22
 442 432 442 432 488.5 462 c 128,-1,23
 535 492 535 492 585 492 c 0,24,25
 624 492 624 492 651.5 479.5 c 128,-1,26
 679 467 679 467 696 444.5 c 128,-1,27
 713 422 713 422 721 390.5 c 128,-1,28
 729 359 729 359 729 322 c 0,29,30
 729 296 729 296 725 274 c 128,-1,31
 721 252 721 252 716 238 c 1,32,-1
 395 238 l 1,33,34
 386 191 386 191 391.5 151.5 c 128,-1,35
 397 112 397 112 414 83.5 c 128,-1,36
 431 55 431 55 459 39 c 128,-1,37
 487 23 487 23 523 23 c 0,38,39
 556 23 556 23 587.5 37 c 128,-1,40
 619 51 619 51 645 70 c 1,41,-1
 663 40 l 1,42,43
 634 19 634 19 597 3.5 c 128,-1,44
 560 -12 560 -12 518 -12 c 0,45,46
 465 -12 465 -12 424 18 c 128,-1,47
 383 48 383 48 367 93 c 1,48,49
 316 43 316 43 264 15.5 c 128,-1,50
 212 -12 212 -12 158 -12 c 0,51,52
 134 -12 134 -12 112 -4.5 c 128,-1,53
 90 3 90 3 73.5 17 c 128,-1,54
 57 31 57 31 47.5 52.5 c 128,-1,55
 38 74 38 74 38 103 c 0,0,1
401 271 m 1,56,-1
 685 271 l 1,57,58
 691 299 691 299 691 328 c 0,59,60
 691 352 691 352 685.5 375.5 c 128,-1,61
 680 399 680 399 667 417 c 128,-1,62
 654 435 654 435 633 446 c 128,-1,63
 612 457 612 457 581 457 c 0,64,65
 554 457 554 457 526 443.5 c 128,-1,66
 498 430 498 430 473.5 405 c 128,-1,67
 449 380 449 380 430 346 c 128,-1,68
 411 312 411 312 401 271 c 1,56,-1
359 263 m 1,69,70
 296 261 296 261 244 251.5 c 128,-1,71
 192 242 192 242 155.5 223 c 128,-1,72
 119 204 119 204 99 176.5 c 128,-1,73
 79 149 79 149 79 112 c 0,74,75
 79 68 79 68 105 46 c 128,-1,76
 131 24 131 24 170 24 c 0,77,78
 207 24 207 24 256 48.5 c 128,-1,79
 305 73 305 73 356 126 c 1,80,81
 350 165 350 165 351 195 c 128,-1,82
 352 225 352 225 359 263 c 1,69,70
EndSplineSet
EndChar

StartChar: dcroat
Encoding: 273 273 259
Width: 525
Flags: W
LayerCount: 2
Fore
SplineSet
184 -12 m 0,0,1
 121 -12 121 -12 82.5 32 c 128,-1,2
 44 76 44 76 44 161 c 0,3,4
 44 223 44 223 66 279.5 c 128,-1,5
 88 336 88 336 124 378.5 c 128,-1,6
 160 421 160 421 206.5 446.5 c 128,-1,7
 253 472 253 472 303 472 c 0,8,9
 345 472 345 472 376 451 c 128,-1,10
 407 430 407 430 424 395 c 1,11,-1
 428 395 l 1,12,-1
 447 490 l 1,13,-1
 465 581 l 1,14,-1
 302 581 l 1,15,-1
 309 612 l 1,16,-1
 472 612 l 1,17,-1
 493 719 l 1,18,-1
 534 719 l 1,19,-1
 512 612 l 1,20,-1
 586 612 l 1,21,-1
 579 585 l 1,22,-1
 506 581 l 1,23,-1
 389 0 l 1,24,-1
 354 0 l 1,25,-1
 365 76 l 1,26,-1
 361 76 l 1,27,28
 324 38 324 38 279 13 c 128,-1,29
 234 -12 234 -12 184 -12 c 0,0,1
193 24 m 0,30,31
 240 24 240 24 285 51 c 128,-1,32
 330 78 330 78 373 128 c 1,33,-1
 419 349 l 1,34,35
 394 396 394 396 365 416 c 128,-1,36
 336 436 336 436 302 436 c 0,37,38
 260 436 260 436 221 412 c 128,-1,39
 182 388 182 388 152 349.5 c 128,-1,40
 122 311 122 311 104 263.5 c 128,-1,41
 86 216 86 216 86 169 c 0,42,43
 86 96 86 96 114.5 60 c 128,-1,44
 143 24 143 24 193 24 c 0,30,31
EndSplineSet
EndChar

StartChar: eogonek
Encoding: 281 281 276
Width: 471
GlyphClass: 2
Flags: W
AnchorPoint: "Anchor-0" 297 504 basechar 0
LayerCount: 2
Fore
SplineSet
184 -140 m 0,0,1
 184 -120 184 -120 192 -100.5 c 128,-1,2
 200 -81 200 -81 212.5 -64 c 128,-1,3
 225 -47 225 -47 239.5 -32.5 c 128,-1,4
 254 -18 254 -18 267 -7 c 1,5,6
 244 -12 244 -12 225 -12 c 0,7,8
 141 -12 141 -12 91.5 38.5 c 128,-1,9
 42 89 42 89 42 186 c 0,10,11
 42 254 42 254 64 310.5 c 128,-1,12
 86 367 86 367 121 407.5 c 128,-1,13
 156 448 156 448 201 470 c 128,-1,14
 246 492 246 492 292 492 c 0,15,16
 331 492 331 492 358.5 479.5 c 128,-1,17
 386 467 386 467 403 444.5 c 128,-1,18
 420 422 420 422 428 390.5 c 128,-1,19
 436 359 436 359 436 322 c 0,20,21
 436 296 436 296 432 274 c 128,-1,22
 428 252 428 252 423 238 c 1,23,-1
 88 238 l 1,24,25
 78 181 78 181 86 140.5 c 128,-1,26
 94 100 94 100 114 74 c 128,-1,27
 134 48 134 48 164.5 35.5 c 128,-1,28
 195 23 195 23 231 23 c 0,29,30
 263 23 263 23 294 37 c 128,-1,31
 325 51 325 51 351 70 c 1,32,-1
 370 40 l 1,33,34
 289 -13 289 -13 255.5 -54.5 c 128,-1,35
 222 -96 222 -96 222 -130 c 0,36,37
 222 -149 222 -149 232.5 -159.5 c 128,-1,38
 243 -170 243 -170 260 -170 c 0,39,40
 280 -170 280 -170 301 -158 c 1,41,-1
 312 -185 l 1,42,43
 298 -193 298 -193 282 -198 c 128,-1,44
 266 -203 266 -203 252 -203 c 0,45,46
 223 -203 223 -203 203.5 -187.5 c 128,-1,47
 184 -172 184 -172 184 -140 c 0,0,1
94 271 m 1,48,-1
 392 271 l 1,49,50
 398 299 398 299 398 328 c 0,51,52
 398 352 398 352 392.5 375.5 c 128,-1,53
 387 399 387 399 374 417 c 128,-1,54
 361 435 361 435 340 446 c 128,-1,55
 319 457 319 457 288 457 c 0,56,57
 256 457 256 457 225.5 443.5 c 128,-1,58
 195 430 195 430 169 405 c 128,-1,59
 143 380 143 380 123.5 346 c 128,-1,60
 104 312 104 312 94 271 c 1,48,-1
EndSplineSet
Ligature2: "'ccmp' Glyph Composition/Decomposition in Latin lookup 6 subtable" e uni0328
EndChar

StartChar: hbar
Encoding: 295 295 287
Width: 504
Flags: W
LayerCount: 2
Fore
SplineSet
40 0 m 1,0,-1
 156 581 l 1,1,-1
 84 581 l 1,2,-1
 89 608 l 1,3,-1
 163 612 l 1,4,-1
 184 719 l 1,5,-1
 225 719 l 1,6,-1
 203 612 l 1,7,-1
 387 612 l 1,8,-1
 380 581 l 1,9,-1
 197 581 l 1,10,-1
 167 433 l 1,11,-1
 154 383 l 1,12,-1
 158 383 l 1,13,14
 205 422 205 422 246.5 447 c 128,-1,15
 288 472 288 472 332 472 c 0,16,17
 394 472 394 472 420 440 c 128,-1,18
 446 408 446 408 446 355 c 0,19,20
 446 337 446 337 444.5 324 c 128,-1,21
 443 311 443 311 438 290 c 2,22,-1
 380 0 l 1,23,-1
 339 0 l 1,24,-1
 397 284 l 2,25,26
 401 306 401 306 403 319 c 128,-1,27
 405 332 405 332 405 346 c 0,28,29
 405 391 405 391 385 413 c 128,-1,30
 365 435 365 435 319 435 c 0,31,32
 287 435 287 435 245 411.5 c 128,-1,33
 203 388 203 388 149 334 c 1,34,-1
 82 0 l 1,35,-1
 40 0 l 1,0,-1
EndSplineSet
EndChar

StartChar: iogonek
Encoding: 303 303 297
Width: 220
GlyphClass: 3
Flags: W
LayerCount: 2
Fore
SplineSet
25 -203 m 0,0,1
 -4 -203 -4 -203 -23.5 -187.5 c 128,-1,2
 -43 -172 -43 -172 -43 -140 c 0,3,4
 -43 -120 -43 -120 -34.5 -99.5 c 128,-1,5
 -26 -79 -26 -79 -13 -60.5 c 128,-1,6
 0 -42 0 -42 16 -26.5 c 128,-1,7
 32 -11 32 -11 47 0 c 1,8,-1
 40 0 l 1,9,-1
 137 480 l 1,10,-1
 178 480 l 1,11,-1
 82 0 l 1,12,13
 43 -32 43 -32 19 -64 c 128,-1,14
 -5 -96 -5 -96 -5 -130 c 0,15,16
 -5 -149 -5 -149 5.5 -159.5 c 128,-1,17
 16 -170 16 -170 33 -170 c 0,18,19
 53 -170 53 -170 73 -158 c 1,20,-1
 85 -185 l 1,21,22
 71 -193 71 -193 55 -198 c 128,-1,23
 39 -203 39 -203 25 -203 c 0,0,1
183 596 m 0,24,25
 169 596 169 596 159.5 605.5 c 128,-1,26
 150 615 150 615 150 629 c 0,27,28
 150 649 150 649 162.5 661.5 c 128,-1,29
 175 674 175 674 192 674 c 0,30,31
 206 674 206 674 215.5 665 c 128,-1,32
 225 656 225 656 225 640 c 0,33,34
 225 621 225 621 212.5 608.5 c 128,-1,35
 200 596 200 596 183 596 c 0,24,25
EndSplineSet
Substitution2: "Single Substitution lookup 26 subtable" iogonek.d
Ligature2: "'ccmp' Glyph Composition/Decomposition in Latin lookup 6 subtable" i uni0328
EndChar

StartChar: iogonek.d
Encoding: 65539 -1 298
Width: 220
GlyphClass: 2
Flags: W
AnchorPoint: "Anchor-0" 169 504 basechar 0
LayerCount: 2
Fore
SplineSet
25 -203 m 0,0,1
 -4 -203 -4 -203 -23.5 -187.5 c 128,-1,2
 -43 -172 -43 -172 -43 -140 c 0,3,4
 -43 -120 -43 -120 -34.5 -99.5 c 128,-1,5
 -26 -79 -26 -79 -13 -60.5 c 128,-1,6
 0 -42 0 -42 16 -26.5 c 128,-1,7
 32 -11 32 -11 47 0 c 1,8,-1
 40 0 l 1,9,-1
 137 480 l 1,10,-1
 178 480 l 1,11,-1
 82 0 l 1,12,13
 43 -32 43 -32 19 -64 c 128,-1,14
 -5 -96 -5 -96 -5 -130 c 0,15,16
 -5 -149 -5 -149 5.5 -159.5 c 128,-1,17
 16 -170 16 -170 33 -170 c 0,18,19
 53 -170 53 -170 73 -158 c 1,20,-1
 85 -185 l 1,21,22
 71 -193 71 -193 55 -198 c 128,-1,23
 39 -203 39 -203 25 -203 c 0,0,1
EndSplineSet
Ligature2: "Ligature Substitution lookup 25 subtable" i uni0328
EndChar

StartChar: dotlessi
Encoding: 305 305 299
Width: 220
GlyphClass: 2
Flags: W
AnchorPoint: "Anchor-5" 60 0 basechar 0
AnchorPoint: "Anchor-3" 69 -22 basechar 0
AnchorPoint: "Anchor-0" 169 504 basechar 0
LayerCount: 2
Fore
SplineSet
40 0 m 1,0,-1
 137 480 l 1,1,-1
 178 480 l 1,2,-1
 82 0 l 1,3,-1
 40 0 l 1,0,-1
EndSplineSet
EndChar

StartChar: kgreenlandic
Encoding: 312 312 302
Width: 447
Flags: W
LayerCount: 2
Fore
SplineSet
40 0 m 1,0,-1
 137 480 l 1,1,-1
 178 480 l 1,2,-1
 120 190 l 1,3,-1
 123 190 l 1,4,-1
 407 480 l 1,5,-1
 457 480 l 1,6,-1
 269 285 l 1,7,-1
 385 0 l 1,8,-1
 342 0 l 1,9,-1
 238 258 l 1,10,-1
 107 125 l 1,11,-1
 82 0 l 1,12,-1
 40 0 l 1,0,-1
EndSplineSet
EndChar

StartChar: lslash
Encoding: 322 322 310
Width: 233
Flags: W
LayerCount: 2
Fore
SplineSet
93 -12 m 0,0,1
 73 -12 73 -12 61 -1 c 128,-1,2
 49 10 49 10 49 31 c 0,3,4
 49 42 49 42 54 62 c 2,5,-1
 114 365 l 1,6,-1
 51 327 l 1,7,-1
 39 356 l 1,8,-1
 123 406 l 1,9,-1
 185 719 l 1,10,-1
 226 719 l 1,11,-1
 168 429 l 1,12,-1
 241 473 l 1,13,-1
 254 444 l 1,14,-1
 160 388 l 1,15,-1
 95 59 l 2,16,17
 93 51 93 51 93 46.5 c 128,-1,18
 93 42 93 42 93 39 c 0,19,20
 93 24 93 24 107 24 c 0,21,22
 111 24 111 24 113.5 24.5 c 128,-1,23
 116 25 116 25 124 28 c 1,24,-1
 127 -5 l 1,25,26
 119 -9 119 -9 111.5 -10.5 c 128,-1,27
 104 -12 104 -12 93 -12 c 0,0,1
EndSplineSet
Substitution2: "'ss01' Style Set 1 in Latin lookup 20 subtable" lslash.a
Substitution2: "'aalt' Access All Alternates in Latin lookup 0 subtable" lslash.a
EndChar

StartChar: oslash
Encoding: 248 248 335
Width: 504
GlyphClass: 2
Flags: W
AnchorPoint: "Anchor-0" 320 504 basechar 0
LayerCount: 2
Fore
SplineSet
206 -12 m 0,0,1
 128 -12 128 -12 84 43 c 1,2,-1
 21 -22 l 1,3,-1
 0 -2 l 1,4,-1
 68 68 l 1,5,6
 44 111 44 111 44 178 c 256,7,8
 44 245 44 245 65 302.5 c 128,-1,9
 86 360 86 360 121.5 402 c 128,-1,10
 157 444 157 444 202.5 468 c 128,-1,11
 248 492 248 492 297 492 c 0,12,13
 337 492 337 492 369 477 c 128,-1,14
 401 462 401 462 422 433 c 1,15,-1
 488 501 l 1,16,-1
 509 480 l 1,17,-1
 438 407 l 1,18,19
 460 363 460 363 460 302 c 0,20,21
 460 234 460 234 438.5 176.5 c 128,-1,22
 417 119 417 119 382 77 c 128,-1,23
 347 35 347 35 301 11.5 c 128,-1,24
 255 -12 255 -12 206 -12 c 0,0,1
84 184 m 0,25,26
 84 135 84 135 98 99 c 1,27,-1
 394 404 l 1,28,29
 362 456 362 456 294 456 c 0,30,31
 255 456 255 456 217 434 c 128,-1,32
 179 412 179 412 149.5 374.5 c 128,-1,33
 120 337 120 337 102 287.5 c 128,-1,34
 84 238 84 238 84 184 c 0,25,26
209 24 m 0,35,36
 249 24 249 24 286.5 46 c 128,-1,37
 324 68 324 68 353.5 105.5 c 128,-1,38
 383 143 383 143 401 192.5 c 128,-1,39
 419 242 419 242 419 296 c 0,40,41
 419 341 419 341 407 376 c 1,42,-1
 112 71 l 1,43,44
 144 24 144 24 209 24 c 0,35,36
EndSplineSet
EndChar

StartChar: oe
Encoding: 339 339 336
Width: 821
GlyphClass: 2
Flags: W
AnchorPoint: "Anchor-0" 458 502 basechar 0
LayerCount: 2
Fore
SplineSet
205 -12 m 0,0,1
 131 -12 131 -12 87.5 37.5 c 128,-1,2
 44 87 44 87 44 178 c 0,3,4
 44 245 44 245 65 302.5 c 128,-1,5
 86 360 86 360 121 402 c 128,-1,6
 156 444 156 444 201.5 468 c 128,-1,7
 247 492 247 492 296 492 c 0,8,9
 360 492 360 492 400 455 c 128,-1,10
 440 418 440 418 451 349 c 1,11,12
 467 383 467 383 488.5 409.5 c 128,-1,13
 510 436 510 436 535 454.5 c 128,-1,14
 560 473 560 473 587 482.5 c 128,-1,15
 614 492 614 492 641 492 c 0,16,17
 680 492 680 492 707.5 479.5 c 128,-1,18
 735 467 735 467 752.5 444.5 c 128,-1,19
 770 422 770 422 778 390.5 c 128,-1,20
 786 359 786 359 786 322 c 0,21,22
 786 296 786 296 781.5 274 c 128,-1,23
 777 252 777 252 772 238 c 1,24,-1
 454 238 l 1,25,26
 446 181 446 181 453 140.5 c 128,-1,27
 460 100 460 100 478 74 c 128,-1,28
 496 48 496 48 523 35.5 c 128,-1,29
 550 23 550 23 581 23 c 0,30,31
 613 23 613 23 644 37 c 128,-1,32
 675 51 675 51 701 70 c 1,33,-1
 719 40 l 1,34,35
 690 19 690 19 653 3.5 c 128,-1,36
 616 -12 616 -12 574 -12 c 0,37,38
 510 -12 510 -12 468.5 27 c 128,-1,39
 427 66 427 66 417 141 c 1,40,41
 383 70 383 70 326 29 c 128,-1,42
 269 -12 269 -12 205 -12 c 0,0,1
210 24 m 0,43,44
 248 24 248 24 285 46 c 128,-1,45
 322 68 322 68 351.5 105 c 128,-1,46
 381 142 381 142 399 191.5 c 128,-1,47
 417 241 417 241 417 297 c 0,48,49
 417 375 417 375 385 415.5 c 128,-1,50
 353 456 353 456 293 456 c 0,51,52
 255 456 255 456 217.5 434 c 128,-1,53
 180 412 180 412 150.5 375 c 128,-1,54
 121 338 121 338 103 288.5 c 128,-1,55
 85 239 85 239 85 184 c 0,56,57
 85 106 85 106 117.5 65 c 128,-1,58
 150 24 150 24 210 24 c 0,43,44
461 271 m 1,59,-1
 742 271 l 1,60,61
 744 285 744 285 745.5 298.5 c 128,-1,62
 747 312 747 312 747 328 c 0,63,64
 747 352 747 352 741.5 375.5 c 128,-1,65
 736 399 736 399 723 417 c 128,-1,66
 710 435 710 435 689 446 c 128,-1,67
 668 457 668 457 637 457 c 0,68,69
 608 457 608 457 580.5 443.5 c 128,-1,70
 553 430 553 430 529.5 405 c 128,-1,71
 506 380 506 380 488 346 c 128,-1,72
 470 312 470 312 461 271 c 1,59,-1
EndSplineSet
EndChar

StartChar: ohorn
Encoding: 417 417 337
Width: 505
GlyphClass: 2
Flags: W
AnchorPoint: "Anchor-3" 189 -22 basechar 0
AnchorPoint: "Anchor-0" 318 504 basechar 0
LayerCount: 2
Fore
SplineSet
206 -12 m 0,0,1
 132 -12 132 -12 88 37.5 c 128,-1,2
 44 87 44 87 44 178 c 0,3,4
 44 245 44 245 65 302.5 c 128,-1,5
 86 360 86 360 121.5 402 c 128,-1,6
 157 444 157 444 202.5 468 c 128,-1,7
 248 492 248 492 297 492 c 0,8,9
 348 492 348 492 386 468 c 1,10,11
 434 474 434 474 462.5 498.5 c 128,-1,12
 491 523 491 523 494 568 c 0,13,14
 496 588 496 588 488 610 c 1,15,-1
 525 626 l 1,16,17
 530 612 530 612 531.5 598.5 c 128,-1,18
 533 585 533 585 533 572 c 0,19,20
 533 543 533 543 522.5 521 c 128,-1,21
 512 499 512 499 495 483.5 c 128,-1,22
 478 468 478 468 457 458 c 128,-1,23
 436 448 436 448 415 443 c 1,24,25
 460 393 460 393 460 302 c 0,26,27
 460 235 460 235 438.5 177.5 c 128,-1,28
 417 120 417 120 382 78 c 128,-1,29
 347 36 347 36 301 12 c 128,-1,30
 255 -12 255 -12 206 -12 c 0,0,1
210 24 m 0,31,32
 249 24 249 24 286 46 c 128,-1,33
 323 68 323 68 352.5 105 c 128,-1,34
 382 142 382 142 400 191.5 c 128,-1,35
 418 241 418 241 418 297 c 0,36,37
 418 375 418 375 386 415.5 c 128,-1,38
 354 456 354 456 294 456 c 0,39,40
 255 456 255 456 217.5 434 c 128,-1,41
 180 412 180 412 150.5 375 c 128,-1,42
 121 338 121 338 103 288.5 c 128,-1,43
 85 239 85 239 85 184 c 0,44,45
 85 106 85 106 117.5 65 c 128,-1,46
 150 24 150 24 210 24 c 0,31,32
EndSplineSet
EndChar

StartChar: uni1EE1
Encoding: 7905 7905 341
Width: 505
Flags: W
LayerCount: 2
Fore
SplineSet
384 579 m 0,0,1
 358 579 358 579 342.5 594.5 c 128,-1,2
 327 610 327 610 314 628 c 128,-1,3
 301 646 301 646 288 661.5 c 128,-1,4
 275 677 275 677 254 677 c 0,5,6
 227 677 227 677 210.5 649.5 c 128,-1,7
 194 622 194 622 185 582 c 1,8,-1
 152 584 l 1,9,10
 158 608 158 608 166.5 630.5 c 128,-1,11
 175 653 175 653 187.5 671 c 128,-1,12
 200 689 200 689 217.5 699.5 c 128,-1,13
 235 710 235 710 258 710 c 0,14,15
 284 710 284 710 299.5 695 c 128,-1,16
 315 680 315 680 328 661.5 c 128,-1,17
 341 643 341 643 354 628 c 128,-1,18
 367 613 367 613 388 613 c 0,19,20
 415 613 415 613 431.5 641 c 128,-1,21
 448 669 448 669 456 707 c 1,22,-1
 490 705 l 1,23,24
 484 682 484 682 475.5 659.5 c 128,-1,25
 467 637 467 637 454.5 619 c 128,-1,26
 442 601 442 601 424.5 590 c 128,-1,27
 407 579 407 579 384 579 c 0,0,1
206 -12 m 0,28,29
 132 -12 132 -12 88 37.5 c 128,-1,30
 44 87 44 87 44 178 c 0,31,32
 44 245 44 245 65 302.5 c 128,-1,33
 86 360 86 360 121.5 402 c 128,-1,34
 157 444 157 444 202.5 468 c 128,-1,35
 248 492 248 492 297 492 c 0,36,37
 348 492 348 492 386 468 c 1,38,39
 434 474 434 474 462.5 498.5 c 128,-1,40
 491 523 491 523 494 568 c 0,41,42
 496 588 496 588 488 610 c 1,43,-1
 525 626 l 1,44,45
 530 612 530 612 531.5 598.5 c 128,-1,46
 533 585 533 585 533 572 c 0,47,48
 533 543 533 543 522.5 521 c 128,-1,49
 512 499 512 499 495 483.5 c 128,-1,50
 478 468 478 468 457 458 c 128,-1,51
 436 448 436 448 415 443 c 1,52,53
 460 393 460 393 460 302 c 0,54,55
 460 235 460 235 438.5 177.5 c 128,-1,56
 417 120 417 120 382 78 c 128,-1,57
 347 36 347 36 301 12 c 128,-1,58
 255 -12 255 -12 206 -12 c 0,28,29
210 24 m 0,59,60
 249 24 249 24 286 46 c 128,-1,61
 323 68 323 68 352.5 105 c 128,-1,62
 382 142 382 142 400 191.5 c 128,-1,63
 418 241 418 241 418 297 c 0,64,65
 418 375 418 375 386 415.5 c 128,-1,66
 354 456 354 456 294 456 c 0,67,68
 255 456 255 456 217.5 434 c 128,-1,69
 180 412 180 412 150.5 375 c 128,-1,70
 121 338 121 338 103 288.5 c 128,-1,71
 85 239 85 239 85 184 c 0,72,73
 85 106 85 106 117.5 65 c 128,-1,74
 150 24 150 24 210 24 c 0,59,60
EndSplineSet
EndChar

StartChar: uni01EB
Encoding: 491 491 343
Width: 504
GlyphClass: 2
Flags: W
AnchorPoint: "Anchor-0" 320 504 basechar 0
LayerCount: 2
Fore
SplineSet
184 -203 m 0,0,1
 155 -203 155 -203 135.5 -187.5 c 128,-1,2
 116 -172 116 -172 116 -140 c 0,3,4
 116 -120 116 -120 124 -100 c 128,-1,5
 132 -80 132 -80 144.5 -63 c 128,-1,6
 157 -46 157 -46 171.5 -32.5 c 128,-1,7
 186 -19 186 -19 200 -11 c 1,8,9
 126 -7 126 -7 85 40.5 c 128,-1,10
 44 88 44 88 44 178 c 0,11,12
 44 245 44 245 65 302.5 c 128,-1,13
 86 360 86 360 121.5 402 c 128,-1,14
 157 444 157 444 202.5 468 c 128,-1,15
 248 492 248 492 297 492 c 0,16,17
 371 492 371 492 415.5 442.5 c 128,-1,18
 460 393 460 393 460 302 c 0,19,20
 460 189 460 189 406 111 c 128,-1,21
 352 33 352 33 264 -6 c 0,22,23
 238 -17 238 -17 217.5 -32.5 c 128,-1,24
 197 -48 197 -48 183 -64.5 c 128,-1,25
 169 -81 169 -81 161.5 -98 c 128,-1,26
 154 -115 154 -115 154 -130 c 0,27,28
 154 -149 154 -149 164.5 -159.5 c 128,-1,29
 175 -170 175 -170 192 -170 c 0,30,31
 212 -170 212 -170 233 -158 c 1,32,-1
 244 -185 l 1,33,34
 230 -193 230 -193 214 -198 c 128,-1,35
 198 -203 198 -203 184 -203 c 0,0,1
210 24 m 0,36,37
 249 24 249 24 286 46 c 128,-1,38
 323 68 323 68 352.5 105 c 128,-1,39
 382 142 382 142 400 191.5 c 128,-1,40
 418 241 418 241 418 297 c 0,41,42
 418 375 418 375 386 415.5 c 128,-1,43
 354 456 354 456 294 456 c 0,44,45
 255 456 255 456 217.5 434 c 128,-1,46
 180 412 180 412 150.5 375 c 128,-1,47
 121 338 121 338 103 288.5 c 128,-1,48
 85 239 85 239 85 184 c 0,49,50
 85 106 85 106 117.5 65 c 128,-1,51
 150 24 150 24 210 24 c 0,36,37
EndSplineSet
Ligature2: "'ccmp' Glyph Composition/Decomposition in Latin lookup 6 subtable" o uni0328
EndChar

StartChar: germandbls
Encoding: 223 223 357
Width: 524
Flags: W
LayerCount: 2
Fore
SplineSet
318 -12 m 0,0,1
 283 -12 283 -12 247 1.5 c 128,-1,2
 211 15 211 15 182 41 c 1,3,-1
 205 69 l 1,4,5
 231 48 231 48 258.5 35.5 c 128,-1,6
 286 23 286 23 319 23 c 0,7,8
 342 23 342 23 362.5 31 c 128,-1,9
 383 39 383 39 398.5 52.5 c 128,-1,10
 414 66 414 66 423 85 c 128,-1,11
 432 104 432 104 432 127 c 0,12,13
 432 155 432 155 420 175.5 c 128,-1,14
 408 196 408 196 390.5 213 c 128,-1,15
 373 230 373 230 352.5 244.5 c 128,-1,16
 332 259 332 259 314.5 275 c 128,-1,17
 297 291 297 291 285 309.5 c 128,-1,18
 273 328 273 328 273 354 c 0,19,20
 273 382 273 382 283.5 404 c 128,-1,21
 294 426 294 426 310 444 c 128,-1,22
 326 462 326 462 345 479 c 128,-1,23
 364 496 364 496 380 515 c 128,-1,24
 396 534 396 534 406.5 556 c 128,-1,25
 417 578 417 578 417 607 c 0,26,27
 417 645 417 645 398.5 670 c 128,-1,28
 380 695 380 695 336 695 c 0,29,30
 308 695 308 695 284 681.5 c 128,-1,31
 260 668 260 668 240.5 644.5 c 128,-1,32
 221 621 221 621 207 590 c 128,-1,33
 193 559 193 559 186 524 c 2,34,-1
 82 0 l 1,35,-1
 40 0 l 1,36,-1
 148 536 l 2,37,38
 156 575 156 575 173 610.5 c 128,-1,39
 190 646 190 646 214 673 c 128,-1,40
 238 700 238 700 269.5 715.5 c 128,-1,41
 301 731 301 731 339 731 c 0,42,43
 393 731 393 731 425.5 700.5 c 128,-1,44
 458 670 458 670 458 610 c 0,45,46
 458 577 458 577 447.5 552 c 128,-1,47
 437 527 437 527 421 507 c 128,-1,48
 405 487 405 487 386 470.5 c 128,-1,49
 367 454 367 454 351 437 c 128,-1,50
 335 420 335 420 324.5 402 c 128,-1,51
 314 384 314 384 314 362 c 0,52,53
 314 339 314 339 325.5 322 c 128,-1,54
 337 305 337 305 355 290.5 c 128,-1,55
 373 276 373 276 393 261.5 c 128,-1,56
 413 247 413 247 431 229.5 c 128,-1,57
 449 212 449 212 460.5 189 c 128,-1,58
 472 166 472 166 472 134 c 0,59,60
 472 104 472 104 460.5 77.5 c 128,-1,61
 449 51 449 51 428.5 31 c 128,-1,62
 408 11 408 11 380 -0.5 c 128,-1,63
 352 -12 352 -12 318 -12 c 0,0,1
EndSplineSet
EndChar

StartChar: uogonek
Encoding: 371 371 380
Width: 518
GlyphClass: 2
Flags: W
AnchorPoint: "Anchor-0" 310 504 basechar 0
LayerCount: 2
Fore
SplineSet
296 -203 m 0,0,1
 267 -203 267 -203 247.5 -187.5 c 128,-1,2
 228 -172 228 -172 228 -140 c 0,3,4
 228 -119 228 -119 237.5 -97.5 c 128,-1,5
 247 -76 247 -76 263.5 -56.5 c 128,-1,6
 280 -37 280 -37 301.5 -20 c 128,-1,7
 323 -3 323 -3 346 9 c 1,8,-1
 355 78 l 1,9,-1
 351 78 l 1,10,11
 307 40 307 40 266 14 c 128,-1,12
 225 -12 225 -12 181 -12 c 0,13,14
 119 -12 119 -12 92.5 20.5 c 128,-1,15
 66 53 66 53 66 105 c 0,16,17
 66 123 66 123 67.5 136.5 c 128,-1,18
 69 150 69 150 74 170 c 2,19,-1
 136 480 l 1,20,-1
 177 480 l 1,21,-1
 116 176 l 2,22,23
 111 154 111 154 109.5 141 c 128,-1,24
 108 128 108 128 108 114 c 0,25,26
 108 69 108 69 128 47 c 128,-1,27
 148 25 148 25 193 25 c 0,28,29
 225 25 225 25 267 49 c 128,-1,30
 309 73 309 73 363 126 c 1,31,-1
 434 480 l 1,32,-1
 475 480 l 1,33,-1
 379 0 l 1,34,35
 327 -29 327 -29 296.5 -62 c 128,-1,36
 266 -95 266 -95 266 -130 c 0,37,38
 266 -149 266 -149 276.5 -159.5 c 128,-1,39
 287 -170 287 -170 304 -170 c 0,40,41
 324 -170 324 -170 345 -158 c 1,42,-1
 356 -185 l 1,43,44
 342 -193 342 -193 326 -198 c 128,-1,45
 310 -203 310 -203 296 -203 c 0,0,1
EndSplineSet
Ligature2: "'ccmp' Glyph Composition/Decomposition in Latin lookup 6 subtable" u uni0328
EndChar

StartChar: uhorn
Encoding: 432 432 381
Width: 529
GlyphClass: 2
Flags: W
AnchorPoint: "Anchor-3" 241 -23 basechar 0
AnchorPoint: "Anchor-0" 310 504 basechar 0
LayerCount: 2
Fore
SplineSet
351 78 m 1,0,1
 307 40 307 40 266 14 c 128,-1,2
 225 -12 225 -12 181 -12 c 0,3,4
 119 -12 119 -12 92.5 20.5 c 128,-1,5
 66 53 66 53 66 105 c 0,6,7
 66 123 66 123 67.5 136.5 c 128,-1,8
 69 150 69 150 74 170 c 2,9,-1
 136 480 l 1,10,-1
 177 480 l 1,11,-1
 116 176 l 2,12,13
 111 154 111 154 109.5 141 c 128,-1,14
 108 128 108 128 108 114 c 0,15,16
 108 69 108 69 128 47 c 128,-1,17
 148 25 148 25 193 25 c 0,18,19
 225 25 225 25 267 49 c 128,-1,20
 309 73 309 73 363 126 c 1,21,-1
 434 480 l 1,22,-1
 442 480 l 2,23,24
 461 481 461 481 478.5 488.5 c 128,-1,25
 496 496 496 496 509.5 508.5 c 128,-1,26
 523 521 523 521 532 539.5 c 128,-1,27
 541 558 541 558 542 582 c 0,28,29
 544 602 544 602 536 625 c 1,30,-1
 573 641 l 1,31,32
 582 612 582 612 582 586 c 0,33,34
 582 555 582 555 570 532 c 128,-1,35
 558 509 558 509 540.5 493 c 128,-1,36
 523 477 523 477 504 467.5 c 128,-1,37
 485 458 485 458 470 455 c 1,38,-1
 379 0 l 1,39,-1
 345 0 l 1,40,-1
 355 78 l 1,41,-1
 351 78 l 1,0,1
EndSplineSet
EndChar

StartChar: eth
Encoding: 240 240 403
Width: 517
Flags: W
LayerCount: 2
Fore
SplineSet
212 -12 m 0,0,1
 176 -12 176 -12 146 2 c 128,-1,2
 116 16 116 16 94 40 c 128,-1,3
 72 64 72 64 60 96.5 c 128,-1,4
 48 129 48 129 48 166 c 0,5,6
 48 219 48 219 64.5 268.5 c 128,-1,7
 81 318 81 318 111.5 356.5 c 128,-1,8
 142 395 142 395 185 418.5 c 128,-1,9
 228 442 228 442 281 442 c 0,10,11
 321 442 321 442 354.5 420 c 128,-1,12
 388 398 388 398 413 363 c 1,13,14
 411 433 411 433 393 487 c 128,-1,15
 375 541 375 541 344 584 c 1,16,-1
 195 521 l 1,17,-1
 185 548 l 1,18,-1
 326 608 l 1,19,20
 304 634 304 634 278 655.5 c 128,-1,21
 252 677 252 677 222 697 c 1,22,-1
 243 724 l 1,23,24
 277 703 277 703 306.5 678 c 128,-1,25
 336 653 336 653 361 622 c 1,26,-1
 507 684 l 1,27,-1
 517 657 l 1,28,-1
 379 599 l 1,29,30
 414 549 414 549 434 486 c 128,-1,31
 454 423 454 423 454 342 c 0,32,33
 454 269 454 269 437 204.5 c 128,-1,34
 420 140 420 140 388.5 92 c 128,-1,35
 357 44 357 44 312 16 c 128,-1,36
 267 -12 267 -12 212 -12 c 0,0,1
218 24 m 0,37,38
 260 24 260 24 295 47.5 c 128,-1,39
 330 71 330 71 355.5 111 c 128,-1,40
 381 151 381 151 396 203.5 c 128,-1,41
 411 256 411 256 413 314 c 1,42,43
 402 332 402 332 389 348.5 c 128,-1,44
 376 365 376 365 359.5 377.5 c 128,-1,45
 343 390 343 390 324 398 c 128,-1,46
 305 406 305 406 282 406 c 0,47,48
 238 406 238 406 202.5 386 c 128,-1,49
 167 366 167 366 141.5 333 c 128,-1,50
 116 300 116 300 102 257.5 c 128,-1,51
 88 215 88 215 88 171 c 0,52,53
 88 142 88 142 96.5 115 c 128,-1,54
 105 88 105 88 121.5 68 c 128,-1,55
 138 48 138 48 162.5 36 c 128,-1,56
 187 24 187 24 218 24 c 0,37,38
EndSplineSet
EndChar

StartChar: thorn
Encoding: 254 254 404
Width: 524
GlyphClass: 2
Flags: W
AnchorPoint: "Anchor-3" 228 -22 basechar 0
AnchorPoint: "Anchor-0" 211 730 basechar 0
LayerCount: 2
Fore
SplineSet
-3 -217 m 1,0,-1
 184 719 l 1,1,-1
 225 719 l 1,2,-1
 183 510 l 1,3,-1
 162 413 l 1,4,-1
 164 413 l 1,5,6
 202 444 202 444 247 468 c 128,-1,7
 292 492 292 492 341 492 c 0,8,9
 405 492 405 492 443 448 c 128,-1,10
 481 404 481 404 481 319 c 0,11,12
 481 250 481 250 459 189.5 c 128,-1,13
 437 129 437 129 400.5 84 c 128,-1,14
 364 39 364 39 317 13.5 c 128,-1,15
 270 -12 270 -12 221 -12 c 0,16,17
 179 -12 179 -12 147.5 10 c 128,-1,18
 116 32 116 32 94 65 c 1,19,-1
 92 65 l 1,20,-1
 71 -43 l 1,21,-1
 38 -217 l 1,22,-1
 -3 -217 l 1,0,-1
221 24 m 0,23,24
 264 24 264 24 303.5 48.5 c 128,-1,25
 343 73 343 73 373.5 113.5 c 128,-1,26
 404 154 404 154 422 206 c 128,-1,27
 440 258 440 258 440 312 c 0,28,29
 440 384 440 384 411 420 c 128,-1,30
 382 456 382 456 332 456 c 0,31,32
 292 456 292 456 244 431 c 128,-1,33
 196 406 196 406 155 367 c 1,34,-1
 103 107 l 1,35,36
 129 62 129 62 158 43 c 128,-1,37
 187 24 187 24 221 24 c 0,23,24
EndSplineSet
EndChar

StartChar: uni0237
Encoding: 567 567 405
Width: 220
GlyphClass: 2
Flags: W
AnchorPoint: "Anchor-0" 164 504 basechar 0
LayerCount: 2
Fore
SplineSet
-57 -229 m 0,0,1
 -79 -229 -79 -229 -93 -224.5 c 128,-1,2
 -107 -220 -107 -220 -120 -213 c 1,3,-1
 -104 -180 l 1,4,5
 -95 -186 -95 -186 -85 -189.5 c 128,-1,6
 -75 -193 -75 -193 -57 -193 c 0,7,8
 -27 -193 -27 -193 -8.5 -166 c 128,-1,9
 10 -139 10 -139 21 -93 c 2,10,-1
 137 480 l 1,11,-1
 178 480 l 1,12,-1
 64 -88 l 2,13,14
 50 -154 50 -154 21.5 -191.5 c 128,-1,15
 -7 -229 -7 -229 -57 -229 c 0,0,1
EndSplineSet
EndChar

StartChar: uni0259
Encoding: 601 601 407
Width: 469
Flags: W
LayerCount: 2
Fore
SplineSet
425 294 m 0,0,1
 425 226 425 226 403 169.5 c 128,-1,2
 381 113 381 113 345.5 72.5 c 128,-1,3
 310 32 310 32 265.5 10 c 128,-1,4
 221 -12 221 -12 175 -12 c 0,5,6
 136 -12 136 -12 108.5 1 c 128,-1,7
 81 14 81 14 64 36.5 c 128,-1,8
 47 59 47 59 39 90 c 128,-1,9
 31 121 31 121 31 158 c 0,10,11
 31 184 31 184 35.5 208 c 128,-1,12
 40 232 40 232 46 253 c 1,13,-1
 381 253 l 1,14,15
 388 299 388 299 382 336.5 c 128,-1,16
 376 374 376 374 359.5 401 c 128,-1,17
 343 428 343 428 317 442.5 c 128,-1,18
 291 457 291 457 257 457 c 0,19,20
 222 457 222 457 191.5 445 c 128,-1,21
 161 433 161 433 133 418 c 1,22,-1
 118 450 l 1,23,24
 148 466 148 466 183 479 c 128,-1,25
 218 492 218 492 263 492 c 0,26,27
 337 492 337 492 381 441.5 c 128,-1,28
 425 391 425 391 425 294 c 0,0,1
179 24 m 256,29,30
 211 24 211 24 241.5 37.5 c 128,-1,31
 272 51 272 51 298 76.5 c 128,-1,32
 324 102 324 102 344 138 c 128,-1,33
 364 174 364 174 374 220 c 1,34,-1
 77 220 l 1,35,36
 72 204 72 204 70.5 186 c 128,-1,37
 69 168 69 168 69 152 c 0,38,39
 69 128 69 128 74 105 c 128,-1,40
 79 82 79 82 92 64 c 128,-1,41
 105 46 105 46 126 35 c 128,-1,42
 147 24 147 24 179 24 c 256,29,30
EndSplineSet
Substitution2: "'sups' Superscript in Latin lookup 12 subtable" uni0259.sups
Substitution2: "'aalt' Access All Alternates in Latin lookup 0 subtable" uni0259.sups
EndChar

StartChar: f_f
Encoding: 64256 64256 409
Width: 508
GlyphClass: 3
Flags: W
LayerCount: 2
Fore
SplineSet
299 0 m 1,0,-1
 389 444 l 1,1,-1
 177 444 l 1,2,-1
 88 0 l 1,3,-1
 47 0 l 1,4,-1
 136 444 l 1,5,-1
 73 444 l 1,6,-1
 79 476 l 1,7,-1
 143 480 l 1,8,-1
 163 580 l 2,9,10
 180 652 180 652 216.5 686.5 c 128,-1,11
 253 721 253 721 304 721 c 0,12,13
 333 721 333 721 351.5 715 c 128,-1,14
 370 709 370 709 388 701 c 1,15,-1
 370 668 l 1,16,17
 356 675 356 675 341.5 680 c 128,-1,18
 327 685 327 685 304 685 c 0,19,20
 264 685 264 685 239 654.5 c 128,-1,21
 214 624 214 624 204 580 c 2,22,-1
 184 480 l 1,23,-1
 396 480 l 1,24,-1
 418 590 l 2,25,26
 433 662 433 662 467.5 696.5 c 128,-1,27
 502 731 502 731 550 731 c 0,28,29
 575 731 575 731 591.5 725 c 128,-1,30
 608 719 608 719 624 711 c 1,31,-1
 607 678 l 1,32,33
 595 685 595 685 582 690 c 128,-1,34
 569 695 569 695 550 695 c 0,35,36
 513 695 513 695 490.5 664.5 c 128,-1,37
 468 634 468 634 459 590 c 2,38,-1
 437 480 l 1,39,-1
 542 480 l 1,40,-1
 534 444 l 1,41,-1
 430 444 l 1,42,-1
 340 0 l 1,43,-1
 299 0 l 1,0,-1
EndSplineSet
Ligature2: "'liga' Standard Ligatures in Latin lookup 24 subtable" f f
EndChar

StartChar: f_t
Encoding: 65540 -1 410
Width: 509
GlyphClass: 3
Flags: W
LayerCount: 2
Fore
SplineSet
47 0 m 1,0,-1
 136 444 l 1,1,-1
 73 444 l 1,2,-1
 79 476 l 1,3,-1
 143 480 l 1,4,-1
 165 590 l 2,5,6
 180 662 180 662 214.5 696.5 c 128,-1,7
 249 731 249 731 297 731 c 0,8,9
 322 731 322 731 338.5 725 c 128,-1,10
 355 719 355 719 372 711 c 1,11,-1
 354 678 l 1,12,13
 343 685 343 685 329.5 690 c 128,-1,14
 316 695 316 695 297 695 c 0,15,16
 261 695 261 695 238 664.5 c 128,-1,17
 215 634 215 634 206 590 c 2,18,-1
 184 480 l 1,19,-1
 361 480 l 1,20,-1
 394 617 l 1,21,-1
 429 617 l 1,22,-1
 401 480 l 1,23,-1
 531 480 l 1,24,-1
 523 444 l 1,25,-1
 393 444 l 1,26,-1
 328 129 l 2,27,28
 326 120 326 120 325 111 c 128,-1,29
 324 102 324 102 324 91 c 0,30,31
 324 58 324 58 338.5 41 c 128,-1,32
 353 24 353 24 392 24 c 0,33,34
 409 24 409 24 423.5 29.5 c 128,-1,35
 438 35 438 35 450 41 c 1,36,-1
 461 10 l 1,37,38
 447 2 447 2 427 -5 c 128,-1,39
 407 -12 407 -12 384 -12 c 0,40,41
 356 -12 356 -12 336.5 -4.5 c 128,-1,42
 317 3 317 3 305 16 c 128,-1,43
 293 29 293 29 288 46.5 c 128,-1,44
 283 64 283 64 283 83 c 0,45,46
 283 108 283 108 287 131 c 2,47,-1
 352 444 l 1,48,-1
 177 444 l 1,49,-1
 88 0 l 1,50,-1
 47 0 l 1,0,-1
EndSplineSet
Ligature2: "'liga' Standard Ligatures in Latin lookup 24 subtable" f t
EndChar

StartChar: I.a
Encoding: 65541 -1 411
Width: 227
GlyphClass: 2
Flags: W
AnchorPoint: "Anchor-1" 207 682 basechar 0
AnchorPoint: "Anchor-3" 67 -29 basechar 0
AnchorPoint: "Anchor-6" 59 0 basechar 0
LayerCount: 2
Fore
SplineSet
39 0 m 1,0,-1
 170 659 l 1,1,-1
 213 659 l 1,2,-1
 82 0 l 1,3,-1
 39 0 l 1,0,-1
EndSplineSet
EndChar

StartChar: Iogonek.a
Encoding: 65552 -1 422
Width: 299
GlyphClass: 2
Flags: W
AnchorPoint: "Anchor-1" 244 682 basechar 0
LayerCount: 2
Fore
SplineSet
66 -204 m 0,0,1
 37 -204 37 -204 17.5 -188.5 c 128,-1,2
 -2 -173 -2 -173 -2 -141 c 0,3,4
 -2 -121 -2 -121 6.5 -100.5 c 128,-1,5
 15 -80 15 -80 27.5 -61 c 128,-1,6
 40 -42 40 -42 55 -26.5 c 128,-1,7
 70 -11 70 -11 84 0 c 1,8,-1
 -8 0 l 1,9,-1
 0 37 l 1,10,-1
 84 37 l 1,11,-1
 202 622 l 1,12,-1
 116 622 l 1,13,-1
 124 659 l 1,14,-1
 340 659 l 1,15,-1
 332 622 l 1,16,-1
 245 622 l 1,17,-1
 127 37 l 1,18,-1
 215 37 l 1,19,-1
 207 0 l 1,20,-1
 121 0 l 1,21,22
 105 -13 105 -13 90 -29 c 128,-1,23
 75 -45 75 -45 63.5 -62 c 128,-1,24
 52 -79 52 -79 45 -96.5 c 128,-1,25
 38 -114 38 -114 38 -130 c 0,26,27
 38 -149 38 -149 48.5 -160 c 128,-1,28
 59 -171 59 -171 75 -171 c 0,29,30
 95 -171 95 -171 115 -159 c 1,31,-1
 127 -183 l 1,32,33
 114 -193 114 -193 96 -198.5 c 128,-1,34
 78 -204 78 -204 66 -204 c 0,0,1
EndSplineSet
EndChar

StartChar: a.a
Encoding: 65553 -1 423
Width: 479
GlyphClass: 2
Flags: W
AnchorPoint: "Anchor-5" 302 0 basechar 0
AnchorPoint: "Anchor-3" 197 -22 basechar 0
AnchorPoint: "Anchor-0" 294 504 basechar 0
LayerCount: 2
Fore
SplineSet
38 103 m 0,0,1
 38 153 38 153 61.5 188.5 c 128,-1,2
 85 224 85 224 128.5 247.5 c 128,-1,3
 172 271 172 271 233.5 282.5 c 128,-1,4
 295 294 295 294 372 296 c 1,5,6
 376 314 376 314 377.5 326.5 c 128,-1,7
 379 339 379 339 379 353 c 0,8,9
 379 411 379 411 355 433.5 c 128,-1,10
 331 456 331 456 278 456 c 0,11,12
 244 456 244 456 208 443 c 128,-1,13
 172 430 172 430 137 410 c 1,14,-1
 121 442 l 1,15,16
 156 462 156 462 198.5 477 c 128,-1,17
 241 492 241 492 283 492 c 0,18,19
 347 492 347 492 383.5 461.5 c 128,-1,20
 420 431 420 431 420 357 c 0,21,22
 420 343 420 343 417.5 325 c 128,-1,23
 415 307 415 307 412 293 c 2,24,-1
 355 0 l 1,25,-1
 320 0 l 1,26,-1
 327 61 l 1,27,-1
 325 61 l 1,28,29
 290 30 290 30 245 9 c 128,-1,30
 200 -12 200 -12 157 -12 c 0,31,32
 133 -12 133 -12 111.5 -4.5 c 128,-1,33
 90 3 90 3 73.5 17 c 128,-1,34
 57 31 57 31 47.5 52.5 c 128,-1,35
 38 74 38 74 38 103 c 0,0,1
366 263 m 1,36,37
 300 261 300 261 247 251.5 c 128,-1,38
 194 242 194 242 156.5 223 c 128,-1,39
 119 204 119 204 99 176.5 c 128,-1,40
 79 149 79 149 79 112 c 0,41,42
 79 65 79 65 105 44.5 c 128,-1,43
 131 24 131 24 170 24 c 0,44,45
 244 24 244 24 334 104 c 1,46,-1
 366 263 l 1,36,37
EndSplineSet
EndChar

StartChar: aogonek.a
Encoding: 65575 -1 445
Width: 479
GlyphClass: 2
Flags: W
AnchorPoint: "Anchor-0" 294 504 basechar 0
LayerCount: 2
Fore
SplineSet
322 9 m 1,0,-1
 327 61 l 1,1,-1
 325 61 l 1,2,3
 290 30 290 30 245 9 c 128,-1,4
 200 -12 200 -12 157 -12 c 0,5,6
 133 -12 133 -12 111.5 -4.5 c 128,-1,7
 90 3 90 3 73.5 17 c 128,-1,8
 57 31 57 31 47.5 52.5 c 128,-1,9
 38 74 38 74 38 103 c 0,10,11
 38 153 38 153 61.5 188.5 c 128,-1,12
 85 224 85 224 128.5 247.5 c 128,-1,13
 172 271 172 271 233.5 282.5 c 128,-1,14
 295 294 295 294 372 296 c 1,15,16
 376 314 376 314 377.5 326.5 c 128,-1,17
 379 339 379 339 379 353 c 0,18,19
 379 411 379 411 355 433.5 c 128,-1,20
 331 456 331 456 278 456 c 0,21,22
 244 456 244 456 208 443 c 128,-1,23
 172 430 172 430 137 410 c 1,24,-1
 121 442 l 1,25,26
 156 462 156 462 198.5 477 c 128,-1,27
 241 492 241 492 283 492 c 0,28,29
 347 492 347 492 383.5 461.5 c 128,-1,30
 420 431 420 431 420 357 c 0,31,32
 420 343 420 343 417.5 325 c 128,-1,33
 415 307 415 307 412 293 c 2,34,-1
 355 0 l 1,35,36
 302 -29 302 -29 272 -62 c 128,-1,37
 242 -95 242 -95 242 -130 c 0,38,39
 242 -149 242 -149 252.5 -159.5 c 128,-1,40
 263 -170 263 -170 279 -170 c 0,41,42
 291 -170 291 -170 300 -167 c 128,-1,43
 309 -164 309 -164 320 -158 c 1,44,-1
 332 -185 l 1,45,46
 317 -193 317 -193 301.5 -198 c 128,-1,47
 286 -203 286 -203 272 -203 c 0,48,49
 242 -203 242 -203 222.5 -187.5 c 128,-1,50
 203 -172 203 -172 203 -140 c 0,51,52
 203 -119 203 -119 213 -97.5 c 128,-1,53
 223 -76 223 -76 239.5 -56.5 c 128,-1,54
 256 -37 256 -37 277.5 -20 c 128,-1,55
 299 -3 299 -3 322 9 c 1,0,-1
366 263 m 1,56,57
 300 261 300 261 247 251.5 c 128,-1,58
 194 242 194 242 156.5 223 c 128,-1,59
 119 204 119 204 99 176.5 c 128,-1,60
 79 149 79 149 79 112 c 0,61,62
 79 65 79 65 105 44.5 c 128,-1,63
 131 24 131 24 170 24 c 0,64,65
 244 24 244 24 334 104 c 1,66,-1
 366 263 l 1,56,57
EndSplineSet
EndChar

StartChar: g.a
Encoding: 65576 -1 446
Width: 462
GlyphClass: 2
Flags: W
AnchorPoint: "Anchor-3" 158 -230 basechar 0
AnchorPoint: "Anchor-0" 278 504 basechar 0
LayerCount: 2
Fore
SplineSet
158 -231 m 0,0,1
 127 -231 127 -231 97.5 -224.5 c 128,-1,2
 68 -218 68 -218 44.5 -203.5 c 128,-1,3
 21 -189 21 -189 6.5 -167 c 128,-1,4
 -8 -145 -8 -145 -8 -115 c 0,5,6
 -8 -90 -8 -90 4 -68.5 c 128,-1,7
 16 -47 16 -47 34.5 -30 c 128,-1,8
 53 -13 53 -13 75 0.5 c 128,-1,9
 97 14 97 14 117 24 c 1,10,-1
 117 26 l 1,11,12
 100 36 100 36 91.5 53.5 c 128,-1,13
 83 71 83 71 83 89 c 0,14,15
 83 134 83 134 134 176 c 1,16,-1
 134 180 l 1,17,18
 114 197 114 197 100.5 224.5 c 128,-1,19
 87 252 87 252 87 284 c 0,20,21
 87 328 87 328 101.5 366 c 128,-1,22
 116 404 116 404 142 432 c 128,-1,23
 168 460 168 460 204 476 c 128,-1,24
 240 492 240 492 282 492 c 0,25,26
 299 492 299 492 311 489 c 128,-1,27
 323 486 323 486 336 480 c 1,28,-1
 491 480 l 1,29,-1
 484 445 l 1,30,-1
 375 445 l 1,31,32
 390 428 390 428 398.5 404.5 c 128,-1,33
 407 381 407 381 407 360 c 0,34,35
 407 316 407 316 392.5 278 c 128,-1,36
 378 240 378 240 352.5 212.5 c 128,-1,37
 327 185 327 185 291 169 c 128,-1,38
 255 153 255 153 213 153 c 0,39,40
 183 153 183 153 161 164 c 1,41,42
 147 153 147 153 134.5 135.5 c 128,-1,43
 122 118 122 118 122 98 c 0,44,45
 122 69 122 69 144 55 c 128,-1,46
 166 41 166 41 223 35 c 0,47,48
 309 25 309 25 345 0 c 128,-1,49
 381 -25 381 -25 381 -73 c 0,50,51
 381 -112 381 -112 362.5 -141.5 c 128,-1,52
 344 -171 344 -171 313.5 -191 c 128,-1,53
 283 -211 283 -211 242.5 -221 c 128,-1,54
 202 -231 202 -231 158 -231 c 0,0,1
218 186 m 0,55,56
 250 186 250 186 277.5 200 c 128,-1,57
 305 214 305 214 325.5 237 c 128,-1,58
 346 260 346 260 357.5 289.5 c 128,-1,59
 369 319 369 319 369 351 c 0,60,61
 369 399 369 399 344.5 428.5 c 128,-1,62
 320 458 320 458 278 458 c 0,63,64
 246 458 246 458 218 444 c 128,-1,65
 190 430 190 430 170 407 c 128,-1,66
 150 384 150 384 138.5 354 c 128,-1,67
 127 324 127 324 127 292 c 0,68,69
 127 244 127 244 151 215 c 128,-1,70
 175 186 175 186 218 186 c 0,55,56
161 -198 m 0,71,72
 199 -198 199 -198 231.5 -189 c 128,-1,73
 264 -180 264 -180 288 -164 c 128,-1,74
 312 -148 312 -148 326 -127 c 128,-1,75
 340 -106 340 -106 340 -82 c 0,76,77
 340 -46 340 -46 308 -28 c 128,-1,78
 276 -10 276 -10 204 -2 c 0,79,80
 190 0 190 0 174.5 2.5 c 128,-1,81
 159 5 159 5 144 8 c 1,82,83
 126 0 126 0 105.5 -12 c 128,-1,84
 85 -24 85 -24 68.5 -39 c 128,-1,85
 52 -54 52 -54 41 -71.5 c 128,-1,86
 30 -89 30 -89 30 -107 c 0,87,88
 30 -131 30 -131 41 -148 c 128,-1,89
 52 -165 52 -165 70 -176.5 c 128,-1,90
 88 -188 88 -188 111.5 -193 c 128,-1,91
 135 -198 135 -198 161 -198 c 0,71,72
EndSplineSet
EndChar

StartChar: l.a
Encoding: 65584 -1 454
Width: 222
GlyphClass: 2
Flags: W
AnchorPoint: "Anchor-3" 63 -22 basechar 0
AnchorPoint: "Anchor-0" 209 730 basechar 0
LayerCount: 2
Fore
SplineSet
40 0 m 1,0,-1
 184 719 l 1,1,-1
 225 719 l 1,2,-1
 82 0 l 1,3,-1
 40 0 l 1,0,-1
EndSplineSet
EndChar

StartChar: lslash.a
Encoding: 65592 -1 462
Width: 224
Flags: W
LayerCount: 2
Fore
SplineSet
51 327 m 1,0,-1
 39 356 l 1,1,-1
 122 406 l 1,2,-1
 185 719 l 1,3,-1
 226 719 l 1,4,-1
 168 429 l 1,5,-1
 241 473 l 1,6,-1
 254 444 l 1,7,-1
 160 387 l 1,8,-1
 83 0 l 1,9,-1
 41 0 l 1,10,-1
 114 364 l 1,11,-1
 51 327 l 1,0,-1
EndSplineSet
EndChar

StartChar: ampersand
Encoding: 38 38 463
Width: 553
Flags: W
LayerCount: 2
Fore
SplineSet
168 -12 m 0,0,1
 135 -12 135 -12 107 -1.5 c 128,-1,2
 79 9 79 9 59 28 c 128,-1,3
 39 47 39 47 27.5 74.5 c 128,-1,4
 16 102 16 102 16 136 c 0,5,6
 16 176 16 176 30.5 209 c 128,-1,7
 45 242 45 242 69.5 269.5 c 128,-1,8
 94 297 94 297 125 320.5 c 128,-1,9
 156 344 156 344 189 365 c 1,10,11
 172 425 172 425 172 480 c 0,12,13
 172 523 172 523 185 558.5 c 128,-1,14
 198 594 198 594 220 619 c 128,-1,15
 242 644 242 644 270.5 657.5 c 128,-1,16
 299 671 299 671 330 671 c 0,17,18
 354 671 354 671 371 663.5 c 128,-1,19
 388 656 388 656 399.5 643 c 128,-1,20
 411 630 411 630 416.5 613.5 c 128,-1,21
 422 597 422 597 422 578 c 0,22,23
 422 539 422 539 405.5 507.5 c 128,-1,24
 389 476 389 476 362.5 449 c 128,-1,25
 336 422 336 422 302.5 398.5 c 128,-1,26
 269 375 269 375 234 353 c 1,27,28
 254 290 254 290 288 230 c 128,-1,29
 322 170 322 170 364 123 c 1,30,31
 409 169 409 169 443 224.5 c 128,-1,32
 477 280 477 280 507 344 c 1,33,-1
 547 344 l 1,34,35
 515 275 515 275 475.5 212 c 128,-1,36
 436 149 436 149 388 98 c 1,37,38
 415 72 415 72 440.5 52 c 128,-1,39
 466 32 466 32 491 22 c 1,40,-1
 472 -12 l 1,41,42
 420 9 420 9 358 69 c 1,43,44
 316 31 316 31 268.5 9.5 c 128,-1,45
 221 -12 221 -12 168 -12 c 0,0,1
211 484 m 0,46,47
 211 461 211 461 214.5 436.5 c 128,-1,48
 218 412 218 412 224 387 c 1,49,50
 255 406 255 406 284 426 c 128,-1,51
 313 446 313 446 335 468 c 128,-1,52
 357 490 357 490 370.5 515.5 c 128,-1,53
 384 541 384 541 384 572 c 0,54,55
 384 598 384 598 371 617.5 c 128,-1,56
 358 637 358 637 327 637 c 0,57,58
 302 637 302 637 280.5 625.5 c 128,-1,59
 259 614 259 614 243.5 593.5 c 128,-1,60
 228 573 228 573 219.5 545 c 128,-1,61
 211 517 211 517 211 484 c 0,46,47
177 23 m 0,62,63
 218 23 218 23 258.5 43 c 128,-1,64
 299 63 299 63 335 95 c 1,65,66
 293 143 293 143 257.5 204 c 128,-1,67
 222 265 222 265 200 330 c 1,68,69
 171 311 171 311 145.5 291 c 128,-1,70
 120 271 120 271 100.5 248.5 c 128,-1,71
 81 226 81 226 69.5 200 c 128,-1,72
 58 174 58 174 58 143 c 0,73,74
 58 89 58 89 91.5 56 c 128,-1,75
 125 23 125 23 177 23 c 0,62,63
EndSplineSet
EndChar

StartChar: zero
Encoding: 48 48 464
Width: 462
Flags: W
LayerCount: 2
Fore
SplineSet
190 -12 m 0,0,1
 152 -12 152 -12 124.5 5.5 c 128,-1,2
 97 23 97 23 79.5 52 c 128,-1,3
 62 81 62 81 53.5 119 c 128,-1,4
 45 157 45 157 45 198 c 0,5,6
 45 278 45 278 64.5 359 c 128,-1,7
 84 440 84 440 118 505 c 128,-1,8
 152 570 152 570 198.5 610.5 c 128,-1,9
 245 651 245 651 299 651 c 0,10,11
 336 651 336 651 363 633 c 128,-1,12
 390 615 390 615 408 585.5 c 128,-1,13
 426 556 426 556 434.5 517.5 c 128,-1,14
 443 479 443 479 443 439 c 0,15,16
 443 359 443 359 424 278.5 c 128,-1,17
 405 198 405 198 371 133.5 c 128,-1,18
 337 69 337 69 290.5 28.5 c 128,-1,19
 244 -12 244 -12 190 -12 c 0,0,1
191 24 m 0,20,21
 221 24 221 24 248.5 42 c 128,-1,22
 276 60 276 60 299.5 91 c 128,-1,23
 323 122 323 122 342 163 c 128,-1,24
 361 204 361 204 374.5 249.5 c 128,-1,25
 388 295 388 295 395.5 343 c 128,-1,26
 403 391 403 391 403 435 c 0,27,28
 403 471 403 471 397 504 c 128,-1,29
 391 537 391 537 378 561.5 c 128,-1,30
 365 586 365 586 344.5 601 c 128,-1,31
 324 616 324 616 296 616 c 0,32,33
 251 616 251 616 212 576 c 128,-1,34
 173 536 173 536 145 475 c 128,-1,35
 117 414 117 414 101 341 c 128,-1,36
 85 268 85 268 85 202 c 0,37,38
 85 167 85 167 91 134.5 c 128,-1,39
 97 102 97 102 110 77.5 c 128,-1,40
 123 53 123 53 143 38.5 c 128,-1,41
 163 24 163 24 191 24 c 0,20,21
EndSplineSet
Substitution2: "'zero' Slashed Zero in Latin lookup 18 subtable" zero.0
Substitution2: "'ss05' Style Set 5 in Latin lookup 17 subtable" zero.0s
Substitution2: "'onum' Oldstyle Figures in Latin lookup 16 subtable" zero.tnum
Substitution2: "'pnum' Proportional Numbers in Latin lookup 15 subtable" zero.pnum
Substitution2: "'subs' Subscript in Latin lookup 14 subtable" zero.subs
Substitution2: "'sups' Superscript in Latin lookup 13 subtable" zero.sups
Substitution2: "'dnom' Denominators in Latin lookup 9 subtable" zero.dnom
Substitution2: "'numr' Numerators in Latin lookup 8 subtable" zero.numr
AlternateSubs2: "'aalt' Access All Alternates in Latin lookup 1 subtable" zero.numr zero.dnom zero.sups zero.subs zero.pnum zero.tnum
EndChar

StartChar: one
Encoding: 49 49 465
Width: 462
Flags: W
LayerCount: 2
Fore
SplineSet
30 0 m 1,0,-1
 38 36 l 1,1,-1
 181 36 l 1,2,-1
 289 571 l 1,3,-1
 176 571 l 1,4,-1
 182 599 l 1,5,6
 220 604 220 604 253 614.5 c 128,-1,7
 286 625 286 625 310 639 c 1,8,-1
 344 639 l 1,9,-1
 222 36 l 1,10,-1
 359 36 l 1,11,-1
 353 0 l 1,12,-1
 30 0 l 1,0,-1
EndSplineSet
Substitution2: "'onum' Oldstyle Figures in Latin lookup 16 subtable" one.tnum
Substitution2: "'pnum' Proportional Numbers in Latin lookup 15 subtable" one.pnum
Substitution2: "'subs' Subscript in Latin lookup 14 subtable" one.subs
Substitution2: "'sups' Superscript in Latin lookup 13 subtable" one.sups
Substitution2: "'dnom' Denominators in Latin lookup 9 subtable" one.dnom
Substitution2: "'numr' Numerators in Latin lookup 8 subtable" one.numr
AlternateSubs2: "'aalt' Access All Alternates in Latin lookup 1 subtable" one.numr one.dnom one.sups one.subs one.pnum one.tnum
EndChar

StartChar: two
Encoding: 50 50 466
Width: 462
Flags: W
LayerCount: 2
Fore
SplineSet
-9 0 m 1,0,-1
 -5 27 l 1,1,2
 101 118 101 118 177 184.5 c 128,-1,3
 253 251 253 251 301.5 303.5 c 128,-1,4
 350 356 350 356 372.5 401 c 128,-1,5
 395 446 395 446 395 495 c 0,6,7
 395 520 395 520 388 541.5 c 128,-1,8
 381 563 381 563 366 579.5 c 128,-1,9
 351 596 351 596 328.5 605.5 c 128,-1,10
 306 615 306 615 275 615 c 0,11,12
 240 615 240 615 202.5 597.5 c 128,-1,13
 165 580 165 580 129 544 c 1,14,-1
 105 573 l 1,15,16
 148 610 148 610 189.5 630.5 c 128,-1,17
 231 651 231 651 279 651 c 0,18,19
 356 651 356 651 396 608.5 c 128,-1,20
 436 566 436 566 436 502 c 0,21,22
 436 447 436 447 414 398.5 c 128,-1,23
 392 350 392 350 346 297.5 c 128,-1,24
 300 245 300 245 230 182.5 c 128,-1,25
 160 120 160 120 64 37 c 1,26,-1
 374 37 l 1,27,-1
 368 0 l 1,28,-1
 -9 0 l 1,0,-1
EndSplineSet
Substitution2: "'onum' Oldstyle Figures in Latin lookup 16 subtable" two.tnum
Substitution2: "'pnum' Proportional Numbers in Latin lookup 15 subtable" two.pnum
Substitution2: "'subs' Subscript in Latin lookup 14 subtable" two.subs
Substitution2: "'sups' Superscript in Latin lookup 13 subtable" two.sups
Substitution2: "'dnom' Denominators in Latin lookup 9 subtable" two.dnom
Substitution2: "'numr' Numerators in Latin lookup 8 subtable" two.numr
AlternateSubs2: "'aalt' Access All Alternates in Latin lookup 1 subtable" two.numr two.dnom two.sups two.subs two.pnum two.tnum
EndChar

StartChar: three
Encoding: 51 51 467
Width: 462
Flags: W
LayerCount: 2
Fore
SplineSet
177 -12 m 0,0,1
 143 -12 143 -12 115 -2 c 128,-1,2
 87 8 87 8 64 23.5 c 128,-1,3
 41 39 41 39 24 58 c 128,-1,4
 7 77 7 77 -5 95 c 1,5,-1
 24 118 l 1,6,7
 36 101 36 101 51 84.5 c 128,-1,8
 66 68 66 68 85 54.5 c 128,-1,9
 104 41 104 41 128 32.5 c 128,-1,10
 152 24 152 24 181 24 c 0,11,12
 220 24 220 24 253 36 c 128,-1,13
 286 48 286 48 310 69.5 c 128,-1,14
 334 91 334 91 347.5 120 c 128,-1,15
 361 149 361 149 361 183 c 0,16,17
 361 211 361 211 349.5 235.5 c 128,-1,18
 338 260 338 260 314 278 c 128,-1,19
 290 296 290 296 251.5 306 c 128,-1,20
 213 316 213 316 159 316 c 1,21,-1
 167 351 l 1,22,23
 232 351 232 351 276.5 365.5 c 128,-1,24
 321 380 321 380 348 402 c 128,-1,25
 375 424 375 424 387 451 c 128,-1,26
 399 478 399 478 399 502 c 0,27,28
 399 552 399 552 371.5 583.5 c 128,-1,29
 344 615 344 615 284 615 c 0,30,31
 251 615 251 615 211.5 599.5 c 128,-1,32
 172 584 172 584 145 558 c 1,33,-1
 121 588 l 1,34,35
 157 617 157 617 200.5 634 c 128,-1,36
 244 651 244 651 289 651 c 0,37,38
 365 651 365 651 402.5 612.5 c 128,-1,39
 440 574 440 574 440 510 c 0,40,41
 440 448 440 448 399.5 400 c 128,-1,42
 359 352 359 352 285 333 c 1,43,-1
 285 329 l 1,44,45
 338 313 338 313 370 277 c 128,-1,46
 402 241 402 241 402 188 c 0,47,48
 402 143 402 143 385.5 106.5 c 128,-1,49
 369 70 369 70 339 43.5 c 128,-1,50
 309 17 309 17 267.5 2.5 c 128,-1,51
 226 -12 226 -12 177 -12 c 0,0,1
EndSplineSet
Substitution2: "'onum' Oldstyle Figures in Latin lookup 16 subtable" three.tnum
Substitution2: "'pnum' Proportional Numbers in Latin lookup 15 subtable" three.pnum
Substitution2: "'subs' Subscript in Latin lookup 14 subtable" three.subs
Substitution2: "'sups' Superscript in Latin lookup 13 subtable" three.sups
Substitution2: "'dnom' Denominators in Latin lookup 9 subtable" three.dnom
Substitution2: "'numr' Numerators in Latin lookup 8 subtable" three.numr
AlternateSubs2: "'aalt' Access All Alternates in Latin lookup 1 subtable" three.numr three.dnom three.sups three.subs three.pnum three.tnum
EndChar

StartChar: four
Encoding: 52 52 468
Width: 462
Flags: W
LayerCount: 2
Fore
SplineSet
287 0 m 1,0,-1
 247 0 l 1,1,-1
 285 189 l 1,2,-1
 8 189 l 1,3,-1
 12 215 l 1,4,-1
 377 639 l 1,5,-1
 415 639 l 1,6,-1
 332 225 l 1,7,-1
 421 225 l 1,8,-1
 414 189 l 1,9,-1
 325 189 l 1,10,-1
 287 0 l 1,0,-1
67 225 m 1,11,-1
 292 225 l 1,12,-1
 339 458 l 2,13,14
 344 483 344 483 351.5 514 c 128,-1,15
 359 545 359 545 367 577 c 1,16,-1
 363 577 l 1,17,18
 343 550 343 550 322.5 525.5 c 128,-1,19
 302 501 302 501 284 479 c 2,20,-1
 67 225 l 1,11,-1
EndSplineSet
Substitution2: "'onum' Oldstyle Figures in Latin lookup 16 subtable" four.tnum
Substitution2: "'pnum' Proportional Numbers in Latin lookup 15 subtable" four.pnum
Substitution2: "'subs' Subscript in Latin lookup 14 subtable" four.subs
Substitution2: "'sups' Superscript in Latin lookup 13 subtable" four.sups
Substitution2: "'dnom' Denominators in Latin lookup 9 subtable" four.dnom
Substitution2: "'numr' Numerators in Latin lookup 8 subtable" four.numr
AlternateSubs2: "'aalt' Access All Alternates in Latin lookup 1 subtable" four.numr four.dnom four.sups four.subs four.pnum four.tnum
EndChar

StartChar: five
Encoding: 53 53 469
Width: 462
Flags: W
LayerCount: 2
Fore
SplineSet
174 -12 m 0,0,1
 139 -12 139 -12 111.5 -2.5 c 128,-1,2
 84 7 84 7 62 22 c 128,-1,3
 40 37 40 37 24 55.5 c 128,-1,4
 8 74 8 74 -3 93 c 1,5,-1
 27 116 l 1,6,7
 37 100 37 100 50 83.5 c 128,-1,8
 63 67 63 67 80.5 54 c 128,-1,9
 98 41 98 41 122 32.5 c 128,-1,10
 146 24 146 24 179 24 c 0,11,12
 215 24 215 24 248.5 38.5 c 128,-1,13
 282 53 282 53 307.5 79.5 c 128,-1,14
 333 106 333 106 348.5 143 c 128,-1,15
 364 180 364 180 364 225 c 0,16,17
 364 297 364 297 328 331.5 c 128,-1,18
 292 366 292 366 232 366 c 0,19,20
 197 366 197 366 172 357 c 128,-1,21
 147 348 147 348 117 331 c 1,22,-1
 95 348 l 1,23,-1
 175 639 l 1,24,-1
 450 639 l 1,25,-1
 442 603 l 1,26,-1
 204 603 l 1,27,-1
 142 377 l 1,28,29
 161 387 161 387 185 394 c 128,-1,30
 209 401 209 401 239 401 c 0,31,32
 311 401 311 401 358 359 c 128,-1,33
 405 317 405 317 405 233 c 0,34,35
 405 177 405 177 386 132 c 128,-1,36
 367 87 367 87 335.5 55 c 128,-1,37
 304 23 304 23 262 5.5 c 128,-1,38
 220 -12 220 -12 174 -12 c 0,0,1
EndSplineSet
Substitution2: "'onum' Oldstyle Figures in Latin lookup 16 subtable" five.tnum
Substitution2: "'pnum' Proportional Numbers in Latin lookup 15 subtable" five.pnum
Substitution2: "'subs' Subscript in Latin lookup 14 subtable" five.subs
Substitution2: "'sups' Superscript in Latin lookup 13 subtable" five.sups
Substitution2: "'dnom' Denominators in Latin lookup 9 subtable" five.dnom
Substitution2: "'numr' Numerators in Latin lookup 8 subtable" five.numr
AlternateSubs2: "'aalt' Access All Alternates in Latin lookup 1 subtable" five.numr five.dnom five.sups five.subs five.pnum five.tnum
EndChar

StartChar: six
Encoding: 54 54 470
Width: 462
Flags: W
LayerCount: 2
Fore
SplineSet
216 -12 m 0,0,1
 178 -12 178 -12 147.5 4 c 128,-1,2
 117 20 117 20 96 48 c 128,-1,3
 75 76 75 76 63.5 114.5 c 128,-1,4
 52 153 52 153 52 198 c 0,5,6
 52 295 52 295 74 378 c 128,-1,7
 96 461 96 461 134 522 c 128,-1,8
 172 583 172 583 224.5 617 c 128,-1,9
 277 651 277 651 338 651 c 0,10,11
 386 651 386 651 416 629.5 c 128,-1,12
 446 608 446 608 466 574 c 1,13,-1
 435 551 l 1,14,15
 417 583 417 583 393 599 c 128,-1,16
 369 615 369 615 335 615 c 0,17,18
 293 615 293 615 254.5 591.5 c 128,-1,19
 216 568 216 568 184.5 526 c 128,-1,20
 153 484 153 484 131 426 c 128,-1,21
 109 368 109 368 99 300 c 1,22,23
 134 341 134 341 178 360.5 c 128,-1,24
 222 380 222 380 258 380 c 0,25,26
 331 380 331 380 371.5 334 c 128,-1,27
 412 288 412 288 412 214 c 0,28,29
 412 167 412 167 396.5 126 c 128,-1,30
 381 85 381 85 354.5 54 c 128,-1,31
 328 23 328 23 292.5 5.5 c 128,-1,32
 257 -12 257 -12 216 -12 c 0,0,1
219 23 m 256,33,34
 249 23 249 23 277 38 c 128,-1,35
 305 53 305 53 326 78 c 128,-1,36
 347 103 347 103 359.5 135.5 c 128,-1,37
 372 168 372 168 372 204 c 0,38,39
 372 268 372 268 342 306 c 128,-1,40
 312 344 312 344 252 344 c 0,41,42
 239 344 239 344 221 340 c 128,-1,43
 203 336 203 336 182 326 c 128,-1,44
 161 316 161 316 138 298.5 c 128,-1,45
 115 281 115 281 94 254 c 1,46,47
 93 241 93 241 92.5 228.5 c 128,-1,48
 92 216 92 216 92 202 c 0,49,50
 92 163 92 163 100.5 130 c 128,-1,51
 109 97 109 97 125.5 73.5 c 128,-1,52
 142 50 142 50 165.5 36.5 c 128,-1,53
 189 23 189 23 219 23 c 256,33,34
EndSplineSet
Substitution2: "'onum' Oldstyle Figures in Latin lookup 16 subtable" six.tnum
Substitution2: "'pnum' Proportional Numbers in Latin lookup 15 subtable" six.pnum
Substitution2: "'subs' Subscript in Latin lookup 14 subtable" six.subs
Substitution2: "'sups' Superscript in Latin lookup 13 subtable" six.sups
Substitution2: "'dnom' Denominators in Latin lookup 9 subtable" six.dnom
Substitution2: "'numr' Numerators in Latin lookup 8 subtable" six.numr
AlternateSubs2: "'aalt' Access All Alternates in Latin lookup 1 subtable" six.numr six.dnom six.sups six.subs six.pnum six.tnum
EndChar

StartChar: seven
Encoding: 55 55 471
Width: 462
Flags: W
LayerCount: 2
Fore
SplineSet
132 0 m 1,0,1
 153 94 153 94 178.5 175 c 128,-1,2
 204 256 204 256 240 329 c 128,-1,3
 276 402 276 402 324.5 469.5 c 128,-1,4
 373 537 373 537 440 603 c 1,5,-1
 112 603 l 1,6,-1
 120 639 l 1,7,-1
 498 639 l 1,8,-1
 493 611 l 1,9,10
 418 539 418 539 366 468 c 128,-1,11
 314 397 314 397 278 322.5 c 128,-1,12
 242 248 242 248 218.5 168.5 c 128,-1,13
 195 89 195 89 177 0 c 1,14,-1
 132 0 l 1,0,1
EndSplineSet
Substitution2: "'onum' Oldstyle Figures in Latin lookup 16 subtable" seven.tnum
Substitution2: "'pnum' Proportional Numbers in Latin lookup 15 subtable" seven.pnum
Substitution2: "'subs' Subscript in Latin lookup 14 subtable" seven.subs
Substitution2: "'sups' Superscript in Latin lookup 13 subtable" seven.sups
Substitution2: "'dnom' Denominators in Latin lookup 9 subtable" seven.dnom
Substitution2: "'numr' Numerators in Latin lookup 8 subtable" seven.numr
AlternateSubs2: "'aalt' Access All Alternates in Latin lookup 1 subtable" seven.numr seven.dnom seven.sups seven.subs seven.pnum seven.tnum
EndChar

StartChar: eight
Encoding: 56 56 472
Width: 462
Flags: W
LayerCount: 2
Fore
SplineSet
215 -12 m 0,0,1
 180 -12 180 -12 147.5 -1.5 c 128,-1,2
 115 9 115 9 90 29.5 c 128,-1,3
 65 50 65 50 49.5 81 c 128,-1,4
 34 112 34 112 34 154 c 0,5,6
 34 192 34 192 47 223 c 128,-1,7
 60 254 60 254 82 279 c 128,-1,8
 104 304 104 304 132 322.5 c 128,-1,9
 160 341 160 341 190 355 c 1,10,-1
 190 359 l 1,11,12
 161 386 161 386 146.5 414.5 c 128,-1,13
 132 443 132 443 132 483 c 256,14,15
 132 523 132 523 146.5 554 c 128,-1,16
 161 585 161 585 185 606.5 c 128,-1,17
 209 628 209 628 240.5 639.5 c 128,-1,18
 272 651 272 651 307 651 c 0,19,20
 336 651 336 651 363 642 c 128,-1,21
 390 633 390 633 410.5 614.5 c 128,-1,22
 431 596 431 596 443.5 568.5 c 128,-1,23
 456 541 456 541 456 505 c 0,24,25
 456 472 456 472 446.5 444.5 c 128,-1,26
 437 417 437 417 419.5 394.5 c 128,-1,27
 402 372 402 372 378.5 353.5 c 128,-1,28
 355 335 355 335 328 319 c 1,29,-1
 328 315 l 1,30,31
 340 306 340 306 356 292.5 c 128,-1,32
 372 279 372 279 385.5 261 c 128,-1,33
 399 243 399 243 408.5 221 c 128,-1,34
 418 199 418 199 418 173 c 0,35,36
 418 130 418 130 401.5 95.5 c 128,-1,37
 385 61 385 61 357.5 37 c 128,-1,38
 330 13 330 13 293 0.5 c 128,-1,39
 256 -12 256 -12 215 -12 c 0,0,1
299 334 m 1,40,41
 321 347 321 347 342.5 364 c 128,-1,42
 364 381 364 381 380.5 402 c 128,-1,43
 397 423 397 423 407 447.5 c 128,-1,44
 417 472 417 472 417 501 c 0,45,46
 417 529 417 529 408 550.5 c 128,-1,47
 399 572 399 572 383 587 c 128,-1,48
 367 602 367 602 346.5 609.5 c 128,-1,49
 326 617 326 617 304 617 c 0,50,51
 278 617 278 617 254 608 c 128,-1,52
 230 599 230 599 211.5 582 c 128,-1,53
 193 565 193 565 182 541 c 128,-1,54
 171 517 171 517 171 486 c 0,55,56
 171 457 171 457 180 434.5 c 128,-1,57
 189 412 189 412 205.5 394.5 c 128,-1,58
 222 377 222 377 246 362.5 c 128,-1,59
 270 348 270 348 299 334 c 1,40,41
216 22 m 0,60,61
 246 22 246 22 275.5 31.5 c 128,-1,62
 305 41 305 41 327.5 60 c 128,-1,63
 350 79 350 79 364 105.5 c 128,-1,64
 378 132 378 132 378 167 c 0,65,66
 378 200 378 200 364 224.5 c 128,-1,67
 350 249 350 249 327.5 268.5 c 128,-1,68
 305 288 305 288 275 304.5 c 128,-1,69
 245 321 245 321 214 338 c 1,70,71
 183 321 183 321 157.5 303 c 128,-1,72
 132 285 132 285 113.5 263.5 c 128,-1,73
 95 242 95 242 84.5 216 c 128,-1,74
 74 190 74 190 74 158 c 0,75,76
 74 125 74 125 86 99.5 c 128,-1,77
 98 74 98 74 117.5 56.5 c 128,-1,78
 137 39 137 39 163 30.5 c 128,-1,79
 189 22 189 22 216 22 c 0,60,61
EndSplineSet
Substitution2: "'onum' Oldstyle Figures in Latin lookup 16 subtable" eight.tnum
Substitution2: "'pnum' Proportional Numbers in Latin lookup 15 subtable" eight.pnum
Substitution2: "'subs' Subscript in Latin lookup 14 subtable" eight.subs
Substitution2: "'sups' Superscript in Latin lookup 13 subtable" eight.sups
Substitution2: "'dnom' Denominators in Latin lookup 9 subtable" eight.dnom
Substitution2: "'numr' Numerators in Latin lookup 8 subtable" eight.numr
AlternateSubs2: "'aalt' Access All Alternates in Latin lookup 1 subtable" eight.numr eight.dnom eight.sups eight.subs eight.pnum eight.tnum
EndChar

StartChar: nine
Encoding: 57 57 473
Width: 462
Flags: W
LayerCount: 2
Fore
SplineSet
237 295 m 0,0,1
 250 295 250 295 269 299 c 128,-1,2
 288 303 288 303 309.5 313.5 c 128,-1,3
 331 324 331 324 353 342 c 128,-1,4
 375 360 375 360 395 387 c 1,5,6
 396 400 396 400 396.5 412.5 c 128,-1,7
 397 425 397 425 397 438 c 0,8,9
 397 477 397 477 388.5 509.5 c 128,-1,10
 380 542 380 542 363.5 565.5 c 128,-1,11
 347 589 347 589 323.5 602.5 c 128,-1,12
 300 616 300 616 270 616 c 256,13,14
 240 616 240 616 212 601 c 128,-1,15
 184 586 184 586 162.5 561 c 128,-1,16
 141 536 141 536 128.5 503.5 c 128,-1,17
 116 471 116 471 116 436 c 0,18,19
 116 371 116 371 146.5 333 c 128,-1,20
 177 295 177 295 237 295 c 0,0,1
150 -12 m 0,21,22
 103 -12 103 -12 72.5 9.5 c 128,-1,23
 42 31 42 31 22 65 c 1,24,-1
 54 88 l 1,25,26
 71 56 71 56 95 40 c 128,-1,27
 119 24 119 24 153 24 c 0,28,29
 195 24 195 24 234 47.5 c 128,-1,30
 273 71 273 71 304.5 113 c 128,-1,31
 336 155 336 155 358 213 c 128,-1,32
 380 271 380 271 390 339 c 1,33,34
 355 298 355 298 311 278.5 c 128,-1,35
 267 259 267 259 231 259 c 0,36,37
 158 259 158 259 117 305 c 128,-1,38
 76 351 76 351 76 425 c 0,39,40
 76 472 76 472 91.5 513.5 c 128,-1,41
 107 555 107 555 133.5 585.5 c 128,-1,42
 160 616 160 616 195.5 633.5 c 128,-1,43
 231 651 231 651 272 651 c 0,44,45
 311 651 311 651 341.5 635.5 c 128,-1,46
 372 620 372 620 393 592 c 128,-1,47
 414 564 414 564 425.5 525.5 c 128,-1,48
 437 487 437 487 437 441 c 0,49,50
 437 343 437 343 415 260.5 c 128,-1,51
 393 178 393 178 354.5 117 c 128,-1,52
 316 56 316 56 263.5 22 c 128,-1,53
 211 -12 211 -12 150 -12 c 0,21,22
EndSplineSet
Substitution2: "'onum' Oldstyle Figures in Latin lookup 16 subtable" nine.tnum
Substitution2: "'pnum' Proportional Numbers in Latin lookup 15 subtable" nine.pnum
Substitution2: "'subs' Subscript in Latin lookup 14 subtable" nine.subs
Substitution2: "'sups' Superscript in Latin lookup 13 subtable" nine.sups
Substitution2: "'dnom' Denominators in Latin lookup 9 subtable" nine.dnom
Substitution2: "'numr' Numerators in Latin lookup 8 subtable" nine.numr
AlternateSubs2: "'aalt' Access All Alternates in Latin lookup 1 subtable" nine.numr nine.dnom nine.sups nine.subs nine.pnum nine.tnum
EndChar

StartChar: zero.pnum
Encoding: 65593 -1 474
Width: 482
Flags: W
LayerCount: 2
Fore
SplineSet
200 -12 m 0,0,1
 159 -12 159 -12 130 6 c 128,-1,2
 101 24 101 24 82 53.5 c 128,-1,3
 63 83 63 83 54 120.5 c 128,-1,4
 45 158 45 158 45 198 c 0,5,6
 45 278 45 278 65 359 c 128,-1,7
 85 440 85 440 120.5 505 c 128,-1,8
 156 570 156 570 204 610.5 c 128,-1,9
 252 651 252 651 309 651 c 0,10,11
 349 651 349 651 378 632.5 c 128,-1,12
 407 614 407 614 426 584 c 128,-1,13
 445 554 445 554 454 516 c 128,-1,14
 463 478 463 478 463 439 c 0,15,16
 463 359 463 359 443 278.5 c 128,-1,17
 423 198 423 198 387.5 133.5 c 128,-1,18
 352 69 352 69 304 28.5 c 128,-1,19
 256 -12 256 -12 200 -12 c 0,0,1
201 24 m 0,20,21
 233 24 233 24 261.5 42 c 128,-1,22
 290 60 290 60 315 91 c 128,-1,23
 340 122 340 122 360 163 c 128,-1,24
 380 204 380 204 394 249.5 c 128,-1,25
 408 295 408 295 415.5 343 c 128,-1,26
 423 391 423 391 423 435 c 0,27,28
 423 471 423 471 416.5 504 c 128,-1,29
 410 537 410 537 395.5 561.5 c 128,-1,30
 381 586 381 586 359 601 c 128,-1,31
 337 616 337 616 306 616 c 0,32,33
 274 616 274 616 245.5 597.5 c 128,-1,34
 217 579 217 579 192.5 547.5 c 128,-1,35
 168 516 168 516 148 475 c 128,-1,36
 128 434 128 434 114 388 c 128,-1,37
 100 342 100 342 92.5 294 c 128,-1,38
 85 246 85 246 85 202 c 0,39,40
 85 167 85 167 91.5 134.5 c 128,-1,41
 98 102 98 102 112 77.5 c 128,-1,42
 126 53 126 53 148 38.5 c 128,-1,43
 170 24 170 24 201 24 c 0,20,21
EndSplineSet
Substitution2: "'zero' Slashed Zero in Latin lookup 18 subtable" zero.0p
Substitution2: "'ss05' Style Set 5 in Latin lookup 17 subtable" zero.0ps
Substitution2: "'onum' Oldstyle Figures in Latin lookup 16 subtable" zero.onum
Substitution2: "'aalt' Access All Alternates in Latin lookup 0 subtable" zero.onum
EndChar

StartChar: one.pnum
Encoding: 65594 -1 475
Width: 318
Flags: W
LayerCount: 2
Fore
SplineSet
109 0 m 1,0,-1
 223 571 l 1,1,-1
 110 571 l 1,2,-1
 116 599 l 1,3,4
 154 604 154 604 187.5 614.5 c 128,-1,5
 221 625 221 625 245 639 c 1,6,-1
 278 639 l 1,7,-1
 150 0 l 1,8,-1
 109 0 l 1,0,-1
EndSplineSet
Substitution2: "'onum' Oldstyle Figures in Latin lookup 16 subtable" one.onum
Substitution2: "'aalt' Access All Alternates in Latin lookup 0 subtable" one.onum
EndChar

StartChar: two.pnum
Encoding: 65595 -1 476
Width: 453
Flags: W
LayerCount: 2
Fore
SplineSet
-9 0 m 1,0,-1
 -5 27 l 1,1,2
 99 118 99 118 173 184.5 c 128,-1,3
 247 251 247 251 294 303.5 c 128,-1,4
 341 356 341 356 363 401 c 128,-1,5
 385 446 385 446 385 495 c 0,6,7
 385 520 385 520 378 541.5 c 128,-1,8
 371 563 371 563 357.5 579.5 c 128,-1,9
 344 596 344 596 323.5 605.5 c 128,-1,10
 303 615 303 615 275 615 c 0,11,12
 240 615 240 615 202.5 597.5 c 128,-1,13
 165 580 165 580 129 544 c 1,14,-1
 105 573 l 1,15,16
 148 610 148 610 189.5 630.5 c 128,-1,17
 231 651 231 651 279 651 c 0,18,19
 350 651 350 651 388 608.5 c 128,-1,20
 426 566 426 566 426 502 c 0,21,22
 426 447 426 447 404.5 398.5 c 128,-1,23
 383 350 383 350 338 297.5 c 128,-1,24
 293 245 293 245 225 182.5 c 128,-1,25
 157 120 157 120 64 37 c 1,26,-1
 364 37 l 1,27,-1
 358 0 l 1,28,-1
 -9 0 l 1,0,-1
EndSplineSet
Substitution2: "'onum' Oldstyle Figures in Latin lookup 16 subtable" two.onum
Substitution2: "'aalt' Access All Alternates in Latin lookup 0 subtable" two.onum
EndChar

StartChar: seven.pnum
Encoding: 65600 -1 481
Width: 441
Flags: W
LayerCount: 2
Fore
SplineSet
116 0 m 1,0,1
 137 94 137 94 162.5 175 c 128,-1,2
 188 256 188 256 223.5 329 c 128,-1,3
 259 402 259 402 307 469.5 c 128,-1,4
 355 537 355 537 420 603 c 1,5,-1
 102 603 l 1,6,-1
 110 639 l 1,7,-1
 478 639 l 1,8,-1
 472 611 l 1,9,10
 398 539 398 539 347.5 468 c 128,-1,11
 297 397 297 397 261.5 322.5 c 128,-1,12
 226 248 226 248 202.5 168.5 c 128,-1,13
 179 89 179 89 161 0 c 1,14,-1
 116 0 l 1,0,1
EndSplineSet
Substitution2: "'onum' Oldstyle Figures in Latin lookup 16 subtable" seven.onum
Substitution2: "'aalt' Access All Alternates in Latin lookup 0 subtable" seven.onum
EndChar

StartChar: zero.tnum
Encoding: 65603 -1 484
Width: 462
Flags: W
LayerCount: 2
Fore
SplineSet
191 -12 m 0,0,1
 121 -12 121 -12 81 42.5 c 128,-1,2
 41 97 41 97 41 188 c 0,3,4
 41 257 41 257 58.5 327 c 128,-1,5
 76 397 76 397 108.5 454 c 128,-1,6
 141 511 141 511 185.5 547 c 128,-1,7
 230 583 230 583 284 583 c 0,8,9
 353 583 353 583 393 528.5 c 128,-1,10
 433 474 433 474 433 383 c 0,11,12
 433 314 433 314 415.5 244 c 128,-1,13
 398 174 398 174 366 117 c 128,-1,14
 334 60 334 60 289.5 24 c 128,-1,15
 245 -12 245 -12 191 -12 c 0,0,1
195 24 m 0,16,17
 237 24 237 24 273 57 c 128,-1,18
 309 90 309 90 336 141.5 c 128,-1,19
 363 193 363 193 378 255.5 c 128,-1,20
 393 318 393 318 393 377 c 0,21,22
 393 459 393 459 363.5 503 c 128,-1,23
 334 547 334 547 280 547 c 0,24,25
 238 547 238 547 201.5 514 c 128,-1,26
 165 481 165 481 138 429.5 c 128,-1,27
 111 378 111 378 96 315.5 c 128,-1,28
 81 253 81 253 81 194 c 0,29,30
 81 112 81 112 110.5 68 c 128,-1,31
 140 24 140 24 195 24 c 0,16,17
EndSplineSet
Substitution2: "'pnum' Proportional Numbers in Latin lookup 15 subtable" zero.onum
Substitution2: "'aalt' Access All Alternates in Latin lookup 0 subtable" zero.onum
EndChar

StartChar: one.tnum
Encoding: 65604 -1 485
Width: 462
Flags: W
LayerCount: 2
Fore
SplineSet
30 0 m 1,0,-1
 38 36 l 1,1,-1
 181 36 l 1,2,-1
 275 503 l 1,3,-1
 162 503 l 1,4,-1
 168 531 l 1,5,6
 206 536 206 536 239.5 546.5 c 128,-1,7
 273 557 273 557 297 571 c 1,8,-1
 330 571 l 1,9,-1
 222 36 l 1,10,-1
 359 36 l 1,11,-1
 353 0 l 1,12,-1
 30 0 l 1,0,-1
EndSplineSet
Substitution2: "'pnum' Proportional Numbers in Latin lookup 15 subtable" one.onum
Substitution2: "'aalt' Access All Alternates in Latin lookup 0 subtable" one.onum
EndChar

StartChar: two.tnum
Encoding: 65605 -1 486
Width: 462
Flags: W
LayerCount: 2
Fore
SplineSet
-9 0 m 1,0,-1
 -5 27 l 1,1,2
 96 106 96 106 168.5 162.5 c 128,-1,3
 241 219 241 219 287.5 264 c 128,-1,4
 334 309 334 309 355.5 347 c 128,-1,5
 377 385 377 385 377 427 c 0,6,7
 377 451 377 451 370 473 c 128,-1,8
 363 495 363 495 348 511.5 c 128,-1,9
 333 528 333 528 310.5 537.5 c 128,-1,10
 288 547 288 547 257 547 c 0,11,12
 222 547 222 547 184.5 529 c 128,-1,13
 147 511 147 511 111 476 c 1,14,-1
 87 505 l 1,15,16
 130 541 130 541 171.5 562 c 128,-1,17
 213 583 213 583 261 583 c 0,18,19
 299 583 299 583 328.5 571.5 c 128,-1,20
 358 560 358 560 378 540 c 128,-1,21
 398 520 398 520 408 492.5 c 128,-1,22
 418 465 418 465 418 434 c 0,23,24
 418 387 418 387 396.5 345 c 128,-1,25
 375 303 375 303 331 258 c 128,-1,26
 287 213 287 213 220.5 160 c 128,-1,27
 154 107 154 107 65 37 c 1,28,-1
 374 37 l 1,29,-1
 368 0 l 1,30,-1
 -9 0 l 1,0,-1
EndSplineSet
Substitution2: "'pnum' Proportional Numbers in Latin lookup 15 subtable" two.onum
Substitution2: "'aalt' Access All Alternates in Latin lookup 0 subtable" two.onum
EndChar

StartChar: three.tnum
Encoding: 65606 -1 487
Width: 462
Flags: W
LayerCount: 2
Fore
SplineSet
164 -83 m 0,0,1
 130 -83 130 -83 101.5 -73 c 128,-1,2
 73 -63 73 -63 50 -47.5 c 128,-1,3
 27 -32 27 -32 10 -13 c 128,-1,4
 -7 6 -7 6 -19 24 c 1,5,-1
 11 47 l 1,6,7
 22 30 22 30 37 13.5 c 128,-1,8
 52 -3 52 -3 71 -16.5 c 128,-1,9
 90 -30 90 -30 113.5 -38.5 c 128,-1,10
 137 -47 137 -47 166 -47 c 0,11,12
 205 -47 205 -47 238.5 -34.5 c 128,-1,13
 272 -22 272 -22 296 -0.5 c 128,-1,14
 320 21 320 21 333.5 50 c 128,-1,15
 347 79 347 79 347 113 c 0,16,17
 347 141 347 141 335.5 165.5 c 128,-1,18
 324 190 324 190 299.5 208 c 128,-1,19
 275 226 275 226 237 236.5 c 128,-1,20
 199 247 199 247 146 247 c 1,21,-1
 153 282 l 1,22,23
 218 282 218 282 262.5 296.5 c 128,-1,24
 307 311 307 311 334 333 c 128,-1,25
 361 355 361 355 373 382 c 128,-1,26
 385 409 385 409 385 433 c 0,27,28
 385 484 385 484 357.5 515.5 c 128,-1,29
 330 547 330 547 270 547 c 0,30,31
 237 547 237 547 198 531 c 128,-1,32
 159 515 159 515 131 489 c 1,33,-1
 108 519 l 1,34,35
 144 548 144 548 187 565.5 c 128,-1,36
 230 583 230 583 275 583 c 0,37,38
 352 583 352 583 389 544 c 128,-1,39
 426 505 426 505 426 441 c 0,40,41
 426 379 426 379 385 331 c 128,-1,42
 344 283 344 283 271 263 c 1,43,-1
 271 259 l 1,44,45
 323 243 323 243 355.5 207.5 c 128,-1,46
 388 172 388 172 388 118 c 0,47,48
 388 73 388 73 371.5 36 c 128,-1,49
 355 -1 355 -1 325 -27.5 c 128,-1,50
 295 -54 295 -54 254 -68.5 c 128,-1,51
 213 -83 213 -83 164 -83 c 0,0,1
EndSplineSet
Substitution2: "'pnum' Proportional Numbers in Latin lookup 15 subtable" three.onum
Substitution2: "'aalt' Access All Alternates in Latin lookup 0 subtable" three.onum
EndChar

StartChar: four.tnum
Encoding: 65607 -1 488
Width: 462
Flags: W
LayerCount: 2
Fore
SplineSet
242 -71 m 1,0,-1
 277 102 l 1,1,-1
 -13 102 l 1,2,-1
 -9 127 l 1,3,-1
 373 571 l 1,4,-1
 410 571 l 1,5,-1
 323 137 l 1,6,-1
 412 137 l 1,7,-1
 404 102 l 1,8,-1
 316 102 l 1,9,-1
 282 -71 l 1,10,-1
 242 -71 l 1,0,-1
46 137 m 1,11,-1
 284 137 l 1,12,-1
 334 390 l 2,13,14
 339 415 339 415 347 446 c 128,-1,15
 355 477 355 477 363 509 c 1,16,-1
 359 509 l 1,17,18
 338 482 338 482 318 457.5 c 128,-1,19
 298 433 298 433 280 411 c 2,20,-1
 46 137 l 1,11,-1
EndSplineSet
Substitution2: "'pnum' Proportional Numbers in Latin lookup 15 subtable" four.onum
Substitution2: "'aalt' Access All Alternates in Latin lookup 0 subtable" four.onum
EndChar

StartChar: five.tnum
Encoding: 65608 -1 489
Width: 462
Flags: W
LayerCount: 2
Fore
SplineSet
159 -85 m 0,0,1
 124 -85 124 -85 96.5 -75.5 c 128,-1,2
 69 -66 69 -66 47.5 -51 c 128,-1,3
 26 -36 26 -36 10 -17 c 128,-1,4
 -6 2 -6 2 -17 21 c 1,5,-1
 13 43 l 1,6,7
 23 27 23 27 35.5 11 c 128,-1,8
 48 -5 48 -5 66 -18 c 128,-1,9
 84 -31 84 -31 108 -39.5 c 128,-1,10
 132 -48 132 -48 165 -48 c 0,11,12
 201 -48 201 -48 234.5 -34 c 128,-1,13
 268 -20 268 -20 293.5 6.5 c 128,-1,14
 319 33 319 33 334 69.5 c 128,-1,15
 349 106 349 106 349 151 c 0,16,17
 349 223 349 223 313 259.5 c 128,-1,18
 277 296 277 296 217 296 c 0,19,20
 182 296 182 296 157.5 287 c 128,-1,21
 133 278 133 278 102 261 c 1,22,-1
 80 278 l 1,23,-1
 161 571 l 1,24,-1
 436 571 l 1,25,-1
 428 534 l 1,26,-1
 190 534 l 1,27,-1
 127 307 l 1,28,29
 146 317 146 317 170.5 324 c 128,-1,30
 195 331 195 331 224 331 c 0,31,32
 260 331 260 331 290.5 320 c 128,-1,33
 321 309 321 309 343.5 287 c 128,-1,34
 366 265 366 265 378.5 233 c 128,-1,35
 391 201 391 201 391 159 c 0,36,37
 391 103 391 103 372 58 c 128,-1,38
 353 13 353 13 321 -19 c 128,-1,39
 289 -51 289 -51 247 -68 c 128,-1,40
 205 -85 205 -85 159 -85 c 0,0,1
EndSplineSet
Substitution2: "'pnum' Proportional Numbers in Latin lookup 15 subtable" five.onum
Substitution2: "'aalt' Access All Alternates in Latin lookup 0 subtable" five.onum
EndChar

StartChar: seven.tnum
Encoding: 65610 -1 491
Width: 462
Flags: W
LayerCount: 2
Fore
SplineSet
117 -71 m 1,0,1
 138 23 138 23 164 104.5 c 128,-1,2
 190 186 190 186 226 259.5 c 128,-1,3
 262 333 262 333 310.5 400.5 c 128,-1,4
 359 468 359 468 426 534 c 1,5,-1
 98 534 l 1,6,-1
 106 571 l 1,7,-1
 484 571 l 1,8,-1
 479 543 l 1,9,10
 404 471 404 471 351.5 399.5 c 128,-1,11
 299 328 299 328 263 253 c 128,-1,12
 227 178 227 178 203.5 98 c 128,-1,13
 180 18 180 18 162 -71 c 1,14,-1
 117 -71 l 1,0,1
EndSplineSet
Substitution2: "'pnum' Proportional Numbers in Latin lookup 15 subtable" seven.onum
Substitution2: "'aalt' Access All Alternates in Latin lookup 0 subtable" seven.onum
EndChar

StartChar: nine.tnum
Encoding: 65612 -1 493
Width: 462
Flags: W
LayerCount: 2
Fore
SplineSet
216 207 m 0,0,1
 229 207 229 207 248 211 c 128,-1,2
 267 215 267 215 288.5 225 c 128,-1,3
 310 235 310 235 333 252 c 128,-1,4
 356 269 356 269 378 296 c 1,5,6
 380 314 380 314 381 332 c 128,-1,7
 382 350 382 350 382 369 c 0,8,9
 382 408 382 408 373.5 441 c 128,-1,10
 365 474 365 474 348.5 497.5 c 128,-1,11
 332 521 332 521 308.5 534.5 c 128,-1,12
 285 548 285 548 255 548 c 0,13,14
 223 548 223 548 193.5 532.5 c 128,-1,15
 164 517 164 517 141 490.5 c 128,-1,16
 118 464 118 464 104.5 429.5 c 128,-1,17
 91 395 91 395 91 357 c 0,18,19
 91 288 91 288 123.5 247.5 c 128,-1,20
 156 207 156 207 216 207 c 0,0,1
135 -83 m 0,21,22
 87 -83 87 -83 57 -61.5 c 128,-1,23
 27 -40 27 -40 7 -5 c 1,24,-1
 38 17 l 1,25,26
 56 -15 56 -15 80 -31 c 128,-1,27
 104 -47 104 -47 137 -47 c 0,28,29
 178 -47 178 -47 215.5 -25 c 128,-1,30
 253 -3 253 -3 284 36 c 128,-1,31
 315 75 315 75 337.5 129 c 128,-1,32
 360 183 360 183 371 247 c 1,33,34
 333 208 333 208 290 189.5 c 128,-1,35
 247 171 247 171 210 171 c 0,36,37
 139 171 139 171 95.5 219 c 128,-1,38
 52 267 52 267 52 347 c 0,39,40
 52 396 52 396 68 439 c 128,-1,41
 84 482 84 482 111.5 514 c 128,-1,42
 139 546 139 546 176.5 564.5 c 128,-1,43
 214 583 214 583 257 583 c 0,44,45
 296 583 296 583 326.5 567.5 c 128,-1,46
 357 552 357 552 378 524 c 128,-1,47
 399 496 399 496 410.5 457.5 c 128,-1,48
 422 419 422 419 422 373 c 0,49,50
 422 275 422 275 400 191.5 c 128,-1,51
 378 108 378 108 339.5 47 c 128,-1,52
 301 -14 301 -14 248.5 -48.5 c 128,-1,53
 196 -83 196 -83 135 -83 c 0,21,22
EndSplineSet
Substitution2: "'pnum' Proportional Numbers in Latin lookup 15 subtable" nine.onum
Substitution2: "'aalt' Access All Alternates in Latin lookup 0 subtable" nine.onum
EndChar

StartChar: one.onum
Encoding: 65614 -1 495
Width: 323
Flags: W
LayerCount: 2
Fore
SplineSet
95 0 m 1,0,-1
 197 503 l 1,1,-1
 85 503 l 1,2,-1
 90 531 l 1,3,4
 128 536 128 536 161.5 546.5 c 128,-1,5
 195 557 195 557 219 571 c 1,6,-1
 252 571 l 1,7,-1
 136 0 l 1,8,-1
 95 0 l 1,0,-1
EndSplineSet
EndChar

StartChar: two.onum
Encoding: 65615 -1 496
Width: 452
Flags: W
LayerCount: 2
Fore
SplineSet
-9 0 m 1,0,-1
 -5 27 l 1,1,2
 94 106 94 106 164.5 162.5 c 128,-1,3
 235 219 235 219 280 264 c 128,-1,4
 325 309 325 309 346 347 c 128,-1,5
 367 385 367 385 367 427 c 0,6,7
 367 451 367 451 360 473 c 128,-1,8
 353 495 353 495 339.5 511.5 c 128,-1,9
 326 528 326 528 305 537.5 c 128,-1,10
 284 547 284 547 257 547 c 0,11,12
 222 547 222 547 184.5 529 c 128,-1,13
 147 511 147 511 111 476 c 1,14,-1
 87 505 l 1,15,16
 130 541 130 541 171.5 562 c 128,-1,17
 213 583 213 583 261 583 c 0,18,19
 296 583 296 583 323.5 571.5 c 128,-1,20
 351 560 351 560 369.5 540 c 128,-1,21
 388 520 388 520 397.5 492.5 c 128,-1,22
 407 465 407 465 407 434 c 0,23,24
 407 387 407 387 386 345 c 128,-1,25
 365 303 365 303 322.5 258 c 128,-1,26
 280 213 280 213 215.5 160 c 128,-1,27
 151 107 151 107 65 37 c 1,28,-1
 363 37 l 1,29,-1
 357 0 l 1,30,-1
 -9 0 l 1,0,-1
EndSplineSet
EndChar

StartChar: seven.onum
Encoding: 65620 -1 501
Width: 441
Flags: W
LayerCount: 2
Fore
SplineSet
95 -71 m 1,0,1
 116 23 116 23 141.5 104.5 c 128,-1,2
 167 186 167 186 202 259.5 c 128,-1,3
 237 333 237 333 285 400.5 c 128,-1,4
 333 468 333 468 399 534 c 1,5,-1
 81 534 l 1,6,-1
 89 571 l 1,7,-1
 458 571 l 1,8,-1
 452 543 l 1,9,10
 377 471 377 471 326 399.5 c 128,-1,11
 275 328 275 328 239.5 253 c 128,-1,12
 204 178 204 178 181 98 c 128,-1,13
 158 18 158 18 140 -71 c 1,14,-1
 95 -71 l 1,0,1
EndSplineSet
EndChar

StartChar: period
Encoding: 46 46 504
Width: 213
Flags: W
LayerCount: 2
Fore
SplineSet
55 -12 m 0,0,1
 39 -12 39 -12 30.5 -1.5 c 128,-1,2
 22 9 22 9 22 23 c 0,3,4
 22 43 22 43 36.5 59.5 c 128,-1,5
 51 76 51 76 71 76 c 0,6,7
 87 76 87 76 94.5 65.5 c 128,-1,8
 102 55 102 55 102 39 c 0,9,10
 102 19 102 19 88.5 3.5 c 128,-1,11
 75 -12 75 -12 55 -12 c 0,0,1
EndSplineSet
Substitution2: "'subs' Subscript in Latin lookup 14 subtable" period.subs
Substitution2: "'sups' Superscript in Latin lookup 13 subtable" period.sups
Substitution2: "'dnom' Denominators in Latin lookup 9 subtable" period.dnom
Substitution2: "'numr' Numerators in Latin lookup 8 subtable" period.numr
AlternateSubs2: "'aalt' Access All Alternates in Latin lookup 1 subtable" period.numr period.dnom period.sups period.subs
EndChar

StartChar: comma
Encoding: 44 44 505
Width: 213
Flags: W
LayerCount: 2
Fore
SplineSet
-24 -151 m 1,0,-1
 -33 -121 l 1,1,2
 9 -103 9 -103 35.5 -73 c 128,-1,3
 62 -43 62 -43 67 -7 c 1,4,-1
 62 -7 l 2,5,6
 46 -7 46 -7 36 2.5 c 128,-1,7
 26 12 26 12 26 28 c 0,8,9
 26 45 26 45 38.5 60.5 c 128,-1,10
 51 76 51 76 72 76 c 0,11,12
 91 76 91 76 101 62.5 c 128,-1,13
 111 49 111 49 111 27 c 0,14,15
 111 -3 111 -3 100.5 -30.5 c 128,-1,16
 90 -58 90 -58 72 -81.5 c 128,-1,17
 54 -105 54 -105 29.5 -123 c 128,-1,18
 5 -141 5 -141 -24 -151 c 1,0,-1
EndSplineSet
Substitution2: "'subs' Subscript in Latin lookup 14 subtable" comma.subs
Substitution2: "'sups' Superscript in Latin lookup 13 subtable" comma.sups
Substitution2: "'dnom' Denominators in Latin lookup 9 subtable" comma.dnom
Substitution2: "'numr' Numerators in Latin lookup 8 subtable" comma.numr
AlternateSubs2: "'aalt' Access All Alternates in Latin lookup 1 subtable" comma.numr comma.dnom comma.sups comma.subs
EndChar

StartChar: exclam
Encoding: 33 33 509
Width: 253
Flags: W
LayerCount: 2
Fore
SplineSet
95 179 m 1,0,-1
 174 600 l 1,1,-1
 187 672 l 1,2,-1
 228 672 l 1,3,-1
 214 600 l 1,4,-1
 127 179 l 1,5,-1
 95 179 l 1,0,-1
76 -12 m 0,6,7
 60 -12 60 -12 51 -1.5 c 128,-1,8
 42 9 42 9 42 23 c 0,9,10
 42 43 42 43 56.5 59.5 c 128,-1,11
 71 76 71 76 91 76 c 0,12,13
 107 76 107 76 115 65.5 c 128,-1,14
 123 55 123 55 123 39 c 0,15,16
 123 19 123 19 109.5 3.5 c 128,-1,17
 96 -12 96 -12 76 -12 c 0,6,7
EndSplineSet
EndChar

StartChar: exclamdown
Encoding: 161 161 510
Width: 253
Flags: W
LayerCount: 2
Fore
SplineSet
23 -192 m 1,0,-1
 37 -120 l 1,1,-1
 125 302 l 1,2,-1
 157 302 l 1,3,-1
 77 -120 l 1,4,-1
 64 -192 l 1,5,-1
 23 -192 l 1,0,-1
160 404 m 0,6,7
 144 404 144 404 136.5 414.5 c 128,-1,8
 129 425 129 425 129 441 c 0,9,10
 129 461 129 461 142.5 476.5 c 128,-1,11
 156 492 156 492 176 492 c 0,12,13
 192 492 192 492 200.5 481.5 c 128,-1,14
 209 471 209 471 209 457 c 0,15,16
 209 438 209 438 194.5 421 c 128,-1,17
 180 404 180 404 160 404 c 0,6,7
EndSplineSet
EndChar

StartChar: question
Encoding: 63 63 511
Width: 388
Flags: W
LayerCount: 2
Fore
SplineSet
144 183 m 1,0,1
 146 226 146 226 162 260 c 128,-1,2
 178 294 178 294 201.5 322.5 c 128,-1,3
 225 351 225 351 251.5 376 c 128,-1,4
 278 401 278 401 301 426.5 c 128,-1,5
 324 452 324 452 339 480 c 128,-1,6
 354 508 354 508 354 543 c 0,7,8
 354 592 354 592 328 619 c 128,-1,9
 302 646 302 646 256 646 c 0,10,11
 222 646 222 646 190 629.5 c 128,-1,12
 158 613 158 613 135 587 c 1,13,-1
 110 614 l 1,14,15
 136 642 136 642 175.5 662 c 128,-1,16
 215 682 215 682 260 682 c 0,17,18
 323 682 323 682 359 647.5 c 128,-1,19
 395 613 395 613 395 551 c 0,20,21
 395 510 395 510 380 477.5 c 128,-1,22
 365 445 365 445 342 417 c 128,-1,23
 319 389 319 389 292 363.5 c 128,-1,24
 265 338 265 338 241 310.5 c 128,-1,25
 217 283 217 283 200 251.5 c 128,-1,26
 183 220 183 220 181 180 c 1,27,-1
 144 183 l 1,0,1
130 -12 m 0,28,29
 114 -12 114 -12 105.5 -1.5 c 128,-1,30
 97 9 97 9 97 23 c 0,31,32
 97 43 97 43 111.5 59.5 c 128,-1,33
 126 76 126 76 146 76 c 0,34,35
 162 76 162 76 169.5 65.5 c 128,-1,36
 177 55 177 55 177 39 c 0,37,38
 177 19 177 19 163.5 3.5 c 128,-1,39
 150 -12 150 -12 130 -12 c 0,28,29
EndSplineSet
EndChar

StartChar: questiondown
Encoding: 191 191 512
Width: 388
Flags: W
LayerCount: 2
Fore
SplineSet
129 -200 m 0,0,1
 66 -200 66 -200 30.5 -165.5 c 128,-1,2
 -5 -131 -5 -131 -5 -69 c 0,3,4
 -5 -28 -5 -28 10 4.5 c 128,-1,5
 25 37 25 37 48 65 c 128,-1,6
 71 93 71 93 98 118.5 c 128,-1,7
 125 144 125 144 148.5 171.5 c 128,-1,8
 172 199 172 199 189 230.5 c 128,-1,9
 206 262 206 262 208 302 c 1,10,-1
 245 299 l 1,11,12
 243 256 243 256 227 222 c 128,-1,13
 211 188 211 188 187.5 159.5 c 128,-1,14
 164 131 164 131 137.5 106 c 128,-1,15
 111 81 111 81 88 55.5 c 128,-1,16
 65 30 65 30 50 2 c 128,-1,17
 35 -26 35 -26 35 -61 c 0,18,19
 35 -110 35 -110 61 -137 c 128,-1,20
 87 -164 87 -164 133 -164 c 0,21,22
 167 -164 167 -164 199 -147.5 c 128,-1,23
 231 -131 231 -131 255 -105 c 1,24,-1
 279 -132 l 1,25,26
 253 -160 253 -160 213.5 -180 c 128,-1,27
 174 -200 174 -200 129 -200 c 0,0,1
243 406 m 0,28,29
 227 406 227 406 219.5 416.5 c 128,-1,30
 212 427 212 427 212 443 c 0,31,32
 212 463 212 463 225.5 478.5 c 128,-1,33
 239 494 239 494 259 494 c 0,34,35
 275 494 275 494 283.5 483.5 c 128,-1,36
 292 473 292 473 292 459 c 0,37,38
 292 439 292 439 277.5 422.5 c 128,-1,39
 263 406 263 406 243 406 c 0,28,29
EndSplineSet
EndChar

StartChar: quotesingle
Encoding: 39 39 513
Width: 213
Flags: W
LayerCount: 2
Fore
SplineSet
132 464 m 1,0,-1
 156 600 l 1,1,-1
 169 672 l 1,2,-1
 210 672 l 1,3,-1
 196 600 l 1,4,-1
 163 464 l 1,5,-1
 132 464 l 1,0,-1
EndSplineSet
EndChar

StartChar: quoteleft
Encoding: 8216 8216 515
Width: 213
Flags: W
LayerCount: 2
Fore
SplineSet
158 481 m 256,0,1
 141 481 141 481 129 494 c 128,-1,2
 117 507 117 507 117 531 c 0,3,4
 117 588 117 588 147.5 631 c 128,-1,5
 178 674 178 674 226 699 c 1,6,-1
 239 674 l 1,7,8
 198 651 198 651 176.5 619 c 128,-1,9
 155 587 155 587 155 556 c 1,10,-1
 159 556 l 2,11,12
 175 556 175 556 185.5 547.5 c 128,-1,13
 196 539 196 539 196 522 c 256,14,15
 196 505 196 505 185.5 493 c 128,-1,16
 175 481 175 481 158 481 c 256,0,1
EndSplineSet
EndChar

StartChar: quoteright
Encoding: 8217 8217 516
Width: 213
Flags: W
LayerCount: 2
Fore
SplineSet
126 483 m 1,0,-1
 113 508 l 1,1,2
 155 531 155 531 176 563 c 128,-1,3
 197 595 197 595 197 626 c 1,4,-1
 193 626 l 2,5,6
 177 626 177 626 166.5 634.5 c 128,-1,7
 156 643 156 643 156 660 c 256,8,9
 156 677 156 677 167 689 c 128,-1,10
 178 701 178 701 195 701 c 256,11,12
 212 701 212 701 223.5 688 c 128,-1,13
 235 675 235 675 235 651 c 0,14,15
 235 594 235 594 204.5 551 c 128,-1,16
 174 508 174 508 126 483 c 1,0,-1
EndSplineSet
EndChar

StartChar: guilsinglleft
Encoding: 8249 8249 521
Width: 240
Flags: W
LayerCount: 2
Fore
SplineSet
142 72 m 1,0,-1
 40 236 l 1,1,-1
 47 276 l 1,2,-1
 205 430 l 1,3,-1
 224 410 l 1,4,-1
 78 251 l 1,5,-1
 166 87 l 1,6,-1
 142 72 l 1,0,-1
EndSplineSet
EndChar

StartChar: guilsinglright
Encoding: 8250 8250 522
Width: 240
Flags: W
LayerCount: 2
Fore
SplineSet
40 72 m 1,0,-1
 21 92 l 1,1,-1
 167 251 l 1,2,-1
 78 415 l 1,3,-1
 103 430 l 1,4,-1
 205 266 l 1,5,-1
 197 226 l 1,6,-1
 40 72 l 1,0,-1
EndSplineSet
EndChar

StartChar: hyphen
Encoding: 45 45 525
Width: 287
Flags: W
LayerCount: 2
Fore
SplineSet
36 232 m 1,0,-1
 43 269 l 1,1,-1
 253 269 l 1,2,-1
 245 232 l 1,3,-1
 36 232 l 1,0,-1
EndSplineSet
EndChar

StartChar: endash
Encoding: 8211 8211 527
Width: 462
Flags: W
LayerCount: 2
Fore
SplineSet
36 234 m 1,0,-1
 43 268 l 1,1,-1
 426 268 l 1,2,-1
 417 234 l 1,3,-1
 36 234 l 1,0,-1
EndSplineSet
EndChar

StartChar: emdash
Encoding: 8212 8212 528
Width: 768
Flags: W
LayerCount: 2
Fore
SplineSet
36 234 m 1,0,-1
 43 268 l 1,1,-1
 733 268 l 1,2,-1
 725 234 l 1,3,-1
 36 234 l 1,0,-1
EndSplineSet
EndChar

StartChar: figuredash
Encoding: 8210 8210 529
Width: 462
Flags: W
LayerCount: 2
Fore
SplineSet
36 234 m 1,0,-1
 43 268 l 1,1,-1
 427 268 l 1,2,-1
 417 234 l 1,3,-1
 36 234 l 1,0,-1
EndSplineSet
EndChar

StartChar: bullet
Encoding: 8226 8226 532
Width: 274
Flags: W
LayerCount: 2
Fore
SplineSet
129 156 m 0,0,1
 91 156 91 156 66.5 182.5 c 128,-1,2
 42 209 42 209 42 251 c 0,3,4
 42 273 42 273 49.5 295 c 128,-1,5
 57 317 57 317 71 334.5 c 128,-1,6
 85 352 85 352 105.5 362.5 c 128,-1,7
 126 373 126 373 152 373 c 0,8,9
 188 373 188 373 213 346.5 c 128,-1,10
 238 320 238 320 238 278 c 0,11,12
 238 255 238 255 230.5 233 c 128,-1,13
 223 211 223 211 208.5 194 c 128,-1,14
 194 177 194 177 174 166.5 c 128,-1,15
 154 156 154 156 129 156 c 0,0,1
EndSplineSet
EndChar

StartChar: underscore
Encoding: 95 95 533
Width: 484
Flags: W
LayerCount: 2
Fore
SplineSet
-29 -115 m 1,0,-1
 -21 -81 l 1,1,-1
 436 -81 l 1,2,-1
 429 -115 l 1,3,-1
 -29 -115 l 1,0,-1
EndSplineSet
EndChar

StartChar: parenleft
Encoding: 40 40 534
Width: 268
Flags: W
LayerCount: 2
Fore
SplineSet
126 -175 m 1,0,1
 101 -110 101 -110 85.5 -29.5 c 128,-1,2
 70 51 70 51 70 134 c 0,3,4
 70 221 70 221 86 299 c 128,-1,5
 102 377 102 377 132 450 c 128,-1,6
 162 523 162 523 205 592 c 128,-1,7
 248 661 248 661 302 730 c 1,8,-1
 328 713 l 1,9,10
 221 582 221 582 164.5 437 c 128,-1,11
 108 292 108 292 108 127 c 0,12,13
 108 90 108 90 111 51 c 128,-1,14
 114 12 114 12 119.5 -26 c 128,-1,15
 125 -64 125 -64 134 -99.5 c 128,-1,16
 143 -135 143 -135 155 -165 c 1,17,-1
 126 -175 l 1,0,1
EndSplineSet
Substitution2: "'subs' Subscript in Latin lookup 14 subtable" parenleft.subs
Substitution2: "'sups' Superscript in Latin lookup 13 subtable" parenleft.sups
Substitution2: "'dnom' Denominators in Latin lookup 9 subtable" parenleft.dnom
Substitution2: "'numr' Numerators in Latin lookup 8 subtable" parenleft.numr
AlternateSubs2: "'aalt' Access All Alternates in Latin lookup 1 subtable" parenleft.numr parenleft.dnom parenleft.sups parenleft.subs
EndChar

StartChar: parenright
Encoding: 41 41 535
Width: 270
Flags: W
LayerCount: 2
Fore
SplineSet
-26 -175 m 1,0,-1
 -51 -157 l 1,1,2
 55 -26 55 -26 111.5 119 c 128,-1,3
 168 264 168 264 168 429 c 0,4,5
 168 466 168 466 165 505 c 128,-1,6
 162 544 162 544 156.5 582 c 128,-1,7
 151 620 151 620 142.5 655.5 c 128,-1,8
 134 691 134 691 122 721 c 1,9,-1
 150 730 l 1,10,11
 176 666 176 666 191 585.5 c 128,-1,12
 206 505 206 505 206 422 c 0,13,14
 206 334 206 334 190 256 c 128,-1,15
 174 178 174 178 144 105 c 128,-1,16
 114 32 114 32 71 -37 c 128,-1,17
 28 -106 28 -106 -26 -175 c 1,0,-1
EndSplineSet
Substitution2: "'subs' Subscript in Latin lookup 14 subtable" parenright.subs
Substitution2: "'sups' Superscript in Latin lookup 13 subtable" parenright.sups
Substitution2: "'dnom' Denominators in Latin lookup 9 subtable" parenright.dnom
Substitution2: "'numr' Numerators in Latin lookup 8 subtable" parenright.numr
AlternateSubs2: "'aalt' Access All Alternates in Latin lookup 1 subtable" parenright.numr parenright.dnom parenright.sups parenright.subs
EndChar

StartChar: bracketleft
Encoding: 91 91 536
Width: 270
Flags: W
LayerCount: 2
Fore
SplineSet
15 -152 m 1,0,-1
 187 708 l 1,1,-1
 338 708 l 1,2,-1
 335 680 l 1,3,-1
 214 680 l 1,4,-1
 54 -124 l 1,5,-1
 173 -124 l 1,6,-1
 166 -152 l 1,7,-1
 15 -152 l 1,0,-1
EndSplineSet
EndChar

StartChar: bracketright
Encoding: 93 93 537
Width: 270
Flags: W
LayerCount: 2
Fore
SplineSet
-60 -152 m 1,0,-1
 -54 -124 l 1,1,-1
 65 -124 l 1,2,-1
 228 680 l 1,3,-1
 107 680 l 1,4,-1
 112 708 l 1,5,-1
 265 708 l 1,6,-1
 93 -152 l 1,7,-1
 -60 -152 l 1,0,-1
EndSplineSet
EndChar

StartChar: braceleft
Encoding: 123 123 538
Width: 268
Flags: W
LayerCount: 2
Fore
SplineSet
131 -152 m 2,0,1
 88 -152 88 -152 68 -135 c 128,-1,2
 48 -118 48 -118 48 -76 c 0,3,4
 48 -49 48 -49 57 -10.5 c 128,-1,5
 66 28 66 28 76.5 68.5 c 128,-1,6
 87 109 87 109 96 146.5 c 128,-1,7
 105 184 105 184 105 208 c 0,8,9
 105 218 105 218 102.5 227.5 c 128,-1,10
 100 237 100 237 92.5 245 c 128,-1,11
 85 253 85 253 71 258 c 128,-1,12
 57 263 57 263 35 263 c 1,13,-1
 42 293 l 1,14,15
 68 293 68 293 85.5 300.5 c 128,-1,16
 103 308 103 308 114 319.5 c 128,-1,17
 125 331 125 331 131 345.5 c 128,-1,18
 137 360 137 360 140 375 c 0,19,20
 149 423 149 423 156.5 475 c 128,-1,21
 164 527 164 527 175 578 c 0,22,23
 182 616 182 616 192.5 641 c 128,-1,24
 203 666 203 666 218 681 c 128,-1,25
 233 696 233 696 253.5 702 c 128,-1,26
 274 708 274 708 302 708 c 2,27,-1
 337 708 l 1,28,-1
 332 680 l 1,29,-1
 302 680 l 2,30,31
 257 680 257 680 237.5 653.5 c 128,-1,32
 218 627 218 627 207 574 c 0,33,34
 199 529 199 529 192 480.5 c 128,-1,35
 185 432 185 432 176 384 c 0,36,37
 166 339 166 339 149.5 313 c 128,-1,38
 133 287 133 287 101 278 c 1,39,-1
 101 274 l 1,40,41
 123 265 123 265 130 250 c 128,-1,42
 137 235 137 235 137 218 c 0,43,44
 137 191 137 191 128.5 152 c 128,-1,45
 120 113 120 113 109.5 72.5 c 128,-1,46
 99 32 99 32 90.5 -5.5 c 128,-1,47
 82 -43 82 -43 82 -68 c 0,48,49
 82 -96 82 -96 95 -110 c 128,-1,50
 108 -124 108 -124 144 -124 c 2,51,-1
 172 -124 l 1,52,-1
 165 -152 l 1,53,-1
 131 -152 l 2,0,1
EndSplineSet
EndChar

StartChar: braceright
Encoding: 125 125 539
Width: 270
Flags: W
LayerCount: 2
Fore
SplineSet
-61 -152 m 1,0,-1
 -55 -124 l 1,1,-1
 -25 -124 l 2,2,3
 20 -124 20 -124 39.5 -98.5 c 128,-1,4
 59 -73 59 -73 69 -20 c 0,5,6
 78 25 78 25 85 73.5 c 128,-1,7
 92 122 92 122 101 170 c 0,8,9
 110 216 110 216 127 242.5 c 128,-1,10
 144 269 144 269 176 278 c 1,11,-1
 176 282 l 1,12,13
 153 291 153 291 146 306 c 128,-1,14
 139 321 139 321 139 338 c 0,15,16
 139 364 139 364 147.5 402.5 c 128,-1,17
 156 441 156 441 166.5 481.5 c 128,-1,18
 177 522 177 522 185.5 559.5 c 128,-1,19
 194 597 194 597 194 622 c 0,20,21
 194 651 194 651 181.5 665.5 c 128,-1,22
 169 680 169 680 133 680 c 2,23,-1
 104 680 l 1,24,-1
 111 708 l 1,25,-1
 145 708 l 2,26,27
 189 708 189 708 209 690 c 128,-1,28
 229 672 229 672 229 632 c 0,29,30
 229 605 229 605 220 566 c 128,-1,31
 211 527 211 527 200.5 486 c 128,-1,32
 190 445 190 445 181 407.5 c 128,-1,33
 172 370 172 370 172 346 c 0,34,35
 172 337 172 337 174.5 327.5 c 128,-1,36
 177 318 177 318 184.5 310.5 c 128,-1,37
 192 303 192 303 205.5 298 c 128,-1,38
 219 293 219 293 242 293 c 1,39,-1
 234 263 l 1,40,41
 208 263 208 263 190.5 255.5 c 128,-1,42
 173 248 173 248 162 236.5 c 128,-1,43
 151 225 151 225 145 210.5 c 128,-1,44
 139 196 139 196 136 181 c 0,45,46
 127 133 127 133 120 80 c 128,-1,47
 113 27 113 27 102 -24 c 0,48,49
 94 -62 94 -62 83.5 -86.5 c 128,-1,50
 73 -111 73 -111 58 -125.5 c 128,-1,51
 43 -140 43 -140 22.5 -146 c 128,-1,52
 2 -152 2 -152 -25 -152 c 2,53,-1
 -61 -152 l 1,0,-1
EndSplineSet
EndChar

StartChar: slash
Encoding: 47 47 540
Width: 347
Flags: W
LayerCount: 2
Fore
SplineSet
-73 -160 m 1,0,-1
 397 710 l 1,1,-1
 433 710 l 1,2,-1
 -38 -160 l 1,3,-1
 -73 -160 l 1,0,-1
EndSplineSet
Substitution2: "'frac' Diagonal Fractions in Latin lookup 10 subtable" slash.frac
EndChar

StartChar: bar
Encoding: 124 124 541
Width: 217
Flags: W
LayerCount: 2
Fore
SplineSet
99 -250 m 1,0,-1
 99 750 l 1,1,-1
 132 750 l 1,2,-1
 132 -250 l 1,3,-1
 99 -250 l 1,0,-1
EndSplineSet
EndChar

StartChar: backslash
Encoding: 92 92 542
Width: 347
Flags: W
LayerCount: 2
Fore
SplineSet
229 -160 m 1,0,-1
 89 710 l 1,1,-1
 121 710 l 1,2,-1
 261 -160 l 1,3,-1
 229 -160 l 1,0,-1
EndSplineSet
EndChar

StartChar: brokenbar
Encoding: 166 166 543
Width: 217
Flags: W
LayerCount: 2
Fore
SplineSet
99 278 m 1,0,-1
 99 750 l 1,1,-1
 132 750 l 1,2,-1
 132 278 l 1,3,-1
 99 278 l 1,0,-1
99 -250 m 1,4,-1
 99 218 l 1,5,-1
 132 218 l 1,6,-1
 132 -250 l 1,7,-1
 99 -250 l 1,4,-1
EndSplineSet
EndChar

StartChar: asterisk
Encoding: 42 42 544
Width: 382
Flags: W
LayerCount: 2
Fore
SplineSet
177 473 m 1,0,-1
 157 491 l 1,1,-1
 222 574 l 1,2,-1
 139 619 l 1,3,-1
 150 644 l 1,4,-1
 243 612 l 1,5,-1
 265 712 l 1,6,-1
 293 710 l 1,7,-1
 285 609 l 1,8,-1
 381 623 l 1,9,-1
 386 596 l 1,10,-1
 288 568 l 1,11,-1
 326 476 l 1,12,-1
 301 461 l 1,13,-1
 253 546 l 1,14,-1
 177 473 l 1,0,-1
EndSplineSet
EndChar

StartChar: dagger
Encoding: 8224 8224 545
Width: 404
Flags: W
LayerCount: 2
Fore
SplineSet
115 -80 m 1,0,-1
 240 525 l 1,1,-1
 112 522 l 1,2,-1
 120 562 l 1,3,-1
 245 559 l 1,4,-1
 273 712 l 1,5,-1
 313 712 l 1,6,-1
 281 559 l 1,7,-1
 407 562 l 1,8,-1
 399 522 l 1,9,-1
 274 525 l 1,10,-1
 155 -80 l 1,11,-1
 115 -80 l 1,0,-1
EndSplineSet
EndChar

StartChar: daggerdbl
Encoding: 8225 8225 546
Width: 404
Flags: W
LayerCount: 2
Fore
SplineSet
117 -80 m 1,0,-1
 148 72 l 1,1,-1
 22 70 l 1,2,-1
 30 109 l 1,3,-1
 156 106 l 1,4,-1
 195 316 l 1,5,-1
 240 526 l 1,6,-1
 112 522 l 1,7,-1
 120 562 l 1,8,-1
 245 559 l 1,9,-1
 273 712 l 1,10,-1
 313 712 l 1,11,-1
 281 559 l 1,12,-1
 407 562 l 1,13,-1
 399 522 l 1,14,-1
 274 526 l 1,15,-1
 235 316 l 1,16,-1
 190 106 l 1,17,-1
 318 109 l 1,18,-1
 310 70 l 1,19,-1
 184 72 l 1,20,-1
 157 -80 l 1,21,-1
 117 -80 l 1,0,-1
EndSplineSet
EndChar

StartChar: section
Encoding: 167 167 547
Width: 460
Flags: W
LayerCount: 2
Fore
SplineSet
99 350 m 0,0,1
 99 314 99 314 119.5 290.5 c 128,-1,2
 140 267 140 267 169.5 249 c 128,-1,3
 199 231 199 231 231.5 214 c 128,-1,4
 264 197 264 197 288 174 c 1,5,6
 331 191 331 191 354 214.5 c 128,-1,7
 377 238 377 238 377 285 c 0,8,9
 377 321 377 321 357.5 345.5 c 128,-1,10
 338 370 338 370 309.5 389.5 c 128,-1,11
 281 409 281 409 249.5 426.5 c 128,-1,12
 218 444 218 444 194 467 c 1,13,14
 150 450 150 450 124.5 422.5 c 128,-1,15
 99 395 99 395 99 350 c 0,0,1
176 -48 m 0,16,17
 133 -48 133 -48 94 -29.5 c 128,-1,18
 55 -11 55 -11 23 22 c 1,19,-1
 49 51 l 1,20,21
 75 22 75 22 109 4.5 c 128,-1,22
 143 -13 143 -13 179 -13 c 0,23,24
 200 -13 200 -13 219.5 -5.5 c 128,-1,25
 239 2 239 2 253 14.5 c 128,-1,26
 267 27 267 27 275.5 45 c 128,-1,27
 284 63 284 63 284 84 c 0,28,29
 284 115 284 115 267.5 136 c 128,-1,30
 251 157 251 157 226 173.5 c 128,-1,31
 201 190 201 190 172 204.5 c 128,-1,32
 143 219 143 219 118 237.5 c 128,-1,33
 93 256 93 256 76.5 281 c 128,-1,34
 60 306 60 306 60 343 c 0,35,36
 60 398 60 398 91.5 435 c 128,-1,37
 123 472 123 472 172 492 c 1,38,39
 164 504 164 504 159.5 518 c 128,-1,40
 155 532 155 532 155 549 c 0,41,42
 155 580 155 580 165.5 604.5 c 128,-1,43
 176 629 176 629 194.5 646 c 128,-1,44
 213 663 213 663 237.5 672 c 128,-1,45
 262 681 262 681 291 681 c 0,46,47
 334 681 334 681 369.5 660.5 c 128,-1,48
 405 640 405 640 431 612 c 1,49,-1
 403 585 l 1,50,51
 381 611 381 611 352 628.5 c 128,-1,52
 323 646 323 646 289 646 c 0,53,54
 271 646 271 646 254.5 640 c 128,-1,55
 238 634 238 634 224.5 622 c 128,-1,56
 211 610 211 610 203 593.5 c 128,-1,57
 195 577 195 577 195 556 c 0,58,59
 195 528 195 528 211.5 508 c 128,-1,60
 228 488 228 488 252.5 471 c 128,-1,61
 277 454 277 454 305.5 437.5 c 128,-1,62
 334 421 334 421 358.5 401 c 128,-1,63
 383 381 383 381 399.5 355 c 128,-1,64
 416 329 416 329 416 292 c 0,65,66
 416 233 416 233 388 201.5 c 128,-1,67
 360 170 360 170 308 149 c 1,68,69
 324 123 324 123 324 91 c 0,70,71
 324 62 324 62 312.5 36.5 c 128,-1,72
 301 11 301 11 281.5 -7.5 c 128,-1,73
 262 -26 262 -26 234.5 -37 c 128,-1,74
 207 -48 207 -48 176 -48 c 0,16,17
EndSplineSet
EndChar

StartChar: paragraph
Encoding: 182 182 548
Width: 492
Flags: W
LayerCount: 2
Fore
SplineSet
291 -80 m 1,0,-1
 439 659 l 1,1,-1
 480 659 l 1,2,-1
 332 -80 l 1,3,-1
 291 -80 l 1,0,-1
298 242 m 2,4,5
 253 242 253 242 212.5 253 c 128,-1,6
 172 264 172 264 141.5 285.5 c 128,-1,7
 111 307 111 307 93 339.5 c 128,-1,8
 75 372 75 372 75 414 c 0,9,10
 75 475 75 475 97.5 521 c 128,-1,11
 120 567 120 567 156.5 597.5 c 128,-1,12
 193 628 193 628 240 643.5 c 128,-1,13
 287 659 287 659 337 659 c 2,14,-1
 388 659 l 1,15,-1
 304 242 l 1,16,-1
 298 242 l 2,4,5
EndSplineSet
EndChar

StartChar: copyright
Encoding: 169 169 549
Width: 661
Flags: W
LayerCount: 2
Fore
SplineSet
298 -12 m 0,0,1
 240 -12 240 -12 192.5 8 c 128,-1,2
 145 28 145 28 111 65 c 128,-1,3
 77 102 77 102 58 152.5 c 128,-1,4
 39 203 39 203 39 265 c 0,5,6
 39 336 39 336 64 405.5 c 128,-1,7
 89 475 89 475 135.5 529.5 c 128,-1,8
 182 584 182 584 248 618 c 128,-1,9
 314 652 314 652 395 652 c 0,10,11
 453 652 453 652 500.5 632 c 128,-1,12
 548 612 548 612 582 575.5 c 128,-1,13
 616 539 616 539 635 488 c 128,-1,14
 654 437 654 437 654 376 c 0,15,16
 654 305 654 305 628.5 235.5 c 128,-1,17
 603 166 603 166 556.5 111 c 128,-1,18
 510 56 510 56 444.5 22 c 128,-1,19
 379 -12 379 -12 298 -12 c 0,0,1
300 17 m 0,20,21
 373 17 373 17 433 49 c 128,-1,22
 493 81 493 81 535.5 132 c 128,-1,23
 578 183 578 183 601 246 c 128,-1,24
 624 309 624 309 624 372 c 0,25,26
 624 429 624 429 607.5 475.5 c 128,-1,27
 591 522 591 522 561 555 c 128,-1,28
 531 588 531 588 488.5 606 c 128,-1,29
 446 624 446 624 393 624 c 0,30,31
 320 624 320 624 260 592 c 128,-1,32
 200 560 200 560 157.5 509 c 128,-1,33
 115 458 115 458 92 395 c 128,-1,34
 69 332 69 332 69 269 c 0,35,36
 69 212 69 212 85.5 165.5 c 128,-1,37
 102 119 102 119 132 86 c 128,-1,38
 162 53 162 53 204.5 35 c 128,-1,39
 247 17 247 17 300 17 c 0,20,21
323 124 m 0,40,41
 261 124 261 124 222 161 c 128,-1,42
 183 198 183 198 183 273 c 0,43,44
 183 328 183 328 201.5 372.5 c 128,-1,45
 220 417 220 417 249 447.5 c 128,-1,46
 278 478 278 478 313.5 494.5 c 128,-1,47
 349 511 349 511 384 511 c 256,48,49
 419 511 419 511 440.5 497 c 128,-1,50
 462 483 462 483 479 460 c 1,51,-1
 454 438 l 1,52,53
 439 457 439 457 422.5 467.5 c 128,-1,54
 406 478 406 478 380 478 c 0,55,56
 353 478 353 478 324 463 c 128,-1,57
 295 448 295 448 272 422 c 128,-1,58
 249 396 249 396 234 359.5 c 128,-1,59
 219 323 219 323 219 280 c 0,60,61
 219 218 219 218 248.5 187.5 c 128,-1,62
 278 157 278 157 327 157 c 0,63,64
 360 157 360 157 387 171 c 128,-1,65
 414 185 414 185 440 203 c 1,66,-1
 457 176 l 1,67,68
 427 154 427 154 396.5 139 c 128,-1,69
 366 124 366 124 323 124 c 0,40,41
EndSplineSet
EndChar

StartChar: uni2117
Encoding: 8471 8471 550
Width: 661
Flags: W
LayerCount: 2
Fore
SplineSet
298 -12 m 0,0,1
 240 -12 240 -12 192.5 8 c 128,-1,2
 145 28 145 28 111 65 c 128,-1,3
 77 102 77 102 58 152.5 c 128,-1,4
 39 203 39 203 39 265 c 0,5,6
 39 336 39 336 64 405.5 c 128,-1,7
 89 475 89 475 135.5 529.5 c 128,-1,8
 182 584 182 584 248 618 c 128,-1,9
 314 652 314 652 395 652 c 0,10,11
 453 652 453 652 500.5 632 c 128,-1,12
 548 612 548 612 582 575.5 c 128,-1,13
 616 539 616 539 635 488 c 128,-1,14
 654 437 654 437 654 376 c 0,15,16
 654 305 654 305 628.5 235.5 c 128,-1,17
 603 166 603 166 556.5 111 c 128,-1,18
 510 56 510 56 444.5 22 c 128,-1,19
 379 -12 379 -12 298 -12 c 0,0,1
300 17 m 0,20,21
 373 17 373 17 433 49 c 128,-1,22
 493 81 493 81 535.5 132 c 128,-1,23
 578 183 578 183 601 246 c 128,-1,24
 624 309 624 309 624 372 c 0,25,26
 624 429 624 429 607.5 475.5 c 128,-1,27
 591 522 591 522 561 555 c 128,-1,28
 531 588 531 588 488.5 606 c 128,-1,29
 446 624 446 624 393 624 c 0,30,31
 320 624 320 624 260 592 c 128,-1,32
 200 560 200 560 157.5 509 c 128,-1,33
 115 458 115 458 92 395 c 128,-1,34
 69 332 69 332 69 269 c 0,35,36
 69 212 69 212 85.5 165.5 c 128,-1,37
 102 119 102 119 132 86 c 128,-1,38
 162 53 162 53 204.5 35 c 128,-1,39
 247 17 247 17 300 17 c 0,20,21
205 136 m 1,40,-1
 277 499 l 1,41,-1
 394 499 l 2,42,43
 444 499 444 499 475.5 474 c 128,-1,44
 507 449 507 449 507 405 c 0,45,46
 507 370 507 370 494 343.5 c 128,-1,47
 481 317 481 317 459 299.5 c 128,-1,48
 437 282 437 282 408 273 c 128,-1,49
 379 264 379 264 347 264 c 2,50,-1
 266 264 l 1,51,-1
 241 136 l 1,52,-1
 205 136 l 1,40,-1
273 295 m 1,53,-1
 347 295 l 2,54,55
 404 295 404 295 437.5 322.5 c 128,-1,56
 471 350 471 350 471 398 c 0,57,58
 471 430 471 430 448.5 448.5 c 128,-1,59
 426 467 426 467 384 467 c 2,60,-1
 306 467 l 1,61,-1
 273 295 l 1,53,-1
EndSplineSet
EndChar

StartChar: registered
Encoding: 174 174 551
Width: 384
Flags: W
LayerCount: 2
Fore
SplineSet
224 330 m 0,0,1
 192 330 192 330 163.5 341.5 c 128,-1,2
 135 353 135 353 114 374.5 c 128,-1,3
 93 396 93 396 80.5 426 c 128,-1,4
 68 456 68 456 68 493 c 0,5,6
 68 534 68 534 83 572.5 c 128,-1,7
 98 611 98 611 124 641 c 128,-1,8
 150 671 150 671 185.5 689 c 128,-1,9
 221 707 221 707 262 707 c 0,10,11
 294 707 294 707 322.5 695 c 128,-1,12
 351 683 351 683 372 661.5 c 128,-1,13
 393 640 393 640 405.5 609.5 c 128,-1,14
 418 579 418 579 418 543 c 0,15,16
 418 501 418 501 403 462.5 c 128,-1,17
 388 424 388 424 361.5 394.5 c 128,-1,18
 335 365 335 365 299.5 347.5 c 128,-1,19
 264 330 264 330 224 330 c 0,0,1
226 356 m 0,20,21
 259 356 259 356 289 370.5 c 128,-1,22
 319 385 319 385 341 410 c 128,-1,23
 363 435 363 435 376 468.5 c 128,-1,24
 389 502 389 502 389 539 c 0,25,26
 389 600 389 600 354.5 640 c 128,-1,27
 320 680 320 680 260 680 c 0,28,29
 226 680 226 680 196.5 665 c 128,-1,30
 167 650 167 650 145 625 c 128,-1,31
 123 600 123 600 110 567 c 128,-1,32
 97 534 97 534 97 497 c 0,33,34
 97 436 97 436 131 396 c 128,-1,35
 165 356 165 356 226 356 c 0,20,21
164 418 m 1,36,-1
 206 623 l 1,37,-1
 263 623 l 2,38,39
 292 623 292 623 308 608 c 128,-1,40
 324 593 324 593 324 565 c 0,41,42
 324 541 324 541 309.5 524 c 128,-1,43
 295 507 295 507 274 499 c 1,44,-1
 303 418 l 1,45,-1
 272 418 l 1,46,-1
 247 492 l 1,47,-1
 209 492 l 1,48,-1
 193 418 l 1,49,-1
 164 418 l 1,36,-1
215 518 m 1,50,-1
 240 518 l 2,51,52
 265 518 265 518 279.5 529.5 c 128,-1,53
 294 541 294 541 294 562 c 0,54,55
 294 578 294 578 285 587.5 c 128,-1,56
 276 597 276 597 257 597 c 2,57,-1
 229 597 l 1,58,-1
 215 518 l 1,50,-1
EndSplineSet
EndChar

StartChar: trademark
Encoding: 8482 8482 552
Width: 587
Flags: W
LayerCount: 2
Fore
SplineSet
130 369 m 1,0,-1
 184 643 l 1,1,-1
 79 643 l 1,2,-1
 86 676 l 1,3,-1
 330 676 l 1,4,-1
 323 643 l 1,5,-1
 220 643 l 1,6,-1
 165 369 l 1,7,-1
 130 369 l 1,0,-1
317 369 m 1,8,-1
 379 676 l 1,9,-1
 428 676 l 1,10,-1
 452 549 l 1,11,-1
 465 463 l 1,12,-1
 469 463 l 1,13,-1
 515 549 l 1,14,-1
 592 676 l 1,15,-1
 642 676 l 1,16,-1
 580 369 l 1,17,-1
 545 369 l 1,18,-1
 577 531 l 1,19,-1
 603 635 l 1,20,-1
 599 635 l 1,21,-1
 472 417 l 1,22,-1
 444 417 l 1,23,-1
 403 635 l 1,24,-1
 399 635 l 1,25,-1
 384 531 l 1,26,-1
 352 369 l 1,27,-1
 317 369 l 1,8,-1
EndSplineSet
EndChar

StartChar: uni2120
Encoding: 8480 8480 553
Width: 577
Flags: W
LayerCount: 2
Fore
SplineSet
147 357 m 0,0,1
 112 357 112 357 87 372 c 128,-1,2
 62 387 62 387 48 410 c 1,3,-1
 74 431 l 1,4,5
 87 412 87 412 105.5 400 c 128,-1,6
 124 388 124 388 149 388 c 0,7,8
 178 388 178 388 200.5 405 c 128,-1,9
 223 422 223 422 223 448 c 0,10,11
 223 465 223 465 214.5 475 c 128,-1,12
 206 485 206 485 191 494 c 2,13,-1
 148 521 l 2,14,15
 142 525 142 525 134.5 530.5 c 128,-1,16
 127 536 127 536 120.5 544.5 c 128,-1,17
 114 553 114 553 109 563.5 c 128,-1,18
 104 574 104 574 104 588 c 0,19,20
 104 631 104 631 134 656.5 c 128,-1,21
 164 682 164 682 209 682 c 0,22,23
 233 682 233 682 253 671 c 128,-1,24
 273 660 273 660 291 642 c 1,25,-1
 266 618 l 1,26,27
 249 635 249 635 236 643 c 128,-1,28
 223 651 223 651 206 651 c 0,29,30
 176 651 176 651 158 634 c 128,-1,31
 140 617 140 617 140 599 c 0,32,33
 140 580 140 580 150.5 567.5 c 128,-1,34
 161 555 161 555 172 549 c 2,35,-1
 215 523 l 2,36,37
 233 512 233 512 245.5 496 c 128,-1,38
 258 480 258 480 258 455 c 0,39,40
 258 415 258 415 228 386 c 128,-1,41
 198 357 198 357 147 357 c 0,0,1
307 369 m 1,42,-1
 369 676 l 1,43,-1
 418 676 l 1,44,-1
 442 549 l 1,45,-1
 455 463 l 1,46,-1
 459 463 l 1,47,-1
 505 549 l 1,48,-1
 582 676 l 1,49,-1
 632 676 l 1,50,-1
 570 369 l 1,51,-1
 535 369 l 1,52,-1
 567 531 l 1,53,-1
 593 635 l 1,54,-1
 589 635 l 1,55,-1
 462 417 l 1,56,-1
 434 417 l 1,57,-1
 393 635 l 1,58,-1
 389 635 l 1,59,-1
 374 531 l 1,60,-1
 342 369 l 1,61,-1
 307 369 l 1,42,-1
EndSplineSet
EndChar

StartChar: at
Encoding: 64 64 554
Width: 783
Flags: W
LayerCount: 2
Fore
SplineSet
336 -145 m 0,0,1
 273 -145 273 -145 220 -123.5 c 128,-1,2
 167 -102 167 -102 128 -62.5 c 128,-1,3
 89 -23 89 -23 67.5 34.5 c 128,-1,4
 46 92 46 92 46 164 c 0,5,6
 46 264 46 264 81.5 350 c 128,-1,7
 117 436 117 436 176 498 c 128,-1,8
 235 560 235 560 311 595.5 c 128,-1,9
 387 631 387 631 467 631 c 0,10,11
 534 631 534 631 586 609.5 c 128,-1,12
 638 588 638 588 673.5 550 c 128,-1,13
 709 512 709 512 727.5 459 c 128,-1,14
 746 406 746 406 746 342 c 0,15,16
 746 273 746 273 729.5 219 c 128,-1,17
 713 165 713 165 686 128 c 128,-1,18
 659 91 659 91 624 71.5 c 128,-1,19
 589 52 589 52 553 52 c 256,20,21
 517 52 517 52 495.5 73 c 128,-1,22
 474 94 474 94 467 128 c 1,23,-1
 465 128 l 1,24,25
 440 99 440 99 412 79.5 c 128,-1,26
 384 60 384 60 350 60 c 0,27,28
 329 60 329 60 309 68 c 128,-1,29
 289 76 289 76 274 92.5 c 128,-1,30
 259 109 259 109 249.5 133.5 c 128,-1,31
 240 158 240 158 240 190 c 0,32,33
 240 233 240 233 255 274.5 c 128,-1,34
 270 316 270 316 296 349 c 128,-1,35
 322 382 322 382 356.5 402 c 128,-1,36
 391 422 391 422 431 422 c 0,37,38
 455 422 455 422 474 408.5 c 128,-1,39
 493 395 493 395 506 371 c 1,40,-1
 508 371 l 1,41,-1
 521 414 l 1,42,-1
 552 414 l 1,43,-1
 504 201 l 2,44,45
 498 176 498 176 498 155 c 128,-1,46
 498 134 498 134 504.5 118.5 c 128,-1,47
 511 103 511 103 524.5 94 c 128,-1,48
 538 85 538 85 560 85 c 0,49,50
 587 85 587 85 613.5 102 c 128,-1,51
 640 119 640 119 661.5 151 c 128,-1,52
 683 183 683 183 696.5 229.5 c 128,-1,53
 710 276 710 276 710 335 c 0,54,55
 710 393 710 393 694.5 441.5 c 128,-1,56
 679 490 679 490 648 525 c 128,-1,57
 617 560 617 560 571 579 c 128,-1,58
 525 598 525 598 464 598 c 0,59,60
 392 598 392 598 323.5 565.5 c 128,-1,61
 255 533 255 533 201.5 475.5 c 128,-1,62
 148 418 148 418 115 340 c 128,-1,63
 82 262 82 262 82 171 c 0,64,65
 82 104 82 104 101 51.5 c 128,-1,66
 120 -1 120 -1 154.5 -37.5 c 128,-1,67
 189 -74 189 -74 236 -93 c 128,-1,68
 283 -112 283 -112 339 -112 c 0,69,70
 381 -112 381 -112 416.5 -103 c 128,-1,71
 452 -94 452 -94 484 -75 c 1,72,-1
 499 -103 l 1,73,74
 459 -126 459 -126 418 -135.5 c 128,-1,75
 377 -145 377 -145 336 -145 c 0,0,1
355 94 m 0,76,77
 381 94 381 94 407 111 c 128,-1,78
 433 128 433 128 459 163 c 1,79,-1
 498 336 l 1,80,81
 481 367 481 367 464 378 c 128,-1,82
 447 389 447 389 430 389 c 0,83,84
 396 389 396 389 368 371 c 128,-1,85
 340 353 340 353 319.5 325 c 128,-1,86
 299 297 299 297 288 263 c 128,-1,87
 277 229 277 229 277 197 c 0,88,89
 277 143 277 143 300 118.5 c 128,-1,90
 323 94 323 94 355 94 c 0,76,77
EndSplineSet
Substitution2: "'case' Case-Sensitive Forms in Latin lookup 19 subtable" at.case
Substitution2: "'aalt' Access All Alternates in Latin lookup 0 subtable" at.case
EndChar

StartChar: at.case
Encoding: 65623 -1 555
Width: 783
Flags: W
LayerCount: 2
Fore
SplineSet
368 -14 m 0,0,1
 310 -14 310 -14 261.5 4.5 c 128,-1,2
 213 23 213 23 178.5 57 c 128,-1,3
 144 91 144 91 124.5 140 c 128,-1,4
 105 189 105 189 105 249 c 0,5,6
 105 343 105 343 137.5 422 c 128,-1,7
 170 501 170 501 224 558 c 128,-1,8
 278 615 278 615 348 647 c 128,-1,9
 418 679 418 679 494 679 c 0,10,11
 556 679 556 679 604.5 660 c 128,-1,12
 653 641 653 641 686 607 c 128,-1,13
 719 573 719 573 736 525.5 c 128,-1,14
 753 478 753 478 753 421 c 0,15,16
 753 356 753 356 739 306.5 c 128,-1,17
 725 257 725 257 701.5 223 c 128,-1,18
 678 189 678 189 648 171.5 c 128,-1,19
 618 154 618 154 586 154 c 0,20,21
 550 154 550 154 528.5 174 c 128,-1,22
 507 194 507 194 501 228 c 1,23,-1
 499 228 l 1,24,25
 474 199 474 199 446 180.5 c 128,-1,26
 418 162 418 162 384 162 c 0,27,28
 365 162 365 162 347 170 c 128,-1,29
 329 178 329 178 315 194 c 128,-1,30
 301 210 301 210 292.5 234 c 128,-1,31
 284 258 284 258 284 290 c 0,32,33
 284 329 284 329 297.5 366.5 c 128,-1,34
 311 404 311 404 335 433.5 c 128,-1,35
 359 463 359 463 391.5 481 c 128,-1,36
 424 499 424 499 462 499 c 0,37,38
 509 499 509 499 536 449 c 1,39,-1
 538 449 l 1,40,-1
 550 493 l 1,41,-1
 582 493 l 1,42,-1
 537 301 l 2,43,44
 526 251 526 251 537.5 219 c 128,-1,45
 549 187 549 187 593 187 c 0,46,47
 616 187 616 187 638.5 202 c 128,-1,48
 661 217 661 217 678.5 246.5 c 128,-1,49
 696 276 696 276 707 318.5 c 128,-1,50
 718 361 718 361 718 415 c 0,51,52
 718 467 718 467 703 509.5 c 128,-1,53
 688 552 688 552 659.5 582.5 c 128,-1,54
 631 613 631 613 588.5 630 c 128,-1,55
 546 647 546 647 491 647 c 0,56,57
 423 647 423 647 360 617.5 c 128,-1,58
 297 588 297 588 248.5 535.5 c 128,-1,59
 200 483 200 483 170.5 411.5 c 128,-1,60
 141 340 141 340 141 256 c 0,61,62
 141 200 141 200 157.5 156 c 128,-1,63
 174 112 174 112 204.5 81.5 c 128,-1,64
 235 51 235 51 277.5 34.5 c 128,-1,65
 320 18 320 18 372 18 c 0,66,67
 453 18 453 18 517 55 c 1,68,-1
 529 27 l 1,69,70
 491 4 491 4 449.5 -5 c 128,-1,71
 408 -14 408 -14 368 -14 c 0,0,1
389 195 m 0,72,73
 415 195 415 195 441 211.5 c 128,-1,74
 467 228 467 228 493 263 c 1,75,-1
 528 415 l 1,76,77
 511 446 511 446 494 456 c 128,-1,78
 477 466 477 466 460 466 c 0,79,80
 428 466 428 466 402.5 450.5 c 128,-1,81
 377 435 377 435 359 410 c 128,-1,82
 341 385 341 385 331 355 c 128,-1,83
 321 325 321 325 321 296 c 0,84,85
 321 243 321 243 341.5 219 c 128,-1,86
 362 195 362 195 389 195 c 0,72,73
EndSplineSet
EndChar

StartChar: numbersign
Encoding: 35 35 556
Width: 464
Flags: W
LayerCount: 2
Fore
SplineSet
41 0 m 1,0,-1
 108 214 l 1,1,-1
 27 214 l 1,2,-1
 36 250 l 1,3,-1
 118 250 l 1,4,-1
 170 420 l 1,5,-1
 87 420 l 1,6,-1
 97 456 l 1,7,-1
 182 456 l 1,8,-1
 243 650 l 1,9,-1
 278 650 l 1,10,-1
 217 456 l 1,11,-1
 357 456 l 1,12,-1
 418 650 l 1,13,-1
 453 650 l 1,14,-1
 392 456 l 1,15,-1
 473 456 l 1,16,-1
 463 420 l 1,17,-1
 381 420 l 1,18,-1
 329 250 l 1,19,-1
 412 250 l 1,20,-1
 403 214 l 1,21,-1
 317 214 l 1,22,-1
 250 0 l 1,23,-1
 216 0 l 1,24,-1
 283 214 l 1,25,-1
 142 214 l 1,26,-1
 75 0 l 1,27,-1
 41 0 l 1,0,-1
153 250 m 1,28,-1
 295 250 l 1,29,-1
 347 420 l 1,30,-1
 205 420 l 1,31,-1
 153 250 l 1,28,-1
EndSplineSet
EndChar

StartChar: zero.dnom
Encoding: 65628 -1 585
Width: 346
Flags: W
LayerCount: 2
Fore
SplineSet
131 -12 m 0,0,1
 102 -12 102 -12 80.5 -0.5 c 128,-1,2
 59 11 59 11 45 31 c 128,-1,3
 31 51 31 51 24 78 c 128,-1,4
 17 105 17 105 17 136 c 0,5,6
 17 179 17 179 28 226 c 128,-1,7
 39 273 39 273 61.5 312 c 128,-1,8
 84 351 84 351 116.5 376.5 c 128,-1,9
 149 402 149 402 193 402 c 0,10,11
 222 402 222 402 243.5 390.5 c 128,-1,12
 265 379 265 379 279 359 c 128,-1,13
 293 339 293 339 300 312.5 c 128,-1,14
 307 286 307 286 307 255 c 0,15,16
 307 211 307 211 296 164 c 128,-1,17
 285 117 285 117 262.5 78 c 128,-1,18
 240 39 240 39 207 13.5 c 128,-1,19
 174 -12 174 -12 131 -12 c 0,0,1
133 19 m 0,20,21
 167 19 167 19 192.5 41.5 c 128,-1,22
 218 64 218 64 235.5 98.5 c 128,-1,23
 253 133 253 133 261.5 173.5 c 128,-1,24
 270 214 270 214 270 249 c 0,25,26
 270 300 270 300 252 335.5 c 128,-1,27
 234 371 234 371 191 371 c 0,28,29
 157 371 157 371 131.5 348.5 c 128,-1,30
 106 326 106 326 88.5 291.5 c 128,-1,31
 71 257 71 257 62.5 217 c 128,-1,32
 54 177 54 177 54 141 c 0,33,34
 54 90 54 90 72 54.5 c 128,-1,35
 90 19 90 19 133 19 c 0,20,21
EndSplineSet
EndChar

StartChar: one.dnom
Encoding: 65629 -1 586
Width: 344
Flags: W
LayerCount: 2
Fore
SplineSet
121 0 m 1,0,-1
 186 328 l 1,1,-1
 95 328 l 1,2,-1
 100 353 l 1,3,4
 138 359 138 359 161 367 c 128,-1,5
 184 375 184 375 206 390 c 1,6,-1
 234 390 l 1,7,-1
 157 0 l 1,8,-1
 121 0 l 1,0,-1
EndSplineSet
EndChar

StartChar: two.dnom
Encoding: 65630 -1 587
Width: 346
Flags: W
LayerCount: 2
Fore
SplineSet
5 0 m 1,0,-1
 9 28 l 1,1,2
 76 76 76 76 122.5 113 c 128,-1,3
 169 150 169 150 198 181 c 128,-1,4
 227 212 227 212 240.5 240 c 128,-1,5
 254 268 254 268 254 298 c 0,6,7
 254 333 254 333 236 351.5 c 128,-1,8
 218 370 218 370 180 370 c 0,9,10
 156 370 156 370 132 355 c 128,-1,11
 108 340 108 340 88 317 c 1,12,-1
 66 340 l 1,13,14
 89 365 89 365 119 383.5 c 128,-1,15
 149 402 149 402 184 402 c 0,16,17
 234 402 234 402 262.5 375 c 128,-1,18
 291 348 291 348 291 302 c 0,19,20
 291 269 291 269 277.5 238 c 128,-1,21
 264 207 264 207 236 175.5 c 128,-1,22
 208 144 208 144 165.5 108.5 c 128,-1,23
 123 73 123 73 66 31 c 1,24,-1
 256 31 l 1,25,-1
 251 0 l 1,26,-1
 5 0 l 1,0,-1
EndSplineSet
EndChar

StartChar: three.dnom
Encoding: 65631 -1 588
Width: 346
Flags: W
LayerCount: 2
Fore
SplineSet
128 -12 m 0,0,1
 82 -12 82 -12 49.5 12.5 c 128,-1,2
 17 37 17 37 1 68 c 1,3,-1
 29 86 l 1,4,5
 43 58 43 58 67 38.5 c 128,-1,6
 91 19 91 19 129 19 c 0,7,8
 168 19 168 19 197 40.5 c 128,-1,9
 226 62 226 62 226 104 c 0,10,11
 226 137 226 137 196.5 162 c 128,-1,12
 167 187 167 187 107 187 c 1,13,-1
 114 216 l 1,14,15
 151 216 151 216 176.5 224 c 128,-1,16
 202 232 202 232 218.5 245 c 128,-1,17
 235 258 235 258 242.5 274 c 128,-1,18
 250 290 250 290 250 306 c 0,19,20
 250 335 250 335 231 353 c 128,-1,21
 212 371 212 371 178 371 c 0,22,23
 131 371 131 371 85 334 c 1,24,-1
 68 361 l 1,25,26
 119 402 119 402 182 402 c 0,27,28
 228 402 228 402 257 377.5 c 128,-1,29
 286 353 286 353 286 308 c 0,30,31
 286 271 286 271 260 241 c 128,-1,32
 234 211 234 211 189 198 c 1,33,34
 227 187 227 187 245 161 c 128,-1,35
 263 135 263 135 263 109 c 0,36,37
 263 80 263 80 252 57.5 c 128,-1,38
 241 35 241 35 222.5 19.5 c 128,-1,39
 204 4 204 4 179.5 -4 c 128,-1,40
 155 -12 155 -12 128 -12 c 0,0,1
EndSplineSet
EndChar

StartChar: four.dnom
Encoding: 65632 -1 589
Width: 348
Flags: W
LayerCount: 2
Fore
SplineSet
167 0 m 1,0,-1
 190 116 l 1,1,-1
 19 116 l 1,2,-1
 23 138 l 1,3,-1
 247 390 l 1,4,-1
 278 390 l 1,5,-1
 229 145 l 1,6,-1
 287 145 l 1,7,-1
 280 116 l 1,8,-1
 223 116 l 1,9,-1
 200 0 l 1,10,-1
 167 0 l 1,0,-1
66 145 m 1,11,-1
 196 145 l 1,12,-1
 214 237 l 1,13,-1
 239 338 l 1,14,-1
 235 338 l 1,15,-1
 164 256 l 1,16,-1
 66 145 l 1,11,-1
EndSplineSet
EndChar

StartChar: five.dnom
Encoding: 65633 -1 590
Width: 346
Flags: W
LayerCount: 2
Fore
SplineSet
131 -12 m 0,0,1
 83 -12 83 -12 50 12.5 c 128,-1,2
 17 37 17 37 1 68 c 1,3,-1
 29 86 l 1,4,5
 43 58 43 58 68 38.5 c 128,-1,6
 93 19 93 19 138 19 c 0,7,8
 156 19 156 19 174.5 27 c 128,-1,9
 193 35 193 35 207.5 50 c 128,-1,10
 222 65 222 65 231.5 86.5 c 128,-1,11
 241 108 241 108 241 134 c 0,12,13
 241 176 241 176 218.5 200 c 128,-1,14
 196 224 196 224 159 224 c 0,15,16
 131 224 131 224 113.5 215 c 128,-1,17
 96 206 96 206 76 190 c 1,18,-1
 60 207 l 1,19,-1
 112 390 l 1,20,-1
 308 390 l 1,21,-1
 301 359 l 1,22,-1
 137 359 l 1,23,-1
 101 235 l 1,24,25
 116 245 116 245 133 249.5 c 128,-1,26
 150 254 150 254 166 254 c 0,27,28
 215 254 215 254 246 223.5 c 128,-1,29
 277 193 277 193 277 140 c 0,30,31
 277 105 277 105 265 77 c 128,-1,32
 253 49 253 49 232.5 29 c 128,-1,33
 212 9 212 9 185.5 -1.5 c 128,-1,34
 159 -12 159 -12 131 -12 c 0,0,1
EndSplineSet
EndChar

StartChar: six.dnom
Encoding: 65634 -1 591
Width: 348
Flags: W
LayerCount: 2
Fore
SplineSet
150 -12 m 256,0,1
 126 -12 126 -12 104 -2 c 128,-1,2
 82 8 82 8 65 27 c 128,-1,3
 48 46 48 46 38 73.5 c 128,-1,4
 28 101 28 101 28 137 c 0,5,6
 28 201 28 201 44.5 250.5 c 128,-1,7
 61 300 61 300 88 334 c 128,-1,8
 115 368 115 368 150 385 c 128,-1,9
 185 402 185 402 223 402 c 0,10,11
 277 402 277 402 312 370 c 1,12,-1
 289 345 l 1,13,14
 263 371 263 371 220 371 c 0,15,16
 194 371 194 371 168.5 359 c 128,-1,17
 143 347 143 347 122 323 c 128,-1,18
 101 299 101 299 86 264 c 128,-1,19
 71 229 71 229 66 184 c 1,20,21
 83 207 83 207 111.5 223 c 128,-1,22
 140 239 140 239 173 239 c 0,23,24
 223 239 223 239 251 209 c 128,-1,25
 279 179 279 179 279 135 c 0,26,27
 279 100 279 100 268 72.5 c 128,-1,28
 257 45 257 45 238.5 26 c 128,-1,29
 220 7 220 7 197 -2.5 c 128,-1,30
 174 -12 174 -12 150 -12 c 256,0,1
153 19 m 0,31,32
 171 19 171 19 187 27 c 128,-1,33
 203 35 203 35 216 49.5 c 128,-1,34
 229 64 229 64 236.5 84.5 c 128,-1,35
 244 105 244 105 244 129 c 0,36,37
 244 166 244 166 223.5 188 c 128,-1,38
 203 210 203 210 168 210 c 0,39,40
 143 210 143 210 115 195 c 128,-1,41
 87 180 87 180 64 148 c 1,42,-1
 64 144 l 2,43,44
 64 111 64 111 71.5 87.5 c 128,-1,45
 79 64 79 64 91.5 48.5 c 128,-1,46
 104 33 104 33 120 26 c 128,-1,47
 136 19 136 19 153 19 c 0,31,32
EndSplineSet
EndChar

StartChar: seven.dnom
Encoding: 65635 -1 592
Width: 346
Flags: W
LayerCount: 2
Fore
SplineSet
79 0 m 1,0,1
 105 101 105 101 151.5 189 c 128,-1,2
 198 277 198 277 277 359 c 1,3,-1
 69 359 l 1,4,-1
 76 390 l 1,5,-1
 326 390 l 1,6,-1
 323 368 l 1,7,8
 275 321 275 321 241 275 c 128,-1,9
 207 229 207 229 183.5 183.5 c 128,-1,10
 160 138 160 138 144.5 92.5 c 128,-1,11
 129 47 129 47 119 0 c 1,12,-1
 79 0 l 1,0,1
EndSplineSet
EndChar

StartChar: eight.dnom
Encoding: 65636 -1 593
Width: 348
Flags: W
LayerCount: 2
Fore
SplineSet
131 -12 m 0,0,1
 83 -12 83 -12 50 16 c 128,-1,2
 17 44 17 44 17 90 c 0,3,4
 17 112 17 112 25.5 130.5 c 128,-1,5
 34 149 34 149 47.5 165 c 128,-1,6
 61 181 61 181 79 193 c 128,-1,7
 97 205 97 205 115 213 c 1,8,-1
 116 217 l 1,9,10
 99 232 99 232 86.5 251 c 128,-1,11
 74 270 74 270 74 293 c 0,12,13
 74 317 74 317 83.5 337.5 c 128,-1,14
 93 358 93 358 109.5 372 c 128,-1,15
 126 386 126 386 148 394 c 128,-1,16
 170 402 170 402 195 402 c 0,17,18
 239 402 239 402 268 376 c 128,-1,19
 297 350 297 350 297 307 c 0,20,21
 297 287 297 287 289.5 270 c 128,-1,22
 282 253 282 253 270.5 239 c 128,-1,23
 259 225 259 225 245 214 c 128,-1,24
 231 203 231 203 218 196 c 1,25,-1
 218 192 l 1,26,27
 239 177 239 177 253.5 157.5 c 128,-1,28
 268 138 268 138 268 106 c 0,29,30
 268 80 268 80 257.5 58 c 128,-1,31
 247 36 247 36 228 20.5 c 128,-1,32
 209 5 209 5 184 -3.5 c 128,-1,33
 159 -12 159 -12 131 -12 c 0,0,1
189 211 m 1,34,35
 224 229 224 229 243 252.5 c 128,-1,36
 262 276 262 276 262 300 c 0,37,38
 262 334 262 334 242.5 353 c 128,-1,39
 223 372 223 372 192 372 c 0,40,41
 157 372 157 372 133 351.5 c 128,-1,42
 109 331 109 331 109 299 c 0,43,44
 109 266 109 266 131.5 244.5 c 128,-1,45
 154 223 154 223 189 211 c 1,34,35
134 17 m 0,46,47
 153 17 153 17 170.5 23 c 128,-1,48
 188 29 188 29 201.5 40 c 128,-1,49
 215 51 215 51 223.5 66.5 c 128,-1,50
 232 82 232 82 232 101 c 0,51,52
 232 122 232 122 224.5 136 c 128,-1,53
 217 150 217 150 204 160.5 c 128,-1,54
 191 171 191 171 174.5 179 c 128,-1,55
 158 187 158 187 139 196 c 1,56,57
 97 177 97 177 75 150.5 c 128,-1,58
 53 124 53 124 53 97 c 0,59,60
 53 59 53 59 77 38 c 128,-1,61
 101 17 101 17 134 17 c 0,46,47
EndSplineSet
EndChar

StartChar: nine.dnom
Encoding: 65637 -1 594
Width: 348
Flags: W
LayerCount: 2
Fore
SplineSet
154 180 m 0,0,1
 179 180 179 180 207 195 c 128,-1,2
 235 210 235 210 258 242 c 1,3,-1
 258 246 l 2,4,5
 258 279 258 279 250.5 302.5 c 128,-1,6
 243 326 243 326 230.5 341.5 c 128,-1,7
 218 357 218 357 202 364 c 128,-1,8
 186 371 186 371 169 371 c 0,9,10
 151 371 151 371 135 363 c 128,-1,11
 119 355 119 355 106.5 340.5 c 128,-1,12
 94 326 94 326 86.5 305.5 c 128,-1,13
 79 285 79 285 79 261 c 0,14,15
 79 224 79 224 99 202 c 128,-1,16
 119 180 119 180 154 180 c 0,0,1
100 -12 m 0,17,18
 45 -12 45 -12 10 20 c 1,19,-1
 33 45 l 1,20,21
 59 19 59 19 102 19 c 0,22,23
 129 19 129 19 154.5 31 c 128,-1,24
 180 43 180 43 201 66.5 c 128,-1,25
 222 90 222 90 236.5 124.5 c 128,-1,26
 251 159 251 159 256 204 c 1,27,28
 239 183 239 183 210 167 c 128,-1,29
 181 151 181 151 149 151 c 0,30,31
 99 151 99 151 71 181 c 128,-1,32
 43 211 43 211 43 255 c 0,33,34
 43 290 43 290 54 317.5 c 128,-1,35
 65 345 65 345 83.5 363.5 c 128,-1,36
 102 382 102 382 125 392 c 128,-1,37
 148 402 148 402 172 402 c 256,38,39
 196 402 196 402 218 392 c 128,-1,40
 240 382 240 382 257 363 c 128,-1,41
 274 344 274 344 284 316.5 c 128,-1,42
 294 289 294 289 294 253 c 0,43,44
 294 188 294 188 278 139 c 128,-1,45
 262 90 262 90 235 56 c 128,-1,46
 208 22 208 22 173 5 c 128,-1,47
 138 -12 138 -12 100 -12 c 0,17,18
EndSplineSet
EndChar

StartChar: parenleft.dnom
Encoding: 65638 -1 595
Width: 210
Flags: W
LayerCount: 2
Fore
SplineSet
80 -74 m 1,0,1
 40 8 40 8 40 114 c 0,2,3
 40 163 40 163 48.5 206.5 c 128,-1,4
 57 250 57 250 74.5 292 c 128,-1,5
 92 334 92 334 119.5 375 c 128,-1,6
 147 416 147 416 185 459 c 1,7,-1
 207 443 l 1,8,9
 137 361 137 361 105.5 280 c 128,-1,10
 74 199 74 199 74 112 c 0,11,12
 74 71 74 71 81 23.5 c 128,-1,13
 88 -24 88 -24 105 -60 c 1,14,-1
 80 -74 l 1,0,1
EndSplineSet
EndChar

StartChar: parenright.dnom
Encoding: 65639 -1 596
Width: 210
Flags: W
LayerCount: 2
Fore
SplineSet
1 -74 m 1,0,-1
 -21 -58 l 1,1,2
 49 24 49 24 80.5 105 c 128,-1,3
 112 186 112 186 112 273 c 0,4,5
 112 314 112 314 105 361 c 128,-1,6
 98 408 98 408 81 444 c 1,7,-1
 106 459 l 1,8,9
 146 377 146 377 146 271 c 0,10,11
 146 222 146 222 137.5 178 c 128,-1,12
 129 134 129 134 111.5 92.5 c 128,-1,13
 94 51 94 51 66.5 10 c 128,-1,14
 39 -31 39 -31 1 -74 c 1,0,-1
EndSplineSet
EndChar

StartChar: period.dnom
Encoding: 65640 -1 597
Width: 152
Flags: W
LayerCount: 2
Fore
SplineSet
25 -8 m 0,0,1
 -4 -8 -4 -8 -4 23 c 0,2,3
 -4 41 -4 41 8.5 54 c 128,-1,4
 21 67 21 67 38 67 c 0,5,6
 50 67 50 67 58.5 58 c 128,-1,7
 67 49 67 49 67 36 c 0,8,9
 67 16 67 16 54.5 4 c 128,-1,10
 42 -8 42 -8 25 -8 c 0,0,1
EndSplineSet
EndChar

StartChar: comma.dnom
Encoding: 65641 -1 598
Width: 152
Flags: W
LayerCount: 2
Fore
SplineSet
-24 -107 m 1,0,-1
 -34 -81 l 1,1,2
 -7 -67 -7 -67 11 -48 c 128,-1,3
 29 -29 29 -29 34 -2 c 1,4,-1
 29 -2 l 2,5,6
 17 -2 17 -2 8.5 6 c 128,-1,7
 0 14 0 14 0 28 c 0,8,9
 0 48 0 48 11.5 57.5 c 128,-1,10
 23 67 23 67 38 67 c 256,11,12
 53 67 53 67 62 54.5 c 128,-1,13
 71 42 71 42 71 21 c 0,14,15
 71 -22 71 -22 44.5 -54.5 c 128,-1,16
 18 -87 18 -87 -24 -107 c 1,0,-1
EndSplineSet
EndChar

StartChar: a.sups
Encoding: 7491 7491 616
Width: 348
Flags: W
LayerCount: 2
Fore
SplineSet
90 514 m 0,0,1
 90 559 90 559 105 599 c 128,-1,2
 120 639 120 639 144.5 668 c 128,-1,3
 169 697 169 697 200.5 714 c 128,-1,4
 232 731 232 731 266 731 c 0,5,6
 290 731 290 731 310.5 719.5 c 128,-1,7
 331 708 331 708 345 682 c 1,8,-1
 349 682 l 1,9,-1
 361 723 l 1,10,-1
 388 723 l 1,11,-1
 326 406 l 1,12,-1
 297 406 l 1,13,-1
 306 457 l 1,14,-1
 302 457 l 1,15,16
 277 430 277 430 247.5 414 c 128,-1,17
 218 398 218 398 184 398 c 0,18,19
 142 398 142 398 116 427.5 c 128,-1,20
 90 457 90 457 90 514 c 0,0,1
191 428 m 256,21,22
 220 428 220 428 251.5 448 c 128,-1,23
 283 468 283 468 310 499 c 1,24,-1
 339 646 l 1,25,26
 322 677 322 677 303.5 689 c 128,-1,27
 285 701 285 701 265 701 c 0,28,29
 239 701 239 701 213.5 685.5 c 128,-1,30
 188 670 188 670 168.5 644.5 c 128,-1,31
 149 619 149 619 137 586 c 128,-1,32
 125 553 125 553 125 519 c 0,33,34
 125 472 125 472 143.5 450 c 128,-1,35
 162 428 162 428 191 428 c 256,21,22
EndSplineSet
Substitution2: "'ss02' Style Set 2 in Latin lookup 21 subtable" a.supa
Substitution2: "'aalt' Access All Alternates in Latin lookup 0 subtable" a.supa
EndChar

StartChar: b.sups
Encoding: 7495 7495 617
Width: 354
Flags: W
LayerCount: 2
Fore
SplineSet
90 406 m 1,0,-1
 63 406 l 1,1,-1
 157 878 l 1,2,-1
 192 878 l 1,3,-1
 166 750 l 1,4,-1
 152 684 l 1,5,-1
 154 684 l 1,6,7
 179 705 179 705 206.5 718 c 128,-1,8
 234 731 234 731 267 731 c 0,9,10
 309 731 309 731 335 701.5 c 128,-1,11
 361 672 361 672 361 615 c 0,12,13
 361 570 361 570 346 530 c 128,-1,14
 331 490 331 490 306.5 461 c 128,-1,15
 282 432 282 432 250.5 415 c 128,-1,16
 219 398 219 398 185 398 c 0,17,18
 161 398 161 398 140.5 409.5 c 128,-1,19
 120 421 120 421 107 447 c 1,20,-1
 103 447 l 1,21,-1
 90 406 l 1,0,-1
261 701 m 0,22,23
 232 701 232 701 202 685.5 c 128,-1,24
 172 670 172 670 145 644 c 1,25,-1
 113 483 l 1,26,27
 130 452 130 452 148 440 c 128,-1,28
 166 428 166 428 186 428 c 0,29,30
 212 428 212 428 237.5 443.5 c 128,-1,31
 263 459 263 459 282.5 484.5 c 128,-1,32
 302 510 302 510 314 542.5 c 128,-1,33
 326 575 326 575 326 610 c 0,34,35
 326 657 326 657 307.5 679 c 128,-1,36
 289 701 289 701 261 701 c 0,22,23
EndSplineSet
EndChar

StartChar: c.sups
Encoding: 7580 7580 618
Width: 289
Flags: W
LayerCount: 2
Fore
SplineSet
182 398 m 0,0,1
 129 398 129 398 96 431.5 c 128,-1,2
 63 465 63 465 63 524 c 0,3,4
 63 561 63 561 75.5 598 c 128,-1,5
 88 635 88 635 111 664.5 c 128,-1,6
 134 694 134 694 166 712.5 c 128,-1,7
 198 731 198 731 237 731 c 0,8,9
 265 731 265 731 285.5 721 c 128,-1,10
 306 711 306 711 322 693 c 1,11,-1
 300 670 l 1,12,13
 286 686 286 686 270.5 693.5 c 128,-1,14
 255 701 255 701 233 701 c 0,15,16
 204 701 204 701 179 684.5 c 128,-1,17
 154 668 154 668 136 643 c 128,-1,18
 118 618 118 618 107.5 587.5 c 128,-1,19
 97 557 97 557 97 529 c 0,20,21
 97 478 97 478 123 453 c 128,-1,22
 149 428 149 428 187 428 c 0,23,24
 209 428 209 428 228 436.5 c 128,-1,25
 247 445 247 445 263 455 c 1,26,-1
 277 430 l 1,27,28
 261 418 261 418 237 408 c 128,-1,29
 213 398 213 398 182 398 c 0,0,1
EndSplineSet
EndChar

StartChar: d.sups
Encoding: 7496 7496 619
Width: 355
Flags: W
LayerCount: 2
Fore
SplineSet
321 683 m 1,0,-1
 331 747 l 1,1,-1
 356 873 l 1,2,-1
 390 873 l 1,3,-1
 298 406 l 1,4,-1
 270 406 l 1,5,-1
 279 457 l 1,6,-1
 275 457 l 1,7,8
 249 430 249 430 219.5 414 c 128,-1,9
 190 398 190 398 157 398 c 0,10,11
 115 398 115 398 89 427.5 c 128,-1,12
 63 457 63 457 63 514 c 0,13,14
 63 559 63 559 78 599 c 128,-1,15
 93 639 93 639 117.5 668 c 128,-1,16
 142 697 142 697 173.5 714 c 128,-1,17
 205 731 205 731 239 731 c 0,18,19
 263 731 263 731 283.5 720 c 128,-1,20
 304 709 304 709 317 683 c 1,21,-1
 321 683 l 1,0,-1
163 428 m 0,22,23
 192 428 192 428 224 448 c 128,-1,24
 256 468 256 468 283 499 c 1,25,-1
 311 646 l 1,26,27
 294 677 294 677 276 689 c 128,-1,28
 258 701 258 701 238 701 c 0,29,30
 212 701 212 701 186.5 685.5 c 128,-1,31
 161 670 161 670 141.5 644.5 c 128,-1,32
 122 619 122 619 110 586 c 128,-1,33
 98 553 98 553 98 519 c 0,34,35
 98 472 98 472 116.5 450 c 128,-1,36
 135 428 135 428 163 428 c 0,22,23
EndSplineSet
EndChar

StartChar: e.sups
Encoding: 7497 7497 620
Width: 318
Flags: W
LayerCount: 2
Fore
SplineSet
63 531 m 0,0,1
 63 575 63 575 77.5 612 c 128,-1,2
 92 649 92 649 116 675.5 c 128,-1,3
 140 702 140 702 170 716.5 c 128,-1,4
 200 731 200 731 231 731 c 0,5,6
 260 731 260 731 279.5 721 c 128,-1,7
 299 711 299 711 310.5 695 c 128,-1,8
 322 679 322 679 327 659 c 128,-1,9
 332 639 332 639 332 618 c 0,10,11
 332 601 332 601 329 586 c 128,-1,12
 326 571 326 571 321 559 c 1,13,-1
 100 559 l 1,14,15
 91 499 91 499 114.5 463.5 c 128,-1,16
 138 428 138 428 190 428 c 0,17,18
 216 428 216 428 236 437 c 128,-1,19
 256 446 256 446 273 457 c 1,20,-1
 287 430 l 1,21,22
 267 419 267 419 241.5 408.5 c 128,-1,23
 216 398 216 398 185 398 c 0,24,25
 128 398 128 398 95.5 432 c 128,-1,26
 63 466 63 466 63 531 c 0,0,1
106 588 m 1,27,-1
 296 588 l 1,28,29
 299 598 299 598 299.5 605 c 128,-1,30
 300 612 300 612 300 620 c 0,31,32
 300 652 300 652 283 676.5 c 128,-1,33
 266 701 266 701 228 701 c 0,34,35
 210 701 210 701 190.5 693 c 128,-1,36
 171 685 171 685 154.5 670 c 128,-1,37
 138 655 138 655 125 634 c 128,-1,38
 112 613 112 613 106 588 c 1,27,-1
EndSplineSet
EndChar

StartChar: f.sups
Encoding: 7584 7584 621
Width: 178
Flags: W
LayerCount: 2
Fore
SplineSet
65 406 m 1,0,-1
 123 693 l 1,1,-1
 80 693 l 1,2,-1
 85 721 l 1,3,-1
 129 723 l 1,4,-1
 142 790 l 2,5,6
 151 838 151 838 176.5 862.5 c 128,-1,7
 202 887 202 887 237 887 c 0,8,9
 263 887 263 887 290 873 c 1,10,-1
 276 845 l 1,11,12
 268 850 268 850 259 853.5 c 128,-1,13
 250 857 250 857 237 857 c 0,14,15
 214 857 214 857 198.5 839.5 c 128,-1,16
 183 822 183 822 177 793 c 2,17,-1
 163 723 l 1,18,-1
 236 723 l 1,19,-1
 231 693 l 1,20,-1
 157 693 l 1,21,-1
 100 406 l 1,22,-1
 65 406 l 1,0,-1
EndSplineSet
EndChar

StartChar: g.sups
Encoding: 7501 7501 622
Width: 347
Flags: W
LayerCount: 2
Fore
SplineSet
334 723 m 1,0,-1
 361 723 l 1,1,-1
 296 393 l 2,2,3
 283 331 283 331 245.5 292.5 c 128,-1,4
 208 254 208 254 151 254 c 0,5,6
 122 254 122 254 93 265.5 c 128,-1,7
 64 277 64 277 38 298 c 1,8,-1
 57 324 l 1,9,10
 76 307 76 307 101 296 c 128,-1,11
 126 285 126 285 153 285 c 0,12,13
 196 285 196 285 223.5 316 c 128,-1,14
 251 347 251 347 263 398 c 2,15,-1
 275 457 l 1,16,-1
 271 457 l 1,17,18
 245 436 245 436 217 423 c 128,-1,19
 189 410 189 410 157 410 c 0,20,21
 115 410 115 410 89 438.5 c 128,-1,22
 63 467 63 467 63 521 c 0,23,24
 63 564 63 564 78 602 c 128,-1,25
 93 640 93 640 117.5 668.5 c 128,-1,26
 142 697 142 697 173.5 714 c 128,-1,27
 205 731 205 731 239 731 c 0,28,29
 263 731 263 731 283.5 719.5 c 128,-1,30
 304 708 304 708 317 682 c 1,31,-1
 321 682 l 1,32,-1
 334 723 l 1,0,-1
164 440 m 0,33,34
 192 440 192 440 224 456.5 c 128,-1,35
 256 473 256 473 283 499 c 1,36,-1
 311 646 l 1,37,38
 294 677 294 677 276 689 c 128,-1,39
 258 701 258 701 238 701 c 0,40,41
 212 701 212 701 186.5 685.5 c 128,-1,42
 161 670 161 670 141.5 645.5 c 128,-1,43
 122 621 122 621 110 589.5 c 128,-1,44
 98 558 98 558 98 526 c 0,45,46
 98 483 98 483 116.5 461.5 c 128,-1,47
 135 440 135 440 164 440 c 0,33,34
EndSplineSet
Substitution2: "'ss03' Style Set 3 in Latin lookup 22 subtable" g.supa
Substitution2: "'aalt' Access All Alternates in Latin lookup 0 subtable" g.supa
EndChar

StartChar: h.sups
Encoding: 688 688 623
Width: 344
Flags: W
LayerCount: 2
Fore
SplineSet
63 406 m 1,0,-1
 157 878 l 1,1,-1
 192 878 l 1,2,-1
 166 750 l 1,3,-1
 150 677 l 1,4,-1
 154 677 l 1,5,6
 182 700 182 700 209.5 715.5 c 128,-1,7
 237 731 237 731 267 731 c 0,8,9
 309 731 309 731 325 710 c 128,-1,10
 341 689 341 689 341 652 c 0,11,12
 341 641 341 641 339 630.5 c 128,-1,13
 337 620 337 620 335 610 c 2,14,-1
 295 406 l 1,15,-1
 261 406 l 1,16,-1
 300 605 l 2,17,18
 303 618 303 618 304.5 626.5 c 128,-1,19
 306 635 306 635 306 644 c 0,20,21
 306 700 306 700 259 700 c 0,22,23
 210 700 210 700 143 634 c 1,24,-1
 98 406 l 1,25,-1
 63 406 l 1,0,-1
EndSplineSet
EndChar

StartChar: i.sups
Encoding: 8305 8305 624
Width: 154
Flags: W
LayerCount: 2
Fore
SplineSet
160 796 m 0,0,1
 149 796 149 796 141.5 803 c 128,-1,2
 134 810 134 810 134 822 c 0,3,4
 134 836 134 836 143 845.5 c 128,-1,5
 152 855 152 855 166 855 c 0,6,7
 177 855 177 855 184.5 848 c 128,-1,8
 192 841 192 841 192 829 c 0,9,10
 192 815 192 815 183 805.5 c 128,-1,11
 174 796 174 796 160 796 c 0,0,1
63 406 m 1,12,-1
 126 723 l 1,13,-1
 160 723 l 1,14,-1
 98 406 l 1,15,-1
 63 406 l 1,12,-1
EndSplineSet
EndChar

StartChar: j.sups
Encoding: 690 690 625
Width: 154
Flags: W
LayerCount: 2
Fore
SplineSet
0 256 m 0,0,1
 -13 256 -13 256 -24.5 260 c 128,-1,2
 -36 264 -36 264 -47 270 c 1,3,-1
 -33 296 l 1,4,5
 -27 293 -27 293 -19 289.5 c 128,-1,6
 -11 286 -11 286 0 286 c 0,7,8
 23 286 23 286 35 303.5 c 128,-1,9
 47 321 47 321 52 350 c 2,10,-1
 126 723 l 1,11,-1
 160 723 l 1,12,-1
 87 349 l 2,13,14
 79 304 79 304 58 280 c 128,-1,15
 37 256 37 256 0 256 c 0,0,1
160 796 m 0,16,17
 149 796 149 796 141.5 803 c 128,-1,18
 134 810 134 810 134 822 c 0,19,20
 134 836 134 836 143 845.5 c 128,-1,21
 152 855 152 855 166 855 c 0,22,23
 177 855 177 855 184.5 848 c 128,-1,24
 192 841 192 841 192 829 c 0,25,26
 192 815 192 815 183 805.5 c 128,-1,27
 174 796 174 796 160 796 c 0,16,17
EndSplineSet
EndChar

